<svg width="74" height="18" viewBox="0 0 74 18" fill="none" xmlns="http://www.w3.org/2000/svg">
<path d="M51.2632 12.6586C51.2632 12.6575 51.2626 12.6569 51.2626 12.6558C51.2626 12.6569 51.2626 12.6586 51.2626 12.6598C51.2632 12.6592 51.2632 12.6586 51.2632 12.6586ZM53.6442 11.8713C53.6967 11.9745 53.6575 12.1545 53.5508 12.1845C53.5243 12.211 53.4908 12.2306 53.4556 12.2381C52.8696 12.3835 52.2962 12.5681 51.7056 12.695C51.6663 12.7054 51.6271 12.7146 51.5879 12.725C51.5919 12.7405 51.596 12.7567 51.6006 12.7723C51.7038 13.0711 51.7759 13.3802 51.8273 13.6917C51.8521 13.8128 51.8948 13.9293 51.9294 14.047C52.0592 14.4444 52.1843 14.8286 52.2772 15.2364C52.3654 15.4942 52.366 15.7717 52.4572 16.0295C52.4895 16.1587 52.5241 16.2868 52.5558 16.416C52.5725 16.4748 52.5731 16.5377 52.5339 16.5884C52.5068 16.6277 52.4514 16.6484 52.4047 16.6404C52.3695 16.6565 52.3291 16.6652 52.2876 16.6698C52.2437 16.6807 52.1987 16.6871 52.1538 16.6917H52.1532C51.8861 16.7655 51.6202 16.8457 51.3439 16.8734C51.0947 16.938 50.8525 17.036 50.5981 17.0816C50.4545 17.1197 50.2757 17.111 50.2249 16.9495C50.162 16.8474 50.1603 16.6882 50.1326 16.5757C50.0732 16.3404 50.0242 16.101 49.9561 15.8674C49.8407 15.4965 49.741 15.1228 49.625 14.7519C49.5241 14.265 49.4324 13.7701 49.313 13.2891C49.2397 12.9332 49.2345 12.5687 49.1728 12.2116C49.1255 11.9993 49.084 11.7859 49.0257 11.5765C48.9219 11.2091 48.8169 10.8267 48.7546 10.4558C48.6646 10.0941 48.585 9.71806 48.5239 9.35179C48.3872 8.82458 48.2932 8.28873 48.1813 7.75748C48.1432 7.53887 48.0982 7.32142 48.0572 7.10338C48.0036 6.88708 47.9338 6.67597 47.9009 6.45447C47.8738 6.30335 47.8375 6.113 47.9886 6.01436C48.1657 5.92092 48.3676 5.86728 48.5631 5.82517C48.6848 5.80671 48.8083 5.80787 48.9282 5.7796C49.1382 5.7398 49.3499 5.73115 49.5621 5.72884C49.7571 5.6902 49.9515 5.64636 50.1465 5.60945C50.2428 5.57541 50.3403 5.55061 50.4406 5.56215C50.8605 5.516 51.2793 5.47389 51.6952 5.39487C51.9576 5.34642 52.2224 5.3147 52.4848 5.26221C52.6383 5.23856 53.0149 5.10531 53.1188 5.25759C53.2283 5.31296 53.2439 5.45717 53.2526 5.56849C53.2728 5.76576 53.2699 5.99014 53.2687 6.18452C53.2918 6.52138 53.3235 6.85939 53.2976 7.1974C53.2854 7.34449 53.3039 7.49215 53.2947 7.63866C53.2906 7.6975 53.2485 7.75287 53.1966 7.7794C53.1753 7.8019 53.147 7.82209 53.1118 7.83766C52.873 7.91438 52.6198 7.93341 52.3776 7.99744C52.1976 8.04243 52.009 8.0407 51.8342 8.10645C51.7004 8.14452 51.5723 8.19874 51.4385 8.23566C51.2626 8.27258 51.0878 8.30891 50.9182 8.36775C50.7717 8.40755 50.6287 8.45427 50.4885 8.51137C50.4741 8.51483 50.4608 8.52003 50.447 8.52579C50.5029 8.69884 50.5468 8.87534 50.6073 9.04665C50.74 9.40716 50.7527 9.80343 50.9176 10.1518C50.9546 10.2528 51.0163 10.3416 51.0624 10.4373C51.1697 10.4177 51.281 10.4172 51.3889 10.4039C51.3964 10.4022 51.4045 10.3998 51.412 10.3981C51.4149 10.3964 51.4177 10.3947 51.4206 10.3929C51.4414 10.3883 51.4627 10.3837 51.4835 10.3785H51.4847C51.5095 10.3716 51.5348 10.3658 51.5602 10.3612C51.9334 10.2758 52.3089 10.1882 52.6792 10.1213C52.7502 10.1051 52.8275 10.0907 52.8811 10.0791C52.993 10.0636 53.1089 9.98974 53.2214 10.0093C53.2722 9.99377 53.3316 10.0082 53.3645 10.0543C53.4158 10.1293 53.4256 10.2631 53.447 10.341C53.5271 10.6329 53.5219 10.9276 53.5739 11.223C53.6056 11.4427 53.605 11.6596 53.6442 11.8713Z" fill="#FC79C9"/>
<path d="M63.0733 6.26182C63.3 6.39794 63.1835 6.99494 63.1939 7.21759C63.1512 7.66462 63.1304 8.11395 63.0583 8.55752C63.0318 8.75767 63.0041 8.91976 62.9845 9.10837C62.9822 9.24738 62.9984 9.38697 62.9845 9.5254C62.9557 9.93552 62.9049 10.3427 62.8784 10.7529C62.8743 10.9069 62.8755 11.0545 62.8507 11.2051C62.8213 11.4173 62.8276 11.6336 62.7982 11.8459C62.7503 12.3708 62.6909 12.8946 62.6309 13.4177C62.6159 13.6421 62.605 13.8705 62.5836 14.0862C62.5329 14.385 62.4636 14.6613 62.3731 14.9428C62.3206 15.1251 62.2323 15.2929 62.1383 15.4567C62.1383 15.4567 62.1383 15.4573 62.1377 15.4579C61.8499 16.0658 61.3879 16.5365 60.6553 16.7453C60.3877 16.8394 60.1328 16.9887 59.8455 17.013C59.7913 17.0164 59.7405 17.0014 59.6875 16.9922C59.6361 16.9986 59.5848 17.006 59.5329 17.0043C59.5196 17.006 59.5058 17.0078 59.4919 17.0089C59.4273 17.0222 59.3639 17.047 59.297 17.0355C59.2722 17.0303 59.2462 17.0251 59.2214 17.0193C59.1597 17.0193 59.098 17.0193 59.0368 17.0205C58.5754 17.0384 58.1283 16.9224 57.6986 16.7655C57.3185 16.6294 56.9361 16.4777 56.6483 16.1841C56.4573 15.973 56.2133 15.7982 56.0513 15.5669C56.019 15.4977 55.9907 15.4342 55.9642 15.3719C55.9209 15.2947 55.8817 15.2139 55.8453 15.1326C55.6879 14.8396 55.6498 14.505 55.5552 14.1901C55.5027 13.8422 55.4208 13.5002 55.3597 13.1535C55.3072 12.6638 55.2189 12.1758 55.2103 11.6827C55.1791 10.9023 55.0816 10.1241 55.0603 9.34371C55.0615 8.49926 55.0776 7.65481 55.0851 6.81094C55.1203 6.57618 55.1584 6.33969 55.1555 6.10146C55.1509 6.0259 55.1445 5.93188 55.163 5.8517C55.1411 5.76691 55.1924 5.66424 55.2841 5.63425C55.6158 5.55984 55.9797 5.59502 56.3085 5.57253C56.8703 5.56964 57.4321 5.54426 57.9934 5.55753C58.1312 5.5408 58.2287 5.66136 58.2149 5.75538C58.3083 5.92265 58.1912 6.25893 58.1866 6.42275C58.1745 6.70481 58.1514 7.00186 58.1364 7.27642C58.1001 7.74941 58.0603 8.22182 58.0712 8.69538C58.0314 9.22027 58.0643 9.7469 58.0718 10.2724C58.0782 10.4022 58.0689 10.5308 58.058 10.6594C58.0384 10.9017 58.0741 11.1428 58.0839 11.3845C58.0805 11.5362 58.103 11.6856 58.1082 11.8367C58.1312 12.1291 58.107 12.4239 58.141 12.7157C58.1935 13.0722 58.2974 13.45 58.6244 13.6432C58.7519 13.6963 58.8845 13.7419 59.0178 13.7817C59.027 13.7811 59.0362 13.7805 59.0455 13.7794C59.1856 13.7996 59.3287 13.8071 59.4596 13.7488C59.665 13.6484 59.8749 13.5233 59.9349 13.2868C60.0832 12.8507 60.1126 12.3927 60.108 11.9365C60.1218 11.6723 60.1276 11.4081 60.1281 11.1445C60.1731 10.2043 60.2002 9.27276 60.2083 8.33487C60.2002 7.91207 60.2516 7.49042 60.2193 7.0682C60.2147 6.76306 60.176 6.44351 60.2072 6.15165C60.2314 6.02936 60.1847 5.8892 60.2568 5.78076C60.3727 5.62502 60.5959 5.63194 60.7649 5.68385C60.8855 5.72077 61.0084 5.74615 61.1318 5.7698C61.2939 5.82459 61.4554 5.87939 61.6273 5.89266C61.8326 5.92957 62.038 5.9688 62.2393 6.02532C62.4648 6.05763 62.6874 6.09858 62.9089 6.15395C62.9822 6.17876 63.0353 6.21509 63.0733 6.26182Z" fill="#FC79C9"/>
<path d="M73.7236 5.66713C73.832 5.79345 73.7778 5.9711 73.7639 6.1205C73.7449 6.28143 73.7241 6.44236 73.7034 6.60329C73.7039 6.86112 73.6734 7.11434 73.6318 7.36814C73.6232 7.62655 73.5926 7.91322 73.5661 8.15721C73.5453 8.56502 73.4588 8.96186 73.449 9.36851C73.4173 9.69153 73.3434 10.0422 73.3077 10.3589C73.2765 10.6162 73.254 10.874 73.2569 11.1336C73.2413 11.3637 73.1963 11.5904 73.171 11.8194C73.1433 12.6927 73.0533 13.5602 72.9351 14.4231C72.8941 14.6757 72.8422 14.9261 72.837 15.1833C72.8381 15.2358 72.8376 15.2993 72.8278 15.3593C72.841 15.4579 72.766 15.5854 72.6714 15.6131C72.022 15.7313 71.3529 15.7688 70.6918 15.789C70.5638 15.8028 70.4594 15.8178 70.3342 15.8247C70.2021 15.834 70.0666 15.8957 69.9351 15.8565C69.8878 15.8426 69.8497 15.8028 69.8301 15.7584C69.8087 15.7359 69.7897 15.7094 69.7747 15.6788C69.5088 15.1943 69.2423 14.708 68.9954 14.2137C68.7238 13.5048 68.3984 12.8219 68.0558 12.1476C68.0201 12.0455 67.9803 11.9457 67.9364 11.8476C67.7415 11.4687 67.5407 11.0932 67.3319 10.7223C67.3244 10.8371 67.3164 10.9524 67.3244 11.0684C67.3273 11.2339 67.3089 11.3948 67.3129 11.5581C67.3267 11.7461 67.3458 11.9336 67.336 12.1222C67.3417 12.902 67.4173 13.6773 67.5384 14.4473C67.5701 14.869 67.5517 15.2929 67.5846 15.714C67.6019 15.9349 67.6169 16.1149 67.6278 16.3254C67.6278 16.3318 67.6273 16.3375 67.6273 16.3444C67.6544 16.4119 67.6832 16.4788 67.6884 16.5527C67.7149 16.7794 67.5298 16.8543 67.3348 16.8347C67.1791 16.8469 67.0239 16.8595 66.867 16.852C66.5457 16.8457 66.2302 16.7794 65.9112 16.7546C65.8103 16.7517 65.7105 16.7315 65.6102 16.7182C65.4625 16.7113 65.3148 16.7165 65.1712 16.6761C65.0437 16.6692 64.9387 16.5763 64.9514 16.4425C64.9532 16.42 64.9537 16.3969 64.9532 16.3733C64.9359 16.2948 64.9284 16.2129 64.9162 16.1345C64.9007 16.0324 64.8938 15.9286 64.8903 15.8247C64.8874 15.7319 64.8932 15.6396 64.888 15.5473C64.8822 15.4775 64.8782 15.4071 64.8736 15.3373C64.862 15.2012 64.8505 15.0657 64.8436 14.9295C64.8366 14.7923 64.832 14.6544 64.8257 14.5408C64.824 14.5217 64.8228 14.5027 64.8211 14.4837C64.8211 14.4837 64.8211 14.4819 64.8211 14.4808C64.8205 14.4739 64.8199 14.4669 64.8199 14.4623C64.8107 14.3268 64.8078 14.1912 64.8067 14.0557C64.8055 13.919 64.809 13.7828 64.8026 13.6461C64.7997 13.5804 64.7963 13.514 64.7928 13.4489C64.7893 13.3825 64.7905 13.3162 64.7899 13.2499C64.7882 13.1178 64.7917 12.9863 64.7859 12.8542C64.7807 12.7942 64.7755 12.7348 64.7715 12.6748C64.7674 12.6211 64.7669 12.5669 64.764 12.5133C64.7444 12.2629 64.7403 12.012 64.7259 11.7611C64.7138 11.6181 64.7011 11.4762 64.7005 11.3326C64.6999 11.1866 64.6999 11.0418 64.7092 10.8971C64.7126 10.7748 64.7097 10.6525 64.7069 10.5539C64.6994 10.457 64.6901 10.36 64.6838 10.2631C64.678 10.1749 64.6757 10.0866 64.6699 10.0019C64.6699 10.0007 64.6694 9.99897 64.6694 9.99724V9.99493C64.659 9.86918 64.6475 9.74344 64.633 9.61769C64.618 9.48676 64.6128 9.35467 64.6048 9.22258C64.599 9.15163 64.5955 9.08011 64.5944 9.00801C64.5932 8.93706 64.5875 8.86611 64.588 8.79516C64.5892 8.66538 64.5811 8.53445 64.5742 8.40409C64.5684 8.33199 64.565 8.25989 64.5609 8.19528C64.5609 8.1924 64.5604 8.18894 64.5598 8.18605V8.18144C64.5557 8.13241 64.5517 8.08338 64.5506 8.03435C64.5488 7.98244 64.5488 7.93053 64.5465 7.87804C64.5419 7.77017 64.5494 7.66173 64.5563 7.55387C64.5581 7.51522 64.5586 7.47658 64.5569 7.43793C64.5552 7.39871 64.5511 7.36064 64.5511 7.32142C64.5511 7.26085 64.5482 7.20317 64.5684 7.14434C64.5892 7.08319 64.6319 7.03474 64.6798 6.99321C64.7271 6.95226 64.7853 6.92861 64.8482 6.92803C64.8586 6.92803 64.8689 6.92861 64.8799 6.93034C64.8903 6.9263 64.9007 6.92284 64.9116 6.91938C65.0518 6.86458 65.1885 6.80229 65.3269 6.74345C65.8778 6.52427 66.4292 6.30681 66.9772 6.08012C67.0452 6.0409 67.1468 6.04955 67.216 6.08243C67.3106 6.12973 67.3688 6.2249 67.4202 6.31315C67.678 6.84151 67.9249 7.37391 68.1937 7.89649C68.3021 8.09261 68.3794 8.3043 68.493 8.49811C68.6251 8.71037 68.7088 8.94744 68.8259 9.16778C69.0877 9.56348 69.2435 10.014 69.4748 10.4258C69.6669 10.855 69.8526 11.2841 70.0833 11.6861C70.171 11.839 70.2344 12.0057 70.3186 12.1597C70.3233 12.1441 70.3279 12.1285 70.3319 12.1136C70.3942 11.8165 70.4317 11.5148 70.4905 11.2166C70.5298 11.0159 70.5574 10.814 70.5984 10.6133C70.599 10.6104 70.5996 10.6069 70.6007 10.604C70.6319 10.3687 70.674 10.1345 70.6895 9.89745C70.7103 9.57616 70.7386 9.25488 70.7812 8.93533C70.8516 8.39717 70.9208 7.86881 70.9451 7.32718C70.9779 6.87785 71.0131 6.4239 70.9774 5.97457C70.9485 5.81364 71.0581 5.62386 71.2242 5.59445C71.3627 5.57541 71.5005 5.54773 71.639 5.52869C72.0133 5.52811 72.3877 5.47159 72.7614 5.49293C72.9004 5.51196 73.1646 5.52696 73.385 5.58868C73.3925 5.58637 73.4005 5.58464 73.4092 5.58349C73.4467 5.57945 73.4801 5.59733 73.5171 5.60137C73.592 5.59964 73.6722 5.60541 73.7236 5.66713Z" fill="#FC79C9"/>
<mask id="path-2-inside-1_190_1051" fill="white">
<path d="M44.0293 6.81209V6.81325C44.0265 6.82017 44.0242 6.82651 44.0218 6.83344C44.057 7.01225 43.9497 7.24124 43.9024 7.40967C43.8765 7.51522 43.8425 7.61847 43.8027 7.71942C43.6561 8.19701 43.5212 8.67865 43.3954 9.16202C43.2824 9.54906 43.171 9.93494 43.0378 10.3156C42.9224 10.6358 42.8203 10.9657 42.739 11.2951C42.5908 11.8534 42.4264 12.3933 42.3012 12.9511C42.1997 13.3491 42.1363 13.7569 42.0036 14.1462C41.9223 14.4514 41.8577 14.7582 41.7821 15.0628C41.695 15.3662 41.6039 15.6679 41.5156 15.9713C41.4833 16.0849 41.4406 16.217 41.4043 16.322C41.372 16.4229 41.346 16.5342 41.2647 16.6075C41.1851 16.6853 41.0513 16.6848 40.9774 16.6057C40.8061 16.5504 40.6429 16.4742 40.4716 16.4177C40.2801 16.3508 40.043 16.307 39.8613 16.2418C39.5891 16.1235 39.3099 16.0203 39.0394 15.8992C38.8871 15.8438 38.725 15.8242 38.5756 15.7607C38.4326 15.7105 38.376 15.5767 38.4262 15.4366C38.4302 15.3829 38.4251 15.3293 38.4158 15.2768C38.4147 15.271 38.4135 15.2652 38.4129 15.26C38.4095 15.2422 38.4054 15.2243 38.4014 15.2076C38.4014 15.2047 38.4008 15.2024 38.4003 15.1995C38.387 15.136 38.372 15.0732 38.3662 15.0091C38.3466 14.9117 38.3333 14.8136 38.3218 14.715C38.2687 14.4669 38.2024 14.2218 38.1505 13.9732C38.0715 13.5717 37.9723 13.1749 37.8736 12.7786C37.8598 12.7417 37.85 12.7025 37.8413 12.6627C37.8056 12.5387 37.7802 12.4112 37.7404 12.2877C37.6279 11.8332 37.4808 11.3839 37.4151 10.919C37.4018 11.0124 37.3874 11.1041 37.3782 11.1895C37.3372 11.6642 37.2207 12.1268 37.1555 12.5986C37.0794 13.142 37.0303 13.6917 36.9438 14.2322C36.9109 14.4462 36.8706 14.6596 36.8302 14.8724C36.8302 14.8736 36.8302 14.8747 36.8296 14.8759C36.8088 15.0005 36.7846 15.1245 36.7587 15.2485C36.7517 15.2849 36.7454 15.3218 36.7385 15.3581C36.7108 15.5958 36.7108 15.8363 36.6508 16.0693C36.6473 16.2447 36.5435 16.4137 36.3451 16.3594C36.2165 16.3202 36.0971 16.2902 35.9678 16.2793C35.8629 16.2637 35.7567 16.296 35.6512 16.2868C35.4533 16.2672 35.2503 16.2741 35.0548 16.2395C35.0161 16.2406 34.9786 16.2406 34.9434 16.2383C34.5022 16.2464 34.0609 16.202 33.6208 16.1939C33.6012 16.191 33.5833 16.1847 33.5683 16.1772C33.4985 16.1472 33.4599 16.0797 33.4553 16.0099C33.1023 15.0622 32.924 14.0378 32.6864 13.0514C32.5901 12.6996 32.451 12.3616 32.3957 11.9988C32.2434 11.3839 32.0882 10.8123 31.929 10.2072C31.824 9.90437 31.7468 9.59347 31.6879 9.27853C31.6158 9.01262 31.5241 8.75133 31.4808 8.4785C31.3724 8.08107 31.2317 7.71076 31.1469 7.31046V7.3093C31.1284 7.25681 31.11 7.20432 31.0927 7.15126C31.0638 7.03186 31.0073 6.90381 30.9629 6.79479C30.9421 6.74115 30.9179 6.68289 30.9092 6.62463V6.62405C30.8948 6.59233 30.889 6.55599 30.8948 6.51619C30.9121 6.36161 31.0696 6.29354 31.2005 6.25432C31.3609 6.1926 31.5178 6.12338 31.6752 6.0559C31.9313 5.94169 32.188 5.8269 32.4574 5.7473C32.6996 5.68385 32.9309 5.58695 33.1651 5.49927C33.2534 5.4739 33.3462 5.42371 33.4391 5.40352C33.4893 5.37872 33.5487 5.37872 33.6041 5.37295C33.8521 5.39256 33.8844 5.69597 33.9732 5.87766C34.0742 6.20702 34.1659 6.54099 34.2513 6.87497C34.4145 7.47023 34.6383 8.0482 34.7854 8.64808C34.8927 9.08242 35.038 9.50579 35.1332 9.94417C35.2382 10.3272 35.2786 10.7298 35.421 11.1012C35.5006 11.246 35.5497 11.4041 35.6137 11.5552C35.6258 11.5581 35.6379 11.561 35.6506 11.5633C35.6506 11.5604 35.6506 11.5581 35.6506 11.5552C35.6546 11.3891 35.6506 11.2224 35.6731 11.0574C35.7141 10.6577 35.6916 10.2574 35.706 9.85765C35.7187 9.73767 35.7221 9.61481 35.7244 9.49138C35.7239 9.48907 35.7233 9.48734 35.7221 9.48503C35.7371 8.88226 35.7371 8.2795 35.7683 7.67731C35.8006 7.24643 35.8992 6.82478 35.8461 6.39102C35.8404 6.2399 35.8513 6.08704 35.8571 5.93592C35.8617 5.86728 35.8479 5.7946 35.8796 5.73346C35.9125 5.60714 36.0688 5.5858 36.1801 5.57195C36.288 5.55061 36.4005 5.52869 36.5106 5.5235C36.9352 5.45717 37.3557 5.37814 37.7785 5.30201C37.9411 5.27951 38.1026 5.22587 38.2664 5.20625C38.4049 5.14973 38.5485 5.17684 38.601 5.33258C38.6679 5.5235 38.6321 5.73346 38.6939 5.92727C38.7879 6.27681 38.7786 6.64251 38.8565 6.99494C38.9246 7.32718 38.9678 7.66346 38.9892 8.00032C39.0757 8.42889 39.0993 8.86842 39.1876 9.29699C39.2337 9.59405 39.281 9.9234 39.3099 10.2158C39.3422 10.4875 39.3589 10.7771 39.4149 11.0424C39.4247 11.1762 39.4593 11.306 39.4968 11.4346C39.5048 11.4358 39.5129 11.4358 39.521 11.4358C39.5354 11.4358 39.5504 11.4346 39.5643 11.4318C39.5775 11.4035 39.5891 11.3787 39.5966 11.3574C39.7263 10.9911 39.8521 10.6219 39.9438 10.2441C40.0419 9.92975 40.1007 9.58597 40.2339 9.28603C40.4231 8.66769 40.6169 8.04993 40.8084 7.43332C40.9647 7.01052 41.1153 6.58772 41.2347 6.15222C41.2768 6.03513 41.297 5.89785 41.4066 5.82229C41.477 5.76403 41.5669 5.76518 41.6321 5.80787C41.6471 5.8096 41.6621 5.81248 41.676 5.81594C41.8121 5.86209 41.9488 5.91342 42.0843 5.96707C42.4304 6.06512 42.7742 6.16837 43.1036 6.31488C43.3135 6.43082 43.5806 6.44178 43.783 6.56464C43.8298 6.58541 43.8736 6.61194 43.9128 6.6402C43.9705 6.68058 44.0311 6.73826 44.0293 6.81209Z"/>
<path d="M27.836 12.0236C27.8533 11.8967 27.8585 11.7692 27.8579 11.6423C27.78 11.0413 27.6387 10.4558 27.3624 9.92687C27.3192 9.81843 27.269 9.71229 27.2171 9.60789C27.198 9.56924 27.1778 9.53117 27.1605 9.49195C27.1334 9.43139 27.0988 9.37428 27.059 9.32179C27.0475 9.3068 27.0354 9.2918 27.0238 9.27622C26.9166 9.09107 26.7539 8.92956 26.5526 8.85227C26.507 8.83035 26.4614 8.80555 26.4136 8.7894C26.368 8.77382 26.3201 8.76344 26.2728 8.75363C26.2376 8.74037 26.2013 8.72364 26.1644 8.71787C26.1159 8.71037 26.0686 8.70288 26.019 8.70518C25.9694 8.70749 25.921 8.7121 25.8725 8.7196C25.8056 8.72941 25.7376 8.73691 25.6706 8.75017C25.6297 8.75825 25.5887 8.76748 25.5484 8.77901C25.4918 8.79459 25.433 8.81478 25.3822 8.84362C25.2917 8.89438 25.1994 8.94687 25.1215 9.01551C25.0892 9.04435 25.0592 9.07492 25.0275 9.10434C24.9802 9.1476 24.9318 9.1897 24.8885 9.237C24.8372 9.29295 24.7887 9.35006 24.7408 9.40947C24.6422 9.53233 24.5637 9.66673 24.4986 9.8092C24.4818 9.84208 24.4657 9.87611 24.4507 9.91014C24.4294 9.98743 24.3988 10.0601 24.3705 10.1345C24.3567 10.2776 24.3336 10.4195 24.3278 10.5631C24.3249 10.5787 24.3221 10.5948 24.3198 10.6104C24.3203 10.6363 24.3209 10.6617 24.3215 10.6877C24.3238 10.7742 24.318 10.8601 24.3198 10.9461C24.3215 11.0297 24.3273 11.1128 24.3376 11.1953C24.3417 11.227 24.3451 11.2581 24.3486 11.2899C24.4074 11.576 24.5118 11.858 24.6053 12.1205C24.6589 12.2981 24.7333 12.4671 24.8377 12.6211C24.9416 12.8369 25.095 13.0111 25.2553 13.1824C25.3984 13.3572 25.5316 13.5469 25.7087 13.6871C25.8477 13.7805 25.9867 13.8809 26.1442 13.9415C26.3057 13.9836 26.4713 14.0257 26.6374 14.0291C26.706 14.0182 26.7729 14.0003 26.837 13.9703C27.0469 13.829 27.2869 13.7096 27.442 13.5048C27.7062 13.0595 27.7702 12.5277 27.836 12.0236ZM30.9283 8.0978C31.0252 8.12895 31.0638 8.23624 31.0425 8.32968C31.0044 8.53156 30.9784 8.73691 30.8856 8.92322C30.8239 9.07203 30.8106 9.23296 30.7846 9.39043C30.7662 9.54213 30.7506 9.69441 30.7293 9.84727C30.6935 10.0093 30.7016 10.1749 30.6947 10.3399C30.6439 10.7442 30.6497 11.1526 30.626 11.5587C30.5799 11.9913 30.5355 12.4227 30.4882 12.8455C30.4541 13.1374 30.3664 13.4177 30.3215 13.7073C30.2719 13.9611 30.2286 14.216 30.115 14.4508C30.1028 14.4831 30.0873 14.5183 30.0671 14.5488C29.9327 14.8269 29.7297 15.0732 29.5255 15.3039C29.4072 15.4308 29.293 15.5969 29.1655 15.7088C28.9642 15.9095 28.7398 16.0895 28.4982 16.2389C28.3638 16.3306 28.253 16.3923 28.1042 16.4339C28.0459 16.4477 27.9888 16.4638 27.9312 16.4817C27.855 16.536 27.7206 16.5515 27.6404 16.5729C27.3088 16.6669 26.9615 16.7021 26.6189 16.6565L26.616 16.6559C26.2849 16.6063 25.955 16.5233 25.6378 16.4396C25.2352 16.2954 24.8643 16.0832 24.5049 15.8559C24.2742 15.6973 24.0273 15.5623 23.8064 15.3904C23.5884 15.1764 23.3196 14.9745 23.1367 14.7346C23.0952 14.6988 23.0635 14.6561 23.0358 14.6106C22.8697 14.4214 22.7255 14.2189 22.602 14.0003C22.4486 13.7615 22.2709 13.5348 22.1602 13.2712C22.159 13.2689 22.1579 13.266 22.1573 13.2637C21.5413 12.2122 21.1571 11.0263 21.1335 9.80228C21.0879 9.39332 21.021 8.98032 20.8987 8.58809C20.8924 8.54425 20.9027 8.5033 20.9241 8.46984C20.9287 8.4237 20.9552 8.37928 20.9979 8.35506C21.1652 8.2645 21.344 8.4012 21.4749 8.49984C21.603 8.59444 21.7068 8.71614 21.8239 8.82228C21.7841 8.3764 21.8972 7.91899 22.065 7.50657C22.1002 7.37448 22.1319 7.24066 22.1515 7.10511C22.3061 6.24567 22.414 5.32623 22.1031 4.48986C22.0316 4.33816 21.9531 4.18992 21.8787 4.03995C21.8129 3.9367 21.761 3.78269 21.877 3.70367C21.9208 3.64079 22.0044 3.60618 22.0817 3.6506C22.1481 3.68117 22.2127 3.71578 22.2744 3.75327C22.2755 3.755 22.2767 3.75673 22.2773 3.75846C22.4417 3.83403 22.5991 3.90324 22.7243 4.03475C22.88 4.17319 23.0588 4.28797 23.2013 4.44141C23.2238 4.39122 23.248 4.34219 23.2717 4.29547C23.3536 4.12877 23.4609 3.93554 23.5786 3.80115C23.5872 3.79249 23.5953 3.78327 23.6034 3.77404C23.7879 3.50755 23.9927 3.2526 24.1836 2.99823C24.5297 2.52986 24.9064 2.08225 25.2323 1.59946C25.3788 1.36124 25.5189 1.11148 25.681 0.886527C25.7427 0.835191 25.8027 0.821925 25.8529 0.835191C25.9435 0.841536 26.019 0.947669 26.03 1.04342C26.0271 1.06592 26.0277 1.08899 26.0329 1.11148C26.0317 1.1409 26.0311 1.17032 26.0306 1.19974C26.0306 1.18993 26.0311 1.18012 26.0311 1.17032C26.0306 1.19454 26.0294 1.21877 26.0277 1.243C26.034 1.29433 26.0386 1.34567 26.0461 1.39643C26.0531 2.2178 26.1996 3.06802 26.6403 3.77404C26.9091 4.22279 27.3209 4.50485 27.6024 4.934C27.6831 5.05571 27.7483 5.18549 27.8025 5.31931C27.851 5.25875 27.9 5.19876 27.9531 5.14223C28.0788 4.99457 28.2248 4.86882 28.3753 4.74827C28.4514 4.67098 28.5149 4.60753 28.5535 4.56542C28.6337 4.48294 28.7127 4.40045 28.782 4.30874C28.7952 4.29663 28.8085 4.28278 28.82 4.26836C28.82 4.26836 28.82 4.26836 28.8206 4.26779C28.8212 4.26721 28.8212 4.26721 28.8218 4.26663C28.8218 4.26663 28.8223 4.26606 28.8229 4.26548L28.8241 4.26432C28.8246 4.26375 28.8252 4.26317 28.8258 4.26259L28.8264 4.26202C28.8419 4.24356 28.8581 4.2251 28.8754 4.20837C28.8852 4.2003 28.895 4.19107 28.9054 4.18299C28.9504 4.13166 29 4.08724 29.0692 4.0734C29.1142 4.06763 29.1569 4.08667 29.1875 4.11782L29.188 4.11839C29.2013 4.12993 29.2128 4.14435 29.2226 4.15992C29.2901 4.18588 29.3259 4.28624 29.304 4.35777C29.2572 4.54754 29.1863 4.73212 29.1523 4.92535C29.1425 5.14569 29.1748 5.3966 29.1921 5.60829C29.2371 6.08993 29.3305 6.57099 29.5024 7.02378C29.695 7.5804 29.901 8.12203 29.9996 8.70172C30.01 8.76633 30.0163 8.83208 30.0204 8.89784C30.119 8.69307 30.277 8.52637 30.4397 8.36717C30.4841 8.32103 30.5308 8.27431 30.5851 8.24143C30.6001 8.23278 30.6156 8.22643 30.6312 8.22239C30.7252 8.13703 30.8296 8.07012 30.9283 8.0978Z"/>
<path d="M20.698 14.8113C20.8445 14.8782 20.8577 15.0339 20.8214 15.1729C20.7949 15.4637 20.7268 15.7498 20.6622 16.0336C20.6201 16.1651 20.6357 16.3012 20.6357 16.4367C20.6311 16.5475 20.6028 16.6634 20.6086 16.773C20.6189 16.9836 20.5474 17.2333 20.2832 17.1549C19.9389 17.1064 19.5876 17.1174 19.2438 17.0522C18.9179 17.0343 18.592 17.0216 18.2708 16.9559C18.0147 16.9247 17.7643 16.9184 17.5088 16.8907C17.15 16.863 16.7976 16.7765 16.4371 16.7655C16.0887 16.743 15.7495 16.6513 15.404 16.6052C15.1323 16.5942 14.852 16.5273 14.5797 16.5042C14.5694 16.506 14.5584 16.5077 14.548 16.5094C14.5278 16.5129 14.5082 16.5169 14.488 16.5215C14.4073 16.5117 14.3271 16.4979 14.2481 16.4771C14.1691 16.4506 14.1223 16.3917 14.1021 16.3248C13.9822 16.1206 14.0693 15.7792 14.0987 15.5773C14.1252 15.3281 14.1235 15.1003 14.1506 14.8655C14.1518 14.7761 14.1535 14.6861 14.1558 14.5967C14.1621 14.3937 14.1754 14.1906 14.1852 13.9882C14.1881 13.8809 14.1916 13.7736 14.1944 13.6663C14.1973 13.551 14.2112 13.4368 14.2227 13.3214C14.2435 13.1143 14.2735 12.9084 14.2896 12.7013C14.2977 12.5935 14.3086 12.4862 14.3185 12.3777C14.3283 12.271 14.3415 12.1649 14.349 12.0582C14.3646 11.8424 14.3819 11.6267 14.4102 11.4127C14.4332 11.2374 14.4488 11.0603 14.4661 10.8844C14.4742 10.799 14.4805 10.7131 14.488 10.6277C14.4955 10.54 14.5036 10.4523 14.5082 10.3647C14.5105 10.2597 14.5175 10.1559 14.5244 10.0515C14.5313 9.94129 14.5371 9.83112 14.548 9.72152C14.5584 9.61943 14.5717 9.51848 14.5844 9.41697C14.5976 9.31314 14.6051 9.20816 14.6121 9.10318C14.6253 8.9013 14.6478 8.70057 14.6605 8.49926C14.6674 8.38678 14.6755 8.27488 14.6865 8.16298C14.6968 8.05973 14.7032 7.95591 14.7141 7.85266C14.7361 7.64789 14.7684 7.44543 14.7857 7.24066C14.7943 7.14145 14.8047 7.04224 14.818 6.94303C14.8301 6.85189 14.8445 6.76133 14.852 6.66962C14.8589 6.59348 14.8693 6.5185 14.8837 6.44293C14.893 6.39275 14.9091 6.34315 14.9362 6.30104C14.9368 6.29181 14.9379 6.28316 14.9391 6.27393C14.9777 6.12569 15.1439 6.11069 15.2708 6.08589C15.6134 6.0184 15.9572 5.96014 16.2998 5.89208C17.4003 5.60887 18.5315 5.52984 19.6505 5.35565C19.8789 5.30431 20.0946 5.25067 20.2734 5.2374C20.5988 5.14338 20.7095 5.31123 20.6651 5.65732C20.653 5.95322 20.6599 6.24047 20.6916 6.53292C20.7009 6.6552 20.6899 6.77633 20.6743 6.89746C20.6807 6.99033 20.6807 7.11376 20.6801 7.19798C20.6686 7.29258 20.7182 7.38602 20.6859 7.47773C20.6518 7.5879 20.537 7.61443 20.4367 7.63059C19.9475 7.6975 19.4388 7.79325 18.9543 7.86823C18.6399 7.94552 18.3186 7.99167 17.9985 8.03839C17.6899 8.10299 17.3946 8.16067 17.0912 8.22355C17.0646 8.25239 17.0416 8.28238 17.0243 8.31987C17.022 8.32449 17.0202 8.3291 17.0179 8.33372C17.0168 8.37582 17.0156 8.41793 17.0133 8.45946C17.011 8.49349 17.0081 8.52752 17.0047 8.56098C17.0035 8.64462 16.9995 8.72999 16.9937 8.81132C16.9943 8.84131 16.9949 8.87073 16.996 8.90072C17 8.96302 17.0052 9.02589 17.0075 9.08818C17.0093 9.13375 17.0093 9.1799 17.0098 9.22604V9.22662C17.0104 9.23354 17.011 9.24104 17.0116 9.24796C17.0116 9.25315 17.0116 9.25777 17.011 9.26238C17.011 9.26526 17.011 9.26872 17.011 9.27161C17.0162 9.36505 17.0185 9.45792 17.015 9.55194C17.015 9.55367 17.015 9.5554 17.015 9.55713C17.0173 9.56117 17.0202 9.56521 17.0231 9.56924C17.1806 9.56001 17.3432 9.55771 17.4909 9.55252C17.6397 9.56174 17.7903 9.56405 17.9402 9.56578C17.9772 9.56405 18.0147 9.56348 18.0521 9.56405C18.325 9.56521 18.599 9.57328 18.8729 9.57732C18.941 9.56578 19.0108 9.55021 19.0748 9.56463C19.1117 9.56175 19.1504 9.56867 19.1862 9.58712H19.1867C19.2023 9.59347 19.2167 9.60154 19.2294 9.61135C19.2283 9.62635 19.2294 9.64077 19.2317 9.65461C19.234 9.6575 19.2363 9.66096 19.2381 9.66442C19.2681 9.71114 19.2692 9.7642 19.2732 9.81785C19.29 10.0826 19.35 10.3439 19.3379 10.6115C19.354 10.8688 19.3667 11.1249 19.3315 11.3822C19.3211 11.6602 19.2911 11.9993 18.9295 11.9797C18.8124 11.9711 18.682 11.9832 18.5718 11.9394C18.4276 11.944 18.2857 11.9515 18.1612 11.9532C17.8249 11.9544 17.4926 12.0178 17.1558 12.0126C17.0052 12.0063 16.8541 12.0299 16.7041 12.0363C16.6845 12.3166 16.684 12.5986 16.6591 12.879C16.639 13.1132 16.6032 13.3462 16.5963 13.5815C16.6078 13.694 16.6026 13.8065 16.5963 13.919C16.5997 13.9282 16.6032 13.9374 16.6078 13.9467C16.6211 13.9766 16.6361 14.0043 16.6534 14.0297C16.872 14.0562 17.0843 14.1278 17.2959 14.1872C17.3 14.1889 17.3034 14.1901 17.3075 14.1918C17.3138 14.1918 17.3202 14.1918 17.3271 14.1912C17.5146 14.2368 17.702 14.2818 17.8924 14.3106C18.2956 14.3833 18.6987 14.4566 19.1019 14.531C19.1227 14.5315 19.1435 14.5333 19.1637 14.5344C19.2508 14.5512 19.3373 14.5702 19.4244 14.5898C19.5097 14.6054 19.5957 14.6215 19.6811 14.6371C19.763 14.6567 19.846 14.6723 19.9291 14.6855C20.0854 14.6925 20.2371 14.7167 20.3888 14.7525C20.4932 14.7634 20.6028 14.76 20.698 14.8113Z"/>
<path d="M13.136 15.3189C13.1764 15.4348 13.2017 15.5565 13.1723 15.6725C13.1129 15.8247 12.9595 15.9147 12.8078 15.9557C12.7299 15.9949 12.6474 16.0203 12.5603 16.0295C12.5402 16.0307 12.52 16.0335 12.4998 16.037C12.4063 16.0682 12.3135 16.101 12.2246 16.1437C11.8734 16.2804 11.5175 16.4044 11.1645 16.5325C10.9603 16.5763 10.6811 16.7465 10.4486 16.7465C10.4434 16.7465 10.4383 16.7465 10.4325 16.7459C10.4261 16.7511 10.4204 16.7563 10.414 16.7615C10.4106 16.7609 10.4071 16.7603 10.4031 16.7598C10.3269 16.7776 10.241 16.7574 10.181 16.6992C10.0714 16.5977 10.0368 16.454 10.0016 16.315C9.92028 16.0376 9.8551 15.7567 9.78819 15.4764C9.63822 14.9376 9.50671 14.3868 9.39654 13.8394C9.36481 13.6969 9.33136 13.5544 9.29675 13.4125V13.4119C9.24599 13.2602 9.1935 13.1091 9.1537 12.9517C9.00085 12.3979 8.86703 11.8344 8.66053 11.2974C8.64322 11.2651 8.62823 11.2316 8.61438 11.1982C8.61323 12.2278 8.46903 13.2551 8.52902 14.2841C8.55901 14.8534 8.55324 15.4544 8.51863 16.0186C8.50191 16.1668 8.55786 16.3312 8.46326 16.4615C8.36232 16.5902 8.206 16.6121 8.04911 16.6213C7.97932 16.6421 7.90606 16.6484 7.83281 16.6571C7.69899 16.6882 7.56517 16.7246 7.42616 16.7136C7.17294 16.8163 6.89434 16.7909 6.63477 16.8745C6.42251 16.9218 6.21197 16.9749 5.99509 16.9991C5.85147 17.0234 5.69457 17.1243 5.56191 17.0135C5.48346 16.953 5.46731 16.8532 5.44655 16.7621C5.36002 16.5163 5.3433 16.2695 5.2735 16.0278C5.09988 15.5917 5.11603 15.1285 5.04509 14.674C4.94703 14.0516 4.89858 13.4062 4.78321 12.7913C4.72726 12.2485 4.61536 11.7236 4.53807 11.1935C4.50635 11.0805 4.48558 10.9669 4.47174 10.8515C4.4429 10.9063 4.41579 10.9605 4.39156 11.0159C4.27678 11.3054 4.15738 11.5933 4.03855 11.8822C3.81764 12.4741 3.68612 13.0987 3.55288 13.7113C3.39887 14.2916 3.19353 14.8574 3.06028 15.4429C2.97665 15.6869 2.94781 15.9413 2.89935 16.1933C2.87109 16.3583 2.84052 16.6265 2.61499 16.5988C2.27409 16.5031 2.00472 16.2504 1.70132 16.0785C1.53001 15.9943 1.33562 15.9447 1.17066 15.8547C0.84995 15.699 0.536165 15.5283 0.198155 15.4106C0.156625 15.4008 0.128361 15.3754 0.11221 15.3443C0.086254 15.3275 0.0631816 15.3062 0.0481846 15.2785C0.0112688 15.2156 0.0204977 15.1395 0.0585672 15.0847C0.0764483 15.0126 0.109903 14.9416 0.126631 14.8701C0.221804 14.5696 0.294482 14.2599 0.35274 13.957C0.450798 13.3116 0.639991 12.7002 0.757084 12.0611C0.838991 11.8211 0.9457 11.5887 0.991845 11.3377C1.03395 11.0488 1.15624 10.7811 1.24506 10.5054C1.4233 9.94475 1.55827 9.37082 1.73593 8.81016C2.02145 7.74133 2.31966 6.67308 2.67555 5.62617C2.71304 5.49754 2.79726 5.4289 2.8809 5.41045C2.89878 5.3966 2.91954 5.38564 2.94146 5.37872C3.05971 5.34469 3.17103 5.41218 3.28178 5.44563C3.90531 5.69193 4.5623 5.85978 5.16622 6.15165H5.16679C5.3606 6.20644 5.54057 6.32065 5.63286 6.50062L5.63343 6.50177C5.65189 6.53119 5.66631 6.56406 5.679 6.59464C5.68534 6.6154 5.69111 6.63674 5.69746 6.65751C5.71476 6.70192 5.73149 6.74634 5.74706 6.79075C5.7511 6.7896 5.75514 6.7896 5.75918 6.78844C5.76148 6.79883 5.76321 6.80863 5.76494 6.81901C5.77129 6.86112 5.77706 6.90323 5.78744 6.94476C5.79898 6.98917 5.81109 7.03301 5.82032 7.07743C5.88088 7.28219 5.94376 7.48638 6.01413 7.68827C6.07065 7.89246 6.08507 8.10876 6.1491 8.30776C6.25523 8.6873 6.32906 9.07261 6.41097 9.45677C6.53152 9.87841 6.60074 10.3104 6.67803 10.7407C6.72649 10.9461 6.80493 11.1434 6.85742 11.3475C6.90587 11.0488 6.8978 10.7459 6.92433 10.4454C7.01085 9.69787 7.03681 8.93071 7.17755 8.1924C7.18044 8.16529 7.18447 8.13875 7.18909 8.11164C7.26119 7.40102 7.33329 6.68808 7.47345 5.98956C7.47692 5.97918 7.48038 5.9688 7.48557 5.95957C7.48499 5.88516 7.50749 5.82402 7.60035 5.80787C7.64477 5.80787 7.68918 5.8119 7.73417 5.8171C8.42231 5.78364 9.11967 5.85517 9.80953 5.9388C9.91797 5.94457 10.0258 5.96245 10.1337 5.96995C10.2225 5.96707 10.3114 5.97226 10.3973 5.99187C10.4331 5.99418 10.4665 5.99764 10.4971 6.00283C10.5461 6.00341 10.594 6.00571 10.6292 6.04032C10.7561 6.09743 10.8103 6.21336 10.8368 6.43371C10.8789 6.77921 10.9816 7.11376 11.0658 7.45005C11.1483 7.79209 11.2291 8.13414 11.3421 8.46754C11.4356 8.6873 11.4955 8.94398 11.5775 9.16375C11.6732 9.4285 11.7724 9.68576 11.8307 9.95974C11.9956 10.5694 12.1808 11.1416 12.2887 11.7605C12.3227 12.0414 12.366 12.32 12.4484 12.5911C12.5794 13.206 12.7357 13.8203 12.8793 14.4294C12.9405 14.6025 12.9537 14.7876 13.0166 14.9601C13.0627 15.0749 13.1043 15.192 13.136 15.3114C13.1377 15.3137 13.1366 15.316 13.136 15.3189Z"/>
</mask>
<path d="M44.0293 6.81209V6.81325C44.0265 6.82017 44.0242 6.82651 44.0218 6.83344C44.057 7.01225 43.9497 7.24124 43.9024 7.40967C43.8765 7.51522 43.8425 7.61847 43.8027 7.71942C43.6561 8.19701 43.5212 8.67865 43.3954 9.16202C43.2824 9.54906 43.171 9.93494 43.0378 10.3156C42.9224 10.6358 42.8203 10.9657 42.739 11.2951C42.5908 11.8534 42.4264 12.3933 42.3012 12.9511C42.1997 13.3491 42.1363 13.7569 42.0036 14.1462C41.9223 14.4514 41.8577 14.7582 41.7821 15.0628C41.695 15.3662 41.6039 15.6679 41.5156 15.9713C41.4833 16.0849 41.4406 16.217 41.4043 16.322C41.372 16.4229 41.346 16.5342 41.2647 16.6075C41.1851 16.6853 41.0513 16.6848 40.9774 16.6057C40.8061 16.5504 40.6429 16.4742 40.4716 16.4177C40.2801 16.3508 40.043 16.307 39.8613 16.2418C39.5891 16.1235 39.3099 16.0203 39.0394 15.8992C38.8871 15.8438 38.725 15.8242 38.5756 15.7607C38.4326 15.7105 38.376 15.5767 38.4262 15.4366C38.4302 15.3829 38.4251 15.3293 38.4158 15.2768C38.4147 15.271 38.4135 15.2652 38.4129 15.26C38.4095 15.2422 38.4054 15.2243 38.4014 15.2076C38.4014 15.2047 38.4008 15.2024 38.4003 15.1995C38.387 15.136 38.372 15.0732 38.3662 15.0091C38.3466 14.9117 38.3333 14.8136 38.3218 14.715C38.2687 14.4669 38.2024 14.2218 38.1505 13.9732C38.0715 13.5717 37.9723 13.1749 37.8736 12.7786C37.8598 12.7417 37.85 12.7025 37.8413 12.6627C37.8056 12.5387 37.7802 12.4112 37.7404 12.2877C37.6279 11.8332 37.4808 11.3839 37.4151 10.919C37.4018 11.0124 37.3874 11.1041 37.3782 11.1895C37.3372 11.6642 37.2207 12.1268 37.1555 12.5986C37.0794 13.142 37.0303 13.6917 36.9438 14.2322C36.9109 14.4462 36.8706 14.6596 36.8302 14.8724C36.8302 14.8736 36.8302 14.8747 36.8296 14.8759C36.8088 15.0005 36.7846 15.1245 36.7587 15.2485C36.7517 15.2849 36.7454 15.3218 36.7385 15.3581C36.7108 15.5958 36.7108 15.8363 36.6508 16.0693C36.6473 16.2447 36.5435 16.4137 36.3451 16.3594C36.2165 16.3202 36.0971 16.2902 35.9678 16.2793C35.8629 16.2637 35.7567 16.296 35.6512 16.2868C35.4533 16.2672 35.2503 16.2741 35.0548 16.2395C35.0161 16.2406 34.9786 16.2406 34.9434 16.2383C34.5022 16.2464 34.0609 16.202 33.6208 16.1939C33.6012 16.191 33.5833 16.1847 33.5683 16.1772C33.4985 16.1472 33.4599 16.0797 33.4553 16.0099C33.1023 15.0622 32.924 14.0378 32.6864 13.0514C32.5901 12.6996 32.451 12.3616 32.3957 11.9988C32.2434 11.3839 32.0882 10.8123 31.929 10.2072C31.824 9.90437 31.7468 9.59347 31.6879 9.27853C31.6158 9.01262 31.5241 8.75133 31.4808 8.4785C31.3724 8.08107 31.2317 7.71076 31.1469 7.31046V7.3093C31.1284 7.25681 31.11 7.20432 31.0927 7.15126C31.0638 7.03186 31.0073 6.90381 30.9629 6.79479C30.9421 6.74115 30.9179 6.68289 30.9092 6.62463V6.62405C30.8948 6.59233 30.889 6.55599 30.8948 6.51619C30.9121 6.36161 31.0696 6.29354 31.2005 6.25432C31.3609 6.1926 31.5178 6.12338 31.6752 6.0559C31.9313 5.94169 32.188 5.8269 32.4574 5.7473C32.6996 5.68385 32.9309 5.58695 33.1651 5.49927C33.2534 5.4739 33.3462 5.42371 33.4391 5.40352C33.4893 5.37872 33.5487 5.37872 33.6041 5.37295C33.8521 5.39256 33.8844 5.69597 33.9732 5.87766C34.0742 6.20702 34.1659 6.54099 34.2513 6.87497C34.4145 7.47023 34.6383 8.0482 34.7854 8.64808C34.8927 9.08242 35.038 9.50579 35.1332 9.94417C35.2382 10.3272 35.2786 10.7298 35.421 11.1012C35.5006 11.246 35.5497 11.4041 35.6137 11.5552C35.6258 11.5581 35.6379 11.561 35.6506 11.5633C35.6506 11.5604 35.6506 11.5581 35.6506 11.5552C35.6546 11.3891 35.6506 11.2224 35.6731 11.0574C35.7141 10.6577 35.6916 10.2574 35.706 9.85765C35.7187 9.73767 35.7221 9.61481 35.7244 9.49138C35.7239 9.48907 35.7233 9.48734 35.7221 9.48503C35.7371 8.88226 35.7371 8.2795 35.7683 7.67731C35.8006 7.24643 35.8992 6.82478 35.8461 6.39102C35.8404 6.2399 35.8513 6.08704 35.8571 5.93592C35.8617 5.86728 35.8479 5.7946 35.8796 5.73346C35.9125 5.60714 36.0688 5.5858 36.1801 5.57195C36.288 5.55061 36.4005 5.52869 36.5106 5.5235C36.9352 5.45717 37.3557 5.37814 37.7785 5.30201C37.9411 5.27951 38.1026 5.22587 38.2664 5.20625C38.4049 5.14973 38.5485 5.17684 38.601 5.33258C38.6679 5.5235 38.6321 5.73346 38.6939 5.92727C38.7879 6.27681 38.7786 6.64251 38.8565 6.99494C38.9246 7.32718 38.9678 7.66346 38.9892 8.00032C39.0757 8.42889 39.0993 8.86842 39.1876 9.29699C39.2337 9.59405 39.281 9.9234 39.3099 10.2158C39.3422 10.4875 39.3589 10.7771 39.4149 11.0424C39.4247 11.1762 39.4593 11.306 39.4968 11.4346C39.5048 11.4358 39.5129 11.4358 39.521 11.4358C39.5354 11.4358 39.5504 11.4346 39.5643 11.4318C39.5775 11.4035 39.5891 11.3787 39.5966 11.3574C39.7263 10.9911 39.8521 10.6219 39.9438 10.2441C40.0419 9.92975 40.1007 9.58597 40.2339 9.28603C40.4231 8.66769 40.6169 8.04993 40.8084 7.43332C40.9647 7.01052 41.1153 6.58772 41.2347 6.15222C41.2768 6.03513 41.297 5.89785 41.4066 5.82229C41.477 5.76403 41.5669 5.76518 41.6321 5.80787C41.6471 5.8096 41.6621 5.81248 41.676 5.81594C41.8121 5.86209 41.9488 5.91342 42.0843 5.96707C42.4304 6.06512 42.7742 6.16837 43.1036 6.31488C43.3135 6.43082 43.5806 6.44178 43.783 6.56464C43.8298 6.58541 43.8736 6.61194 43.9128 6.6402C43.9705 6.68058 44.0311 6.73826 44.0293 6.81209Z" fill="#FAE94F"/>
<path d="M27.836 12.0236C27.8533 11.8967 27.8585 11.7692 27.8579 11.6423C27.78 11.0413 27.6387 10.4558 27.3624 9.92687C27.3192 9.81843 27.269 9.71229 27.2171 9.60789C27.198 9.56924 27.1778 9.53117 27.1605 9.49195C27.1334 9.43139 27.0988 9.37428 27.059 9.32179C27.0475 9.3068 27.0354 9.2918 27.0238 9.27622C26.9166 9.09107 26.7539 8.92956 26.5526 8.85227C26.507 8.83035 26.4614 8.80555 26.4136 8.7894C26.368 8.77382 26.3201 8.76344 26.2728 8.75363C26.2376 8.74037 26.2013 8.72364 26.1644 8.71787C26.1159 8.71037 26.0686 8.70288 26.019 8.70518C25.9694 8.70749 25.921 8.7121 25.8725 8.7196C25.8056 8.72941 25.7376 8.73691 25.6706 8.75017C25.6297 8.75825 25.5887 8.76748 25.5484 8.77901C25.4918 8.79459 25.433 8.81478 25.3822 8.84362C25.2917 8.89438 25.1994 8.94687 25.1215 9.01551C25.0892 9.04435 25.0592 9.07492 25.0275 9.10434C24.9802 9.1476 24.9318 9.1897 24.8885 9.237C24.8372 9.29295 24.7887 9.35006 24.7408 9.40947C24.6422 9.53233 24.5637 9.66673 24.4986 9.8092C24.4818 9.84208 24.4657 9.87611 24.4507 9.91014C24.4294 9.98743 24.3988 10.0601 24.3705 10.1345C24.3567 10.2776 24.3336 10.4195 24.3278 10.5631C24.3249 10.5787 24.3221 10.5948 24.3198 10.6104C24.3203 10.6363 24.3209 10.6617 24.3215 10.6877C24.3238 10.7742 24.318 10.8601 24.3198 10.9461C24.3215 11.0297 24.3273 11.1128 24.3376 11.1953C24.3417 11.227 24.3451 11.2581 24.3486 11.2899C24.4074 11.576 24.5118 11.858 24.6053 12.1205C24.6589 12.2981 24.7333 12.4671 24.8377 12.6211C24.9416 12.8369 25.095 13.0111 25.2553 13.1824C25.3984 13.3572 25.5316 13.5469 25.7087 13.6871C25.8477 13.7805 25.9867 13.8809 26.1442 13.9415C26.3057 13.9836 26.4713 14.0257 26.6374 14.0291C26.706 14.0182 26.7729 14.0003 26.837 13.9703C27.0469 13.829 27.2869 13.7096 27.442 13.5048C27.7062 13.0595 27.7702 12.5277 27.836 12.0236ZM30.9283 8.0978C31.0252 8.12895 31.0638 8.23624 31.0425 8.32968C31.0044 8.53156 30.9784 8.73691 30.8856 8.92322C30.8239 9.07203 30.8106 9.23296 30.7846 9.39043C30.7662 9.54213 30.7506 9.69441 30.7293 9.84727C30.6935 10.0093 30.7016 10.1749 30.6947 10.3399C30.6439 10.7442 30.6497 11.1526 30.626 11.5587C30.5799 11.9913 30.5355 12.4227 30.4882 12.8455C30.4541 13.1374 30.3664 13.4177 30.3215 13.7073C30.2719 13.9611 30.2286 14.216 30.115 14.4508C30.1028 14.4831 30.0873 14.5183 30.0671 14.5488C29.9327 14.8269 29.7297 15.0732 29.5255 15.3039C29.4072 15.4308 29.293 15.5969 29.1655 15.7088C28.9642 15.9095 28.7398 16.0895 28.4982 16.2389C28.3638 16.3306 28.253 16.3923 28.1042 16.4339C28.0459 16.4477 27.9888 16.4638 27.9312 16.4817C27.855 16.536 27.7206 16.5515 27.6404 16.5729C27.3088 16.6669 26.9615 16.7021 26.6189 16.6565L26.616 16.6559C26.2849 16.6063 25.955 16.5233 25.6378 16.4396C25.2352 16.2954 24.8643 16.0832 24.5049 15.8559C24.2742 15.6973 24.0273 15.5623 23.8064 15.3904C23.5884 15.1764 23.3196 14.9745 23.1367 14.7346C23.0952 14.6988 23.0635 14.6561 23.0358 14.6106C22.8697 14.4214 22.7255 14.2189 22.602 14.0003C22.4486 13.7615 22.2709 13.5348 22.1602 13.2712C22.159 13.2689 22.1579 13.266 22.1573 13.2637C21.5413 12.2122 21.1571 11.0263 21.1335 9.80228C21.0879 9.39332 21.021 8.98032 20.8987 8.58809C20.8924 8.54425 20.9027 8.5033 20.9241 8.46984C20.9287 8.4237 20.9552 8.37928 20.9979 8.35506C21.1652 8.2645 21.344 8.4012 21.4749 8.49984C21.603 8.59444 21.7068 8.71614 21.8239 8.82228C21.7841 8.3764 21.8972 7.91899 22.065 7.50657C22.1002 7.37448 22.1319 7.24066 22.1515 7.10511C22.3061 6.24567 22.414 5.32623 22.1031 4.48986C22.0316 4.33816 21.9531 4.18992 21.8787 4.03995C21.8129 3.9367 21.761 3.78269 21.877 3.70367C21.9208 3.64079 22.0044 3.60618 22.0817 3.6506C22.1481 3.68117 22.2127 3.71578 22.2744 3.75327C22.2755 3.755 22.2767 3.75673 22.2773 3.75846C22.4417 3.83403 22.5991 3.90324 22.7243 4.03475C22.88 4.17319 23.0588 4.28797 23.2013 4.44141C23.2238 4.39122 23.248 4.34219 23.2717 4.29547C23.3536 4.12877 23.4609 3.93554 23.5786 3.80115C23.5872 3.79249 23.5953 3.78327 23.6034 3.77404C23.7879 3.50755 23.9927 3.2526 24.1836 2.99823C24.5297 2.52986 24.9064 2.08225 25.2323 1.59946C25.3788 1.36124 25.5189 1.11148 25.681 0.886527C25.7427 0.835191 25.8027 0.821925 25.8529 0.835191C25.9435 0.841536 26.019 0.947669 26.03 1.04342C26.0271 1.06592 26.0277 1.08899 26.0329 1.11148C26.0317 1.1409 26.0311 1.17032 26.0306 1.19974C26.0306 1.18993 26.0311 1.18012 26.0311 1.17032C26.0306 1.19454 26.0294 1.21877 26.0277 1.243C26.034 1.29433 26.0386 1.34567 26.0461 1.39643C26.0531 2.2178 26.1996 3.06802 26.6403 3.77404C26.9091 4.22279 27.3209 4.50485 27.6024 4.934C27.6831 5.05571 27.7483 5.18549 27.8025 5.31931C27.851 5.25875 27.9 5.19876 27.9531 5.14223C28.0788 4.99457 28.2248 4.86882 28.3753 4.74827C28.4514 4.67098 28.5149 4.60753 28.5535 4.56542C28.6337 4.48294 28.7127 4.40045 28.782 4.30874C28.7952 4.29663 28.8085 4.28278 28.82 4.26836C28.82 4.26836 28.82 4.26836 28.8206 4.26779C28.8212 4.26721 28.8212 4.26721 28.8218 4.26663C28.8218 4.26663 28.8223 4.26606 28.8229 4.26548L28.8241 4.26432C28.8246 4.26375 28.8252 4.26317 28.8258 4.26259L28.8264 4.26202C28.8419 4.24356 28.8581 4.2251 28.8754 4.20837C28.8852 4.2003 28.895 4.19107 28.9054 4.18299C28.9504 4.13166 29 4.08724 29.0692 4.0734C29.1142 4.06763 29.1569 4.08667 29.1875 4.11782L29.188 4.11839C29.2013 4.12993 29.2128 4.14435 29.2226 4.15992C29.2901 4.18588 29.3259 4.28624 29.304 4.35777C29.2572 4.54754 29.1863 4.73212 29.1523 4.92535C29.1425 5.14569 29.1748 5.3966 29.1921 5.60829C29.2371 6.08993 29.3305 6.57099 29.5024 7.02378C29.695 7.5804 29.901 8.12203 29.9996 8.70172C30.01 8.76633 30.0163 8.83208 30.0204 8.89784C30.119 8.69307 30.277 8.52637 30.4397 8.36717C30.4841 8.32103 30.5308 8.27431 30.5851 8.24143C30.6001 8.23278 30.6156 8.22643 30.6312 8.22239C30.7252 8.13703 30.8296 8.07012 30.9283 8.0978Z" fill="#FAE94F"/>
<path d="M20.698 14.8113C20.8445 14.8782 20.8577 15.0339 20.8214 15.1729C20.7949 15.4637 20.7268 15.7498 20.6622 16.0336C20.6201 16.1651 20.6357 16.3012 20.6357 16.4367C20.6311 16.5475 20.6028 16.6634 20.6086 16.773C20.6189 16.9836 20.5474 17.2333 20.2832 17.1549C19.9389 17.1064 19.5876 17.1174 19.2438 17.0522C18.9179 17.0343 18.592 17.0216 18.2708 16.9559C18.0147 16.9247 17.7643 16.9184 17.5088 16.8907C17.15 16.863 16.7976 16.7765 16.4371 16.7655C16.0887 16.743 15.7495 16.6513 15.404 16.6052C15.1323 16.5942 14.852 16.5273 14.5797 16.5042C14.5694 16.506 14.5584 16.5077 14.548 16.5094C14.5278 16.5129 14.5082 16.5169 14.488 16.5215C14.4073 16.5117 14.3271 16.4979 14.2481 16.4771C14.1691 16.4506 14.1223 16.3917 14.1021 16.3248C13.9822 16.1206 14.0693 15.7792 14.0987 15.5773C14.1252 15.3281 14.1235 15.1003 14.1506 14.8655C14.1518 14.7761 14.1535 14.6861 14.1558 14.5967C14.1621 14.3937 14.1754 14.1906 14.1852 13.9882C14.1881 13.8809 14.1916 13.7736 14.1944 13.6663C14.1973 13.551 14.2112 13.4368 14.2227 13.3214C14.2435 13.1143 14.2735 12.9084 14.2896 12.7013C14.2977 12.5935 14.3086 12.4862 14.3185 12.3777C14.3283 12.271 14.3415 12.1649 14.349 12.0582C14.3646 11.8424 14.3819 11.6267 14.4102 11.4127C14.4332 11.2374 14.4488 11.0603 14.4661 10.8844C14.4742 10.799 14.4805 10.7131 14.488 10.6277C14.4955 10.54 14.5036 10.4523 14.5082 10.3647C14.5105 10.2597 14.5175 10.1559 14.5244 10.0515C14.5313 9.94129 14.5371 9.83112 14.548 9.72152C14.5584 9.61943 14.5717 9.51848 14.5844 9.41697C14.5976 9.31314 14.6051 9.20816 14.6121 9.10318C14.6253 8.9013 14.6478 8.70057 14.6605 8.49926C14.6674 8.38678 14.6755 8.27488 14.6865 8.16298C14.6968 8.05973 14.7032 7.95591 14.7141 7.85266C14.7361 7.64789 14.7684 7.44543 14.7857 7.24066C14.7943 7.14145 14.8047 7.04224 14.818 6.94303C14.8301 6.85189 14.8445 6.76133 14.852 6.66962C14.8589 6.59348 14.8693 6.5185 14.8837 6.44293C14.893 6.39275 14.9091 6.34315 14.9362 6.30104C14.9368 6.29181 14.9379 6.28316 14.9391 6.27393C14.9777 6.12569 15.1439 6.11069 15.2708 6.08589C15.6134 6.0184 15.9572 5.96014 16.2998 5.89208C17.4003 5.60887 18.5315 5.52984 19.6505 5.35565C19.8789 5.30431 20.0946 5.25067 20.2734 5.2374C20.5988 5.14338 20.7095 5.31123 20.6651 5.65732C20.653 5.95322 20.6599 6.24047 20.6916 6.53292C20.7009 6.6552 20.6899 6.77633 20.6743 6.89746C20.6807 6.99033 20.6807 7.11376 20.6801 7.19798C20.6686 7.29258 20.7182 7.38602 20.6859 7.47773C20.6518 7.5879 20.537 7.61443 20.4367 7.63059C19.9475 7.6975 19.4388 7.79325 18.9543 7.86823C18.6399 7.94552 18.3186 7.99167 17.9985 8.03839C17.6899 8.10299 17.3946 8.16067 17.0912 8.22355C17.0646 8.25239 17.0416 8.28238 17.0243 8.31987C17.022 8.32449 17.0202 8.3291 17.0179 8.33372C17.0168 8.37582 17.0156 8.41793 17.0133 8.45946C17.011 8.49349 17.0081 8.52752 17.0047 8.56098C17.0035 8.64462 16.9995 8.72999 16.9937 8.81132C16.9943 8.84131 16.9949 8.87073 16.996 8.90072C17 8.96302 17.0052 9.02589 17.0075 9.08818C17.0093 9.13375 17.0093 9.1799 17.0098 9.22604V9.22662C17.0104 9.23354 17.011 9.24104 17.0116 9.24796C17.0116 9.25315 17.0116 9.25777 17.011 9.26238C17.011 9.26526 17.011 9.26872 17.011 9.27161C17.0162 9.36505 17.0185 9.45792 17.015 9.55194C17.015 9.55367 17.015 9.5554 17.015 9.55713C17.0173 9.56117 17.0202 9.56521 17.0231 9.56924C17.1806 9.56001 17.3432 9.55771 17.4909 9.55252C17.6397 9.56174 17.7903 9.56405 17.9402 9.56578C17.9772 9.56405 18.0147 9.56348 18.0521 9.56405C18.325 9.56521 18.599 9.57328 18.8729 9.57732C18.941 9.56578 19.0108 9.55021 19.0748 9.56463C19.1117 9.56175 19.1504 9.56867 19.1862 9.58712H19.1867C19.2023 9.59347 19.2167 9.60154 19.2294 9.61135C19.2283 9.62635 19.2294 9.64077 19.2317 9.65461C19.234 9.6575 19.2363 9.66096 19.2381 9.66442C19.2681 9.71114 19.2692 9.7642 19.2732 9.81785C19.29 10.0826 19.35 10.3439 19.3379 10.6115C19.354 10.8688 19.3667 11.1249 19.3315 11.3822C19.3211 11.6602 19.2911 11.9993 18.9295 11.9797C18.8124 11.9711 18.682 11.9832 18.5718 11.9394C18.4276 11.944 18.2857 11.9515 18.1612 11.9532C17.8249 11.9544 17.4926 12.0178 17.1558 12.0126C17.0052 12.0063 16.8541 12.0299 16.7041 12.0363C16.6845 12.3166 16.684 12.5986 16.6591 12.879C16.639 13.1132 16.6032 13.3462 16.5963 13.5815C16.6078 13.694 16.6026 13.8065 16.5963 13.919C16.5997 13.9282 16.6032 13.9374 16.6078 13.9467C16.6211 13.9766 16.6361 14.0043 16.6534 14.0297C16.872 14.0562 17.0843 14.1278 17.2959 14.1872C17.3 14.1889 17.3034 14.1901 17.3075 14.1918C17.3138 14.1918 17.3202 14.1918 17.3271 14.1912C17.5146 14.2368 17.702 14.2818 17.8924 14.3106C18.2956 14.3833 18.6987 14.4566 19.1019 14.531C19.1227 14.5315 19.1435 14.5333 19.1637 14.5344C19.2508 14.5512 19.3373 14.5702 19.4244 14.5898C19.5097 14.6054 19.5957 14.6215 19.6811 14.6371C19.763 14.6567 19.846 14.6723 19.9291 14.6855C20.0854 14.6925 20.2371 14.7167 20.3888 14.7525C20.4932 14.7634 20.6028 14.76 20.698 14.8113Z" fill="#FAE94F"/>
<path d="M13.136 15.3189C13.1764 15.4348 13.2017 15.5565 13.1723 15.6725C13.1129 15.8247 12.9595 15.9147 12.8078 15.9557C12.7299 15.9949 12.6474 16.0203 12.5603 16.0295C12.5402 16.0307 12.52 16.0335 12.4998 16.037C12.4063 16.0682 12.3135 16.101 12.2246 16.1437C11.8734 16.2804 11.5175 16.4044 11.1645 16.5325C10.9603 16.5763 10.6811 16.7465 10.4486 16.7465C10.4434 16.7465 10.4383 16.7465 10.4325 16.7459C10.4261 16.7511 10.4204 16.7563 10.414 16.7615C10.4106 16.7609 10.4071 16.7603 10.4031 16.7598C10.3269 16.7776 10.241 16.7574 10.181 16.6992C10.0714 16.5977 10.0368 16.454 10.0016 16.315C9.92028 16.0376 9.8551 15.7567 9.78819 15.4764C9.63822 14.9376 9.50671 14.3868 9.39654 13.8394C9.36481 13.6969 9.33136 13.5544 9.29675 13.4125V13.4119C9.24599 13.2602 9.1935 13.1091 9.1537 12.9517C9.00085 12.3979 8.86703 11.8344 8.66053 11.2974C8.64322 11.2651 8.62823 11.2316 8.61438 11.1982C8.61323 12.2278 8.46903 13.2551 8.52902 14.2841C8.55901 14.8534 8.55324 15.4544 8.51863 16.0186C8.50191 16.1668 8.55786 16.3312 8.46326 16.4615C8.36232 16.5902 8.206 16.6121 8.04911 16.6213C7.97932 16.6421 7.90606 16.6484 7.83281 16.6571C7.69899 16.6882 7.56517 16.7246 7.42616 16.7136C7.17294 16.8163 6.89434 16.7909 6.63477 16.8745C6.42251 16.9218 6.21197 16.9749 5.99509 16.9991C5.85147 17.0234 5.69457 17.1243 5.56191 17.0135C5.48346 16.953 5.46731 16.8532 5.44655 16.7621C5.36002 16.5163 5.3433 16.2695 5.2735 16.0278C5.09988 15.5917 5.11603 15.1285 5.04509 14.674C4.94703 14.0516 4.89858 13.4062 4.78321 12.7913C4.72726 12.2485 4.61536 11.7236 4.53807 11.1935C4.50635 11.0805 4.48558 10.9669 4.47174 10.8515C4.4429 10.9063 4.41579 10.9605 4.39156 11.0159C4.27678 11.3054 4.15738 11.5933 4.03855 11.8822C3.81764 12.4741 3.68612 13.0987 3.55288 13.7113C3.39887 14.2916 3.19353 14.8574 3.06028 15.4429C2.97665 15.6869 2.94781 15.9413 2.89935 16.1933C2.87109 16.3583 2.84052 16.6265 2.61499 16.5988C2.27409 16.5031 2.00472 16.2504 1.70132 16.0785C1.53001 15.9943 1.33562 15.9447 1.17066 15.8547C0.84995 15.699 0.536165 15.5283 0.198155 15.4106C0.156625 15.4008 0.128361 15.3754 0.11221 15.3443C0.086254 15.3275 0.0631816 15.3062 0.0481846 15.2785C0.0112688 15.2156 0.0204977 15.1395 0.0585672 15.0847C0.0764483 15.0126 0.109903 14.9416 0.126631 14.8701C0.221804 14.5696 0.294482 14.2599 0.35274 13.957C0.450798 13.3116 0.639991 12.7002 0.757084 12.0611C0.838991 11.8211 0.9457 11.5887 0.991845 11.3377C1.03395 11.0488 1.15624 10.7811 1.24506 10.5054C1.4233 9.94475 1.55827 9.37082 1.73593 8.81016C2.02145 7.74133 2.31966 6.67308 2.67555 5.62617C2.71304 5.49754 2.79726 5.4289 2.8809 5.41045C2.89878 5.3966 2.91954 5.38564 2.94146 5.37872C3.05971 5.34469 3.17103 5.41218 3.28178 5.44563C3.90531 5.69193 4.5623 5.85978 5.16622 6.15165H5.16679C5.3606 6.20644 5.54057 6.32065 5.63286 6.50062L5.63343 6.50177C5.65189 6.53119 5.66631 6.56406 5.679 6.59464C5.68534 6.6154 5.69111 6.63674 5.69746 6.65751C5.71476 6.70192 5.73149 6.74634 5.74706 6.79075C5.7511 6.7896 5.75514 6.7896 5.75918 6.78844C5.76148 6.79883 5.76321 6.80863 5.76494 6.81901C5.77129 6.86112 5.77706 6.90323 5.78744 6.94476C5.79898 6.98917 5.81109 7.03301 5.82032 7.07743C5.88088 7.28219 5.94376 7.48638 6.01413 7.68827C6.07065 7.89246 6.08507 8.10876 6.1491 8.30776C6.25523 8.6873 6.32906 9.07261 6.41097 9.45677C6.53152 9.87841 6.60074 10.3104 6.67803 10.7407C6.72649 10.9461 6.80493 11.1434 6.85742 11.3475C6.90587 11.0488 6.8978 10.7459 6.92433 10.4454C7.01085 9.69787 7.03681 8.93071 7.17755 8.1924C7.18044 8.16529 7.18447 8.13875 7.18909 8.11164C7.26119 7.40102 7.33329 6.68808 7.47345 5.98956C7.47692 5.97918 7.48038 5.9688 7.48557 5.95957C7.48499 5.88516 7.50749 5.82402 7.60035 5.80787C7.64477 5.80787 7.68918 5.8119 7.73417 5.8171C8.42231 5.78364 9.11967 5.85517 9.80953 5.9388C9.91797 5.94457 10.0258 5.96245 10.1337 5.96995C10.2225 5.96707 10.3114 5.97226 10.3973 5.99187C10.4331 5.99418 10.4665 5.99764 10.4971 6.00283C10.5461 6.00341 10.594 6.00571 10.6292 6.04032C10.7561 6.09743 10.8103 6.21336 10.8368 6.43371C10.8789 6.77921 10.9816 7.11376 11.0658 7.45005C11.1483 7.79209 11.2291 8.13414 11.3421 8.46754C11.4356 8.6873 11.4955 8.94398 11.5775 9.16375C11.6732 9.4285 11.7724 9.68576 11.8307 9.95974C11.9956 10.5694 12.1808 11.1416 12.2887 11.7605C12.3227 12.0414 12.366 12.32 12.4484 12.5911C12.5794 13.206 12.7357 13.8203 12.8793 14.4294C12.9405 14.6025 12.9537 14.7876 13.0166 14.9601C13.0627 15.0749 13.1043 15.192 13.136 15.3114C13.1377 15.3137 13.1366 15.316 13.136 15.3189Z" fill="#FAE94F"/>
<path d="M44.0293 6.81209V6.81325C44.0265 6.82017 44.0242 6.82651 44.0218 6.83344C44.057 7.01225 43.9497 7.24124 43.9024 7.40967C43.8765 7.51522 43.8425 7.61847 43.8027 7.71942C43.6561 8.19701 43.5212 8.67865 43.3954 9.16202C43.2824 9.54906 43.171 9.93494 43.0378 10.3156C42.9224 10.6358 42.8203 10.9657 42.739 11.2951C42.5908 11.8534 42.4264 12.3933 42.3012 12.9511C42.1997 13.3491 42.1363 13.7569 42.0036 14.1462C41.9223 14.4514 41.8577 14.7582 41.7821 15.0628C41.695 15.3662 41.6039 15.6679 41.5156 15.9713C41.4833 16.0849 41.4406 16.217 41.4043 16.322C41.372 16.4229 41.346 16.5342 41.2647 16.6075C41.1851 16.6853 41.0513 16.6848 40.9774 16.6057C40.8061 16.5504 40.6429 16.4742 40.4716 16.4177C40.2801 16.3508 40.043 16.307 39.8613 16.2418C39.5891 16.1235 39.3099 16.0203 39.0394 15.8992C38.8871 15.8438 38.725 15.8242 38.5756 15.7607C38.4326 15.7105 38.376 15.5767 38.4262 15.4366C38.4302 15.3829 38.4251 15.3293 38.4158 15.2768C38.4147 15.271 38.4135 15.2652 38.4129 15.26C38.4095 15.2422 38.4054 15.2243 38.4014 15.2076C38.4014 15.2047 38.4008 15.2024 38.4003 15.1995C38.387 15.136 38.372 15.0732 38.3662 15.0091C38.3466 14.9117 38.3333 14.8136 38.3218 14.715C38.2687 14.4669 38.2024 14.2218 38.1505 13.9732C38.0715 13.5717 37.9723 13.1749 37.8736 12.7786C37.8598 12.7417 37.85 12.7025 37.8413 12.6627C37.8056 12.5387 37.7802 12.4112 37.7404 12.2877C37.6279 11.8332 37.4808 11.3839 37.4151 10.919C37.4018 11.0124 37.3874 11.1041 37.3782 11.1895C37.3372 11.6642 37.2207 12.1268 37.1555 12.5986C37.0794 13.142 37.0303 13.6917 36.9438 14.2322C36.9109 14.4462 36.8706 14.6596 36.8302 14.8724C36.8302 14.8736 36.8302 14.8747 36.8296 14.8759C36.8088 15.0005 36.7846 15.1245 36.7587 15.2485C36.7517 15.2849 36.7454 15.3218 36.7385 15.3581C36.7108 15.5958 36.7108 15.8363 36.6508 16.0693C36.6473 16.2447 36.5435 16.4137 36.3451 16.3594C36.2165 16.3202 36.0971 16.2902 35.9678 16.2793C35.8629 16.2637 35.7567 16.296 35.6512 16.2868C35.4533 16.2672 35.2503 16.2741 35.0548 16.2395C35.0161 16.2406 34.9786 16.2406 34.9434 16.2383C34.5022 16.2464 34.0609 16.202 33.6208 16.1939C33.6012 16.191 33.5833 16.1847 33.5683 16.1772C33.4985 16.1472 33.4599 16.0797 33.4553 16.0099C33.1023 15.0622 32.924 14.0378 32.6864 13.0514C32.5901 12.6996 32.451 12.3616 32.3957 11.9988C32.2434 11.3839 32.0882 10.8123 31.929 10.2072C31.824 9.90437 31.7468 9.59347 31.6879 9.27853C31.6158 9.01262 31.5241 8.75133 31.4808 8.4785C31.3724 8.08107 31.2317 7.71076 31.1469 7.31046V7.3093C31.1284 7.25681 31.11 7.20432 31.0927 7.15126C31.0638 7.03186 31.0073 6.90381 30.9629 6.79479C30.9421 6.74115 30.9179 6.68289 30.9092 6.62463V6.62405C30.8948 6.59233 30.889 6.55599 30.8948 6.51619C30.9121 6.36161 31.0696 6.29354 31.2005 6.25432C31.3609 6.1926 31.5178 6.12338 31.6752 6.0559C31.9313 5.94169 32.188 5.8269 32.4574 5.7473C32.6996 5.68385 32.9309 5.58695 33.1651 5.49927C33.2534 5.4739 33.3462 5.42371 33.4391 5.40352C33.4893 5.37872 33.5487 5.37872 33.6041 5.37295C33.8521 5.39256 33.8844 5.69597 33.9732 5.87766C34.0742 6.20702 34.1659 6.54099 34.2513 6.87497C34.4145 7.47023 34.6383 8.0482 34.7854 8.64808C34.8927 9.08242 35.038 9.50579 35.1332 9.94417C35.2382 10.3272 35.2786 10.7298 35.421 11.1012C35.5006 11.246 35.5497 11.4041 35.6137 11.5552C35.6258 11.5581 35.6379 11.561 35.6506 11.5633C35.6506 11.5604 35.6506 11.5581 35.6506 11.5552C35.6546 11.3891 35.6506 11.2224 35.6731 11.0574C35.7141 10.6577 35.6916 10.2574 35.706 9.85765C35.7187 9.73767 35.7221 9.61481 35.7244 9.49138C35.7239 9.48907 35.7233 9.48734 35.7221 9.48503C35.7371 8.88226 35.7371 8.2795 35.7683 7.67731C35.8006 7.24643 35.8992 6.82478 35.8461 6.39102C35.8404 6.2399 35.8513 6.08704 35.8571 5.93592C35.8617 5.86728 35.8479 5.7946 35.8796 5.73346C35.9125 5.60714 36.0688 5.5858 36.1801 5.57195C36.288 5.55061 36.4005 5.52869 36.5106 5.5235C36.9352 5.45717 37.3557 5.37814 37.7785 5.30201C37.9411 5.27951 38.1026 5.22587 38.2664 5.20625C38.4049 5.14973 38.5485 5.17684 38.601 5.33258C38.6679 5.5235 38.6321 5.73346 38.6939 5.92727C38.7879 6.27681 38.7786 6.64251 38.8565 6.99494C38.9246 7.32718 38.9678 7.66346 38.9892 8.00032C39.0757 8.42889 39.0993 8.86842 39.1876 9.29699C39.2337 9.59405 39.281 9.9234 39.3099 10.2158C39.3422 10.4875 39.3589 10.7771 39.4149 11.0424C39.4247 11.1762 39.4593 11.306 39.4968 11.4346C39.5048 11.4358 39.5129 11.4358 39.521 11.4358C39.5354 11.4358 39.5504 11.4346 39.5643 11.4318C39.5775 11.4035 39.5891 11.3787 39.5966 11.3574C39.7263 10.9911 39.8521 10.6219 39.9438 10.2441C40.0419 9.92975 40.1007 9.58597 40.2339 9.28603C40.4231 8.66769 40.6169 8.04993 40.8084 7.43332C40.9647 7.01052 41.1153 6.58772 41.2347 6.15222C41.2768 6.03513 41.297 5.89785 41.4066 5.82229C41.477 5.76403 41.5669 5.76518 41.6321 5.80787C41.6471 5.8096 41.6621 5.81248 41.676 5.81594C41.8121 5.86209 41.9488 5.91342 42.0843 5.96707C42.4304 6.06512 42.7742 6.16837 43.1036 6.31488C43.3135 6.43082 43.5806 6.44178 43.783 6.56464C43.8298 6.58541 43.8736 6.61194 43.9128 6.6402C43.9705 6.68058 44.0311 6.73826 44.0293 6.81209Z" stroke="black" stroke-width="0.360506" mask="url(#path-2-inside-1_190_1051)"/>
<path d="M27.836 12.0236C27.8533 11.8967 27.8585 11.7692 27.8579 11.6423C27.78 11.0413 27.6387 10.4558 27.3624 9.92687C27.3192 9.81843 27.269 9.71229 27.2171 9.60789C27.198 9.56924 27.1778 9.53117 27.1605 9.49195C27.1334 9.43139 27.0988 9.37428 27.059 9.32179C27.0475 9.3068 27.0354 9.2918 27.0238 9.27622C26.9166 9.09107 26.7539 8.92956 26.5526 8.85227C26.507 8.83035 26.4614 8.80555 26.4136 8.7894C26.368 8.77382 26.3201 8.76344 26.2728 8.75363C26.2376 8.74037 26.2013 8.72364 26.1644 8.71787C26.1159 8.71037 26.0686 8.70288 26.019 8.70518C25.9694 8.70749 25.921 8.7121 25.8725 8.7196C25.8056 8.72941 25.7376 8.73691 25.6706 8.75017C25.6297 8.75825 25.5887 8.76748 25.5484 8.77901C25.4918 8.79459 25.433 8.81478 25.3822 8.84362C25.2917 8.89438 25.1994 8.94687 25.1215 9.01551C25.0892 9.04435 25.0592 9.07492 25.0275 9.10434C24.9802 9.1476 24.9318 9.1897 24.8885 9.237C24.8372 9.29295 24.7887 9.35006 24.7408 9.40947C24.6422 9.53233 24.5637 9.66673 24.4986 9.8092C24.4818 9.84208 24.4657 9.87611 24.4507 9.91014C24.4294 9.98743 24.3988 10.0601 24.3705 10.1345C24.3567 10.2776 24.3336 10.4195 24.3278 10.5631C24.3249 10.5787 24.3221 10.5948 24.3198 10.6104C24.3203 10.6363 24.3209 10.6617 24.3215 10.6877C24.3238 10.7742 24.318 10.8601 24.3198 10.9461C24.3215 11.0297 24.3273 11.1128 24.3376 11.1953C24.3417 11.227 24.3451 11.2581 24.3486 11.2899C24.4074 11.576 24.5118 11.858 24.6053 12.1205C24.6589 12.2981 24.7333 12.4671 24.8377 12.6211C24.9416 12.8369 25.095 13.0111 25.2553 13.1824C25.3984 13.3572 25.5316 13.5469 25.7087 13.6871C25.8477 13.7805 25.9867 13.8809 26.1442 13.9415C26.3057 13.9836 26.4713 14.0257 26.6374 14.0291C26.706 14.0182 26.7729 14.0003 26.837 13.9703C27.0469 13.829 27.2869 13.7096 27.442 13.5048C27.7062 13.0595 27.7702 12.5277 27.836 12.0236ZM30.9283 8.0978C31.0252 8.12895 31.0638 8.23624 31.0425 8.32968C31.0044 8.53156 30.9784 8.73691 30.8856 8.92322C30.8239 9.07203 30.8106 9.23296 30.7846 9.39043C30.7662 9.54213 30.7506 9.69441 30.7293 9.84727C30.6935 10.0093 30.7016 10.1749 30.6947 10.3399C30.6439 10.7442 30.6497 11.1526 30.626 11.5587C30.5799 11.9913 30.5355 12.4227 30.4882 12.8455C30.4541 13.1374 30.3664 13.4177 30.3215 13.7073C30.2719 13.9611 30.2286 14.216 30.115 14.4508C30.1028 14.4831 30.0873 14.5183 30.0671 14.5488C29.9327 14.8269 29.7297 15.0732 29.5255 15.3039C29.4072 15.4308 29.293 15.5969 29.1655 15.7088C28.9642 15.9095 28.7398 16.0895 28.4982 16.2389C28.3638 16.3306 28.253 16.3923 28.1042 16.4339C28.0459 16.4477 27.9888 16.4638 27.9312 16.4817C27.855 16.536 27.7206 16.5515 27.6404 16.5729C27.3088 16.6669 26.9615 16.7021 26.6189 16.6565L26.616 16.6559C26.2849 16.6063 25.955 16.5233 25.6378 16.4396C25.2352 16.2954 24.8643 16.0832 24.5049 15.8559C24.2742 15.6973 24.0273 15.5623 23.8064 15.3904C23.5884 15.1764 23.3196 14.9745 23.1367 14.7346C23.0952 14.6988 23.0635 14.6561 23.0358 14.6106C22.8697 14.4214 22.7255 14.2189 22.602 14.0003C22.4486 13.7615 22.2709 13.5348 22.1602 13.2712C22.159 13.2689 22.1579 13.266 22.1573 13.2637C21.5413 12.2122 21.1571 11.0263 21.1335 9.80228C21.0879 9.39332 21.021 8.98032 20.8987 8.58809C20.8924 8.54425 20.9027 8.5033 20.9241 8.46984C20.9287 8.4237 20.9552 8.37928 20.9979 8.35506C21.1652 8.2645 21.344 8.4012 21.4749 8.49984C21.603 8.59444 21.7068 8.71614 21.8239 8.82228C21.7841 8.3764 21.8972 7.91899 22.065 7.50657C22.1002 7.37448 22.1319 7.24066 22.1515 7.10511C22.3061 6.24567 22.414 5.32623 22.1031 4.48986C22.0316 4.33816 21.9531 4.18992 21.8787 4.03995C21.8129 3.9367 21.761 3.78269 21.877 3.70367C21.9208 3.64079 22.0044 3.60618 22.0817 3.6506C22.1481 3.68117 22.2127 3.71578 22.2744 3.75327C22.2755 3.755 22.2767 3.75673 22.2773 3.75846C22.4417 3.83403 22.5991 3.90324 22.7243 4.03475C22.88 4.17319 23.0588 4.28797 23.2013 4.44141C23.2238 4.39122 23.248 4.34219 23.2717 4.29547C23.3536 4.12877 23.4609 3.93554 23.5786 3.80115C23.5872 3.79249 23.5953 3.78327 23.6034 3.77404C23.7879 3.50755 23.9927 3.2526 24.1836 2.99823C24.5297 2.52986 24.9064 2.08225 25.2323 1.59946C25.3788 1.36124 25.5189 1.11148 25.681 0.886527C25.7427 0.835191 25.8027 0.821925 25.8529 0.835191C25.9435 0.841536 26.019 0.947669 26.03 1.04342C26.0271 1.06592 26.0277 1.08899 26.0329 1.11148C26.0317 1.1409 26.0311 1.17032 26.0306 1.19974C26.0306 1.18993 26.0311 1.18012 26.0311 1.17032C26.0306 1.19454 26.0294 1.21877 26.0277 1.243C26.034 1.29433 26.0386 1.34567 26.0461 1.39643C26.0531 2.2178 26.1996 3.06802 26.6403 3.77404C26.9091 4.22279 27.3209 4.50485 27.6024 4.934C27.6831 5.05571 27.7483 5.18549 27.8025 5.31931C27.851 5.25875 27.9 5.19876 27.9531 5.14223C28.0788 4.99457 28.2248 4.86882 28.3753 4.74827C28.4514 4.67098 28.5149 4.60753 28.5535 4.56542C28.6337 4.48294 28.7127 4.40045 28.782 4.30874C28.7952 4.29663 28.8085 4.28278 28.82 4.26836C28.82 4.26836 28.82 4.26836 28.8206 4.26779C28.8212 4.26721 28.8212 4.26721 28.8218 4.26663C28.8218 4.26663 28.8223 4.26606 28.8229 4.26548L28.8241 4.26432C28.8246 4.26375 28.8252 4.26317 28.8258 4.26259L28.8264 4.26202C28.8419 4.24356 28.8581 4.2251 28.8754 4.20837C28.8852 4.2003 28.895 4.19107 28.9054 4.18299C28.9504 4.13166 29 4.08724 29.0692 4.0734C29.1142 4.06763 29.1569 4.08667 29.1875 4.11782L29.188 4.11839C29.2013 4.12993 29.2128 4.14435 29.2226 4.15992C29.2901 4.18588 29.3259 4.28624 29.304 4.35777C29.2572 4.54754 29.1863 4.73212 29.1523 4.92535C29.1425 5.14569 29.1748 5.3966 29.1921 5.60829C29.2371 6.08993 29.3305 6.57099 29.5024 7.02378C29.695 7.5804 29.901 8.12203 29.9996 8.70172C30.01 8.76633 30.0163 8.83208 30.0204 8.89784C30.119 8.69307 30.277 8.52637 30.4397 8.36717C30.4841 8.32103 30.5308 8.27431 30.5851 8.24143C30.6001 8.23278 30.6156 8.22643 30.6312 8.22239C30.7252 8.13703 30.8296 8.07012 30.9283 8.0978Z" stroke="black" stroke-width="0.360506" mask="url(#path-2-inside-1_190_1051)"/>
<path d="M20.698 14.8113C20.8445 14.8782 20.8577 15.0339 20.8214 15.1729C20.7949 15.4637 20.7268 15.7498 20.6622 16.0336C20.6201 16.1651 20.6357 16.3012 20.6357 16.4367C20.6311 16.5475 20.6028 16.6634 20.6086 16.773C20.6189 16.9836 20.5474 17.2333 20.2832 17.1549C19.9389 17.1064 19.5876 17.1174 19.2438 17.0522C18.9179 17.0343 18.592 17.0216 18.2708 16.9559C18.0147 16.9247 17.7643 16.9184 17.5088 16.8907C17.15 16.863 16.7976 16.7765 16.4371 16.7655C16.0887 16.743 15.7495 16.6513 15.404 16.6052C15.1323 16.5942 14.852 16.5273 14.5797 16.5042C14.5694 16.506 14.5584 16.5077 14.548 16.5094C14.5278 16.5129 14.5082 16.5169 14.488 16.5215C14.4073 16.5117 14.3271 16.4979 14.2481 16.4771C14.1691 16.4506 14.1223 16.3917 14.1021 16.3248C13.9822 16.1206 14.0693 15.7792 14.0987 15.5773C14.1252 15.3281 14.1235 15.1003 14.1506 14.8655C14.1518 14.7761 14.1535 14.6861 14.1558 14.5967C14.1621 14.3937 14.1754 14.1906 14.1852 13.9882C14.1881 13.8809 14.1916 13.7736 14.1944 13.6663C14.1973 13.551 14.2112 13.4368 14.2227 13.3214C14.2435 13.1143 14.2735 12.9084 14.2896 12.7013C14.2977 12.5935 14.3086 12.4862 14.3185 12.3777C14.3283 12.271 14.3415 12.1649 14.349 12.0582C14.3646 11.8424 14.3819 11.6267 14.4102 11.4127C14.4332 11.2374 14.4488 11.0603 14.4661 10.8844C14.4742 10.799 14.4805 10.7131 14.488 10.6277C14.4955 10.54 14.5036 10.4523 14.5082 10.3647C14.5105 10.2597 14.5175 10.1559 14.5244 10.0515C14.5313 9.94129 14.5371 9.83112 14.548 9.72152C14.5584 9.61943 14.5717 9.51848 14.5844 9.41697C14.5976 9.31314 14.6051 9.20816 14.6121 9.10318C14.6253 8.9013 14.6478 8.70057 14.6605 8.49926C14.6674 8.38678 14.6755 8.27488 14.6865 8.16298C14.6968 8.05973 14.7032 7.95591 14.7141 7.85266C14.7361 7.64789 14.7684 7.44543 14.7857 7.24066C14.7943 7.14145 14.8047 7.04224 14.818 6.94303C14.8301 6.85189 14.8445 6.76133 14.852 6.66962C14.8589 6.59348 14.8693 6.5185 14.8837 6.44293C14.893 6.39275 14.9091 6.34315 14.9362 6.30104C14.9368 6.29181 14.9379 6.28316 14.9391 6.27393C14.9777 6.12569 15.1439 6.11069 15.2708 6.08589C15.6134 6.0184 15.9572 5.96014 16.2998 5.89208C17.4003 5.60887 18.5315 5.52984 19.6505 5.35565C19.8789 5.30431 20.0946 5.25067 20.2734 5.2374C20.5988 5.14338 20.7095 5.31123 20.6651 5.65732C20.653 5.95322 20.6599 6.24047 20.6916 6.53292C20.7009 6.6552 20.6899 6.77633 20.6743 6.89746C20.6807 6.99033 20.6807 7.11376 20.6801 7.19798C20.6686 7.29258 20.7182 7.38602 20.6859 7.47773C20.6518 7.5879 20.537 7.61443 20.4367 7.63059C19.9475 7.6975 19.4388 7.79325 18.9543 7.86823C18.6399 7.94552 18.3186 7.99167 17.9985 8.03839C17.6899 8.10299 17.3946 8.16067 17.0912 8.22355C17.0646 8.25239 17.0416 8.28238 17.0243 8.31987C17.022 8.32449 17.0202 8.3291 17.0179 8.33372C17.0168 8.37582 17.0156 8.41793 17.0133 8.45946C17.011 8.49349 17.0081 8.52752 17.0047 8.56098C17.0035 8.64462 16.9995 8.72999 16.9937 8.81132C16.9943 8.84131 16.9949 8.87073 16.996 8.90072C17 8.96302 17.0052 9.02589 17.0075 9.08818C17.0093 9.13375 17.0093 9.1799 17.0098 9.22604V9.22662C17.0104 9.23354 17.011 9.24104 17.0116 9.24796C17.0116 9.25315 17.0116 9.25777 17.011 9.26238C17.011 9.26526 17.011 9.26872 17.011 9.27161C17.0162 9.36505 17.0185 9.45792 17.015 9.55194C17.015 9.55367 17.015 9.5554 17.015 9.55713C17.0173 9.56117 17.0202 9.56521 17.0231 9.56924C17.1806 9.56001 17.3432 9.55771 17.4909 9.55252C17.6397 9.56174 17.7903 9.56405 17.9402 9.56578C17.9772 9.56405 18.0147 9.56348 18.0521 9.56405C18.325 9.56521 18.599 9.57328 18.8729 9.57732C18.941 9.56578 19.0108 9.55021 19.0748 9.56463C19.1117 9.56175 19.1504 9.56867 19.1862 9.58712H19.1867C19.2023 9.59347 19.2167 9.60154 19.2294 9.61135C19.2283 9.62635 19.2294 9.64077 19.2317 9.65461C19.234 9.6575 19.2363 9.66096 19.2381 9.66442C19.2681 9.71114 19.2692 9.7642 19.2732 9.81785C19.29 10.0826 19.35 10.3439 19.3379 10.6115C19.354 10.8688 19.3667 11.1249 19.3315 11.3822C19.3211 11.6602 19.2911 11.9993 18.9295 11.9797C18.8124 11.9711 18.682 11.9832 18.5718 11.9394C18.4276 11.944 18.2857 11.9515 18.1612 11.9532C17.8249 11.9544 17.4926 12.0178 17.1558 12.0126C17.0052 12.0063 16.8541 12.0299 16.7041 12.0363C16.6845 12.3166 16.684 12.5986 16.6591 12.879C16.639 13.1132 16.6032 13.3462 16.5963 13.5815C16.6078 13.694 16.6026 13.8065 16.5963 13.919C16.5997 13.9282 16.6032 13.9374 16.6078 13.9467C16.6211 13.9766 16.6361 14.0043 16.6534 14.0297C16.872 14.0562 17.0843 14.1278 17.2959 14.1872C17.3 14.1889 17.3034 14.1901 17.3075 14.1918C17.3138 14.1918 17.3202 14.1918 17.3271 14.1912C17.5146 14.2368 17.702 14.2818 17.8924 14.3106C18.2956 14.3833 18.6987 14.4566 19.1019 14.531C19.1227 14.5315 19.1435 14.5333 19.1637 14.5344C19.2508 14.5512 19.3373 14.5702 19.4244 14.5898C19.5097 14.6054 19.5957 14.6215 19.6811 14.6371C19.763 14.6567 19.846 14.6723 19.9291 14.6855C20.0854 14.6925 20.2371 14.7167 20.3888 14.7525C20.4932 14.7634 20.6028 14.76 20.698 14.8113Z" stroke="black" stroke-width="0.360506" mask="url(#path-2-inside-1_190_1051)"/>
<path d="M13.136 15.3189C13.1764 15.4348 13.2017 15.5565 13.1723 15.6725C13.1129 15.8247 12.9595 15.9147 12.8078 15.9557C12.7299 15.9949 12.6474 16.0203 12.5603 16.0295C12.5402 16.0307 12.52 16.0335 12.4998 16.037C12.4063 16.0682 12.3135 16.101 12.2246 16.1437C11.8734 16.2804 11.5175 16.4044 11.1645 16.5325C10.9603 16.5763 10.6811 16.7465 10.4486 16.7465C10.4434 16.7465 10.4383 16.7465 10.4325 16.7459C10.4261 16.7511 10.4204 16.7563 10.414 16.7615C10.4106 16.7609 10.4071 16.7603 10.4031 16.7598C10.3269 16.7776 10.241 16.7574 10.181 16.6992C10.0714 16.5977 10.0368 16.454 10.0016 16.315C9.92028 16.0376 9.8551 15.7567 9.78819 15.4764C9.63822 14.9376 9.50671 14.3868 9.39654 13.8394C9.36481 13.6969 9.33136 13.5544 9.29675 13.4125V13.4119C9.24599 13.2602 9.1935 13.1091 9.1537 12.9517C9.00085 12.3979 8.86703 11.8344 8.66053 11.2974C8.64322 11.2651 8.62823 11.2316 8.61438 11.1982C8.61323 12.2278 8.46903 13.2551 8.52902 14.2841C8.55901 14.8534 8.55324 15.4544 8.51863 16.0186C8.50191 16.1668 8.55786 16.3312 8.46326 16.4615C8.36232 16.5902 8.206 16.6121 8.04911 16.6213C7.97932 16.6421 7.90606 16.6484 7.83281 16.6571C7.69899 16.6882 7.56517 16.7246 7.42616 16.7136C7.17294 16.8163 6.89434 16.7909 6.63477 16.8745C6.42251 16.9218 6.21197 16.9749 5.99509 16.9991C5.85147 17.0234 5.69457 17.1243 5.56191 17.0135C5.48346 16.953 5.46731 16.8532 5.44655 16.7621C5.36002 16.5163 5.3433 16.2695 5.2735 16.0278C5.09988 15.5917 5.11603 15.1285 5.04509 14.674C4.94703 14.0516 4.89858 13.4062 4.78321 12.7913C4.72726 12.2485 4.61536 11.7236 4.53807 11.1935C4.50635 11.0805 4.48558 10.9669 4.47174 10.8515C4.4429 10.9063 4.41579 10.9605 4.39156 11.0159C4.27678 11.3054 4.15738 11.5933 4.03855 11.8822C3.81764 12.4741 3.68612 13.0987 3.55288 13.7113C3.39887 14.2916 3.19353 14.8574 3.06028 15.4429C2.97665 15.6869 2.94781 15.9413 2.89935 16.1933C2.87109 16.3583 2.84052 16.6265 2.61499 16.5988C2.27409 16.5031 2.00472 16.2504 1.70132 16.0785C1.53001 15.9943 1.33562 15.9447 1.17066 15.8547C0.84995 15.699 0.536165 15.5283 0.198155 15.4106C0.156625 15.4008 0.128361 15.3754 0.11221 15.3443C0.086254 15.3275 0.0631816 15.3062 0.0481846 15.2785C0.0112688 15.2156 0.0204977 15.1395 0.0585672 15.0847C0.0764483 15.0126 0.109903 14.9416 0.126631 14.8701C0.221804 14.5696 0.294482 14.2599 0.35274 13.957C0.450798 13.3116 0.639991 12.7002 0.757084 12.0611C0.838991 11.8211 0.9457 11.5887 0.991845 11.3377C1.03395 11.0488 1.15624 10.7811 1.24506 10.5054C1.4233 9.94475 1.55827 9.37082 1.73593 8.81016C2.02145 7.74133 2.31966 6.67308 2.67555 5.62617C2.71304 5.49754 2.79726 5.4289 2.8809 5.41045C2.89878 5.3966 2.91954 5.38564 2.94146 5.37872C3.05971 5.34469 3.17103 5.41218 3.28178 5.44563C3.90531 5.69193 4.5623 5.85978 5.16622 6.15165H5.16679C5.3606 6.20644 5.54057 6.32065 5.63286 6.50062L5.63343 6.50177C5.65189 6.53119 5.66631 6.56406 5.679 6.59464C5.68534 6.6154 5.69111 6.63674 5.69746 6.65751C5.71476 6.70192 5.73149 6.74634 5.74706 6.79075C5.7511 6.7896 5.75514 6.7896 5.75918 6.78844C5.76148 6.79883 5.76321 6.80863 5.76494 6.81901C5.77129 6.86112 5.77706 6.90323 5.78744 6.94476C5.79898 6.98917 5.81109 7.03301 5.82032 7.07743C5.88088 7.28219 5.94376 7.48638 6.01413 7.68827C6.07065 7.89246 6.08507 8.10876 6.1491 8.30776C6.25523 8.6873 6.32906 9.07261 6.41097 9.45677C6.53152 9.87841 6.60074 10.3104 6.67803 10.7407C6.72649 10.9461 6.80493 11.1434 6.85742 11.3475C6.90587 11.0488 6.8978 10.7459 6.92433 10.4454C7.01085 9.69787 7.03681 8.93071 7.17755 8.1924C7.18044 8.16529 7.18447 8.13875 7.18909 8.11164C7.26119 7.40102 7.33329 6.68808 7.47345 5.98956C7.47692 5.97918 7.48038 5.9688 7.48557 5.95957C7.48499 5.88516 7.50749 5.82402 7.60035 5.80787C7.64477 5.80787 7.68918 5.8119 7.73417 5.8171C8.42231 5.78364 9.11967 5.85517 9.80953 5.9388C9.91797 5.94457 10.0258 5.96245 10.1337 5.96995C10.2225 5.96707 10.3114 5.97226 10.3973 5.99187C10.4331 5.99418 10.4665 5.99764 10.4971 6.00283C10.5461 6.00341 10.594 6.00571 10.6292 6.04032C10.7561 6.09743 10.8103 6.21336 10.8368 6.43371C10.8789 6.77921 10.9816 7.11376 11.0658 7.45005C11.1483 7.79209 11.2291 8.13414 11.3421 8.46754C11.4356 8.6873 11.4955 8.94398 11.5775 9.16375C11.6732 9.4285 11.7724 9.68576 11.8307 9.95974C11.9956 10.5694 12.1808 11.1416 12.2887 11.7605C12.3227 12.0414 12.366 12.32 12.4484 12.5911C12.5794 13.206 12.7357 13.8203 12.8793 14.4294C12.9405 14.6025 12.9537 14.7876 13.0166 14.9601C13.0627 15.0749 13.1043 15.192 13.136 15.3114C13.1377 15.3137 13.1366 15.316 13.136 15.3189Z" stroke="black" stroke-width="0.360506" mask="url(#path-2-inside-1_190_1051)"/>
</svg>
