<svg width="8" height="8" viewBox="0 0 8 8" fill="none" xmlns="http://www.w3.org/2000/svg">
<path d="M7.32407 1.88144C7.32407 2.12989 7.29167 2.34864 7.22685 2.53769C7.16744 2.72133 7.09992 2.87797 7.02431 3.0076C6.94869 3.13182 6.87847 3.22635 6.81366 3.29116C6.74884 3.35057 6.71373 3.38298 6.70833 3.38838L6.62732 3.4532L6.50579 3.43699C6.23032 3.35598 6.00077 3.29656 5.81713 3.25875C5.63889 3.21554 5.46605 3.19394 5.29861 3.19394C5.14198 3.19394 4.97994 3.21284 4.8125 3.25065C4.64506 3.28306 4.44252 3.33437 4.20486 3.40459L4.09954 3.42079C3.89969 3.33977 3.67824 3.28846 3.43519 3.26685C3.19753 3.23985 2.99498 3.22635 2.82755 3.22635C2.6061 3.22635 2.38735 3.25065 2.1713 3.29926C1.95525 3.34787 1.70949 3.42079 1.43403 3.51801H1.28009C1.26929 3.51261 1.22068 3.4856 1.13426 3.43699C1.04784 3.38298 0.950617 3.29386 0.842593 3.16963C0.739969 3.0454 0.645448 2.88067 0.559028 2.67542C0.478009 2.46477 0.4375 2.20011 0.4375 1.88144C0.4375 1.58437 0.478009 1.34131 0.559028 1.15227C0.640046 0.957827 0.729167 0.803892 0.826389 0.690466C0.929012 0.571639 1.02083 0.49062 1.10185 0.44741C1.18827 0.398799 1.23688 0.371793 1.24769 0.366392L1.3125 0.333984L1.39352 0.366392C1.63117 0.452812 1.84992 0.514926 2.04977 0.552734C2.25502 0.585142 2.45756 0.601345 2.65741 0.601345C2.85725 0.601345 3.0571 0.585142 3.25694 0.552734C3.46219 0.520327 3.68364 0.474416 3.9213 0.415003L3.98611 0.382595L4.05093 0.415003C4.32099 0.506824 4.55594 0.574339 4.75579 0.617549C4.95563 0.660759 5.14738 0.682364 5.33102 0.682364C5.51466 0.682364 5.6983 0.66346 5.88194 0.625651C6.06559 0.587842 6.27353 0.531129 6.50579 0.455512L6.61111 0.415003L6.69213 0.471716C6.69753 0.477117 6.73264 0.506824 6.79745 0.560836C6.86227 0.614849 6.93248 0.698568 7.0081 0.811994C7.08372 0.92542 7.15123 1.07125 7.21065 1.24949C7.27546 1.42773 7.31327 1.63838 7.32407 1.88144ZM6.90278 1.89764C6.89738 1.75181 6.88117 1.62218 6.85417 1.50875C6.82716 1.38993 6.79205 1.29 6.74884 1.20898C6.71103 1.12256 6.67052 1.04965 6.62732 0.990234C6.58951 0.930821 6.5544 0.88491 6.52199 0.852503C6.30594 0.92812 6.1115 0.984833 5.93866 1.02264C5.76582 1.06045 5.58488 1.07935 5.39583 1.07935C5.2446 1.07935 5.07986 1.06585 4.90162 1.03885C4.72878 1.00644 4.52894 0.960528 4.30208 0.901114C4.35069 1.04155 4.3831 1.18198 4.39931 1.32241C4.42091 1.45744 4.43171 1.58167 4.43171 1.6951C4.43171 1.95435 4.41551 2.1515 4.3831 2.28653C4.35069 2.41616 4.31559 2.50798 4.27778 2.56199C4.23997 2.61601 4.20486 2.64301 4.17245 2.64301C4.14005 2.64301 4.12114 2.64301 4.11574 2.64301C4.06713 2.64301 4.02662 2.62681 3.99421 2.5944C3.96721 2.56199 3.9537 2.52689 3.9537 2.48908C3.9537 2.48368 3.95911 2.47287 3.96991 2.45667C3.98071 2.43506 3.99421 2.39996 4.01042 2.35135C4.02662 2.30273 4.04012 2.23522 4.05093 2.1488C4.06173 2.05698 4.06713 1.93815 4.06713 1.79232C4.06713 1.66269 4.05093 1.51685 4.01852 1.35482C3.99151 1.19278 3.9375 1.02534 3.85648 0.852503C3.64583 0.852503 3.43789 0.874108 3.23264 0.917318C3.03279 0.960528 2.83025 0.982133 2.625 0.982133C2.42515 0.982133 2.21721 0.965929 2.00116 0.933521C1.79051 0.901114 1.56636 0.847102 1.3287 0.771484C1.2909 0.793089 1.24498 0.828197 1.19097 0.876808C1.13696 0.92542 1.08295 0.992935 1.02894 1.07935C0.980324 1.16577 0.937114 1.2711 0.899306 1.39533C0.866898 1.51956 0.850694 1.66539 0.850694 1.83283C0.850694 2.05428 0.869599 2.24062 0.907407 2.39185C0.950617 2.54309 0.999228 2.67002 1.05324 2.77264C1.10725 2.86986 1.16397 2.94818 1.22338 3.0076C1.28279 3.06161 1.3341 3.09942 1.37731 3.12102C1.66358 3.0238 1.92554 2.95358 2.16319 2.91037C2.40085 2.86716 2.6331 2.84556 2.85995 2.84556C3.049 2.84556 3.25694 2.85906 3.4838 2.88607C3.71605 2.91307 3.9321 2.95898 4.13194 3.0238C4.375 2.94818 4.58835 2.89417 4.77199 2.86176C4.96103 2.82395 5.14198 2.80505 5.31482 2.80505C5.49846 2.80505 5.6821 2.82665 5.86574 2.86986C6.04938 2.90767 6.26273 2.95898 6.50579 3.0238C6.5436 2.98599 6.58411 2.93738 6.62732 2.87797C6.67593 2.81315 6.71914 2.73483 6.75694 2.64301C6.80015 2.54579 6.83526 2.43777 6.86227 2.31894C6.88927 2.19471 6.90278 2.05428 6.90278 1.89764ZM7.32407 6.02959C7.32407 6.27804 7.29167 6.49679 7.22685 6.68584C7.16744 6.86948 7.09992 7.02611 7.02431 7.15574C6.94869 7.27997 6.87847 7.37449 6.81366 7.43931C6.74884 7.49872 6.71373 7.53113 6.70833 7.53653L6.62732 7.60135L6.50579 7.58514C6.23032 7.50412 6.00077 7.44471 5.81713 7.4069C5.63889 7.36369 5.46605 7.34209 5.29861 7.34209C5.14198 7.34209 4.97994 7.36099 4.8125 7.3988C4.64506 7.43121 4.44252 7.48252 4.20486 7.55273L4.09954 7.56894C3.89969 7.48792 3.67824 7.43661 3.43519 7.415C3.19753 7.388 2.99498 7.37449 2.82755 7.37449C2.6061 7.37449 2.38735 7.3988 2.1713 7.44741C1.95525 7.49602 1.70949 7.56894 1.43403 7.66616H1.28009C1.26929 7.66076 1.22068 7.63375 1.13426 7.58514C1.04784 7.53113 0.950617 7.44201 0.842593 7.31778C0.739969 7.19355 0.645448 7.02881 0.559028 6.82357C0.478009 6.61292 0.4375 6.34826 0.4375 6.02959C0.4375 5.73252 0.478009 5.48946 0.559028 5.30042C0.640046 5.10598 0.729167 4.95204 0.826389 4.83861C0.929012 4.71979 1.02083 4.63877 1.10185 4.59556C1.18827 4.54695 1.23688 4.51994 1.24769 4.51454L1.3125 4.48213L1.39352 4.51454C1.63117 4.60096 1.84992 4.66307 2.04977 4.70088C2.25502 4.73329 2.45756 4.74949 2.65741 4.74949C2.85725 4.74949 3.0571 4.73329 3.25694 4.70088C3.46219 4.66848 3.68364 4.62256 3.9213 4.56315L3.98611 4.53074L4.05093 4.56315C4.32099 4.65497 4.55594 4.72249 4.75579 4.7657C4.95563 4.80891 5.14738 4.83051 5.33102 4.83051C5.51466 4.83051 5.6983 4.81161 5.88194 4.7738C6.06559 4.73599 6.27353 4.67928 6.50579 4.60366L6.61111 4.56315L6.69213 4.61986C6.69753 4.62527 6.73264 4.65497 6.79745 4.70898C6.86227 4.763 6.93248 4.84672 7.0081 4.96014C7.08372 5.07357 7.15123 5.2194 7.21065 5.39764C7.27546 5.57588 7.31327 5.78653 7.32407 6.02959ZM6.90278 6.04579C6.89738 5.89996 6.88117 5.77033 6.85417 5.6569C6.82716 5.53807 6.79205 5.43815 6.74884 5.35713C6.71103 5.27071 6.67052 5.1978 6.62732 5.13838C6.58951 5.07897 6.5544 5.03306 6.52199 5.00065C6.30594 5.07627 6.1115 5.13298 5.93866 5.17079C5.76582 5.2086 5.58488 5.2275 5.39583 5.2275C5.2446 5.2275 5.07986 5.214 4.90162 5.18699C4.72878 5.15459 4.52894 5.10868 4.30208 5.04926C4.35069 5.18969 4.3831 5.33013 4.39931 5.47056C4.42091 5.60559 4.43171 5.72982 4.43171 5.84324C4.43171 6.1025 4.41551 6.29965 4.3831 6.43468C4.35069 6.56431 4.31559 6.65613 4.27778 6.71014C4.23997 6.76415 4.20486 6.79116 4.17245 6.79116C4.14005 6.79116 4.12114 6.79116 4.11574 6.79116C4.06713 6.79116 4.02662 6.77496 3.99421 6.74255C3.96721 6.71014 3.9537 6.67503 3.9537 6.63723C3.9537 6.63182 3.95911 6.62102 3.96991 6.60482C3.98071 6.58321 3.99421 6.5481 4.01042 6.49949C4.02662 6.45088 4.04012 6.38337 4.05093 6.29695C4.06173 6.20513 4.06713 6.0863 4.06713 5.94047C4.06713 5.81084 4.05093 5.665 4.01852 5.50297C3.99151 5.34093 3.9375 5.17349 3.85648 5.00065C3.64583 5.00065 3.43789 5.02226 3.23264 5.06547C3.03279 5.10868 2.83025 5.13028 2.625 5.13028C2.42515 5.13028 2.21721 5.11408 2.00116 5.08167C1.79051 5.04926 1.56636 4.99525 1.3287 4.91963C1.2909 4.94124 1.24498 4.97635 1.19097 5.02496C1.13696 5.07357 1.08295 5.14108 1.02894 5.2275C0.980324 5.31392 0.937114 5.41925 0.899306 5.54348C0.866898 5.6677 0.850694 5.81354 0.850694 5.98098C0.850694 6.20243 0.869599 6.38877 0.907407 6.54C0.950617 6.69124 0.999228 6.81817 1.05324 6.92079C1.10725 7.01801 1.16397 7.09633 1.22338 7.15574C1.28279 7.20976 1.3341 7.24756 1.37731 7.26917C1.66358 7.17195 1.92554 7.10173 2.16319 7.05852C2.40085 7.01531 2.6331 6.99371 2.85995 6.99371C3.049 6.99371 3.25694 7.00721 3.4838 7.03422C3.71605 7.06122 3.9321 7.10713 4.13194 7.17195C4.375 7.09633 4.58835 7.04232 4.77199 7.00991C4.96103 6.9721 5.14198 6.9532 5.31482 6.9532C5.49846 6.9532 5.6821 6.9748 5.86574 7.01801C6.04938 7.05582 6.26273 7.10713 6.50579 7.17195C6.5436 7.13414 6.58411 7.08553 6.62732 7.02611C6.67593 6.9613 6.71914 6.88298 6.75694 6.79116C6.80015 6.69394 6.83526 6.58591 6.86227 6.46709C6.88927 6.34286 6.90278 6.20243 6.90278 6.04579Z" fill="white" style="fill:white;fill-opacity:1;"/>
</svg>
