<svg width="33" height="29" viewBox="0 0 33 29" fill="none" xmlns="http://www.w3.org/2000/svg">
<g clip-path="url(#clip0_9700_6267)">
<path d="M32.5246 13.1646C32.5246 15.2441 32.115 17.3033 31.3192 19.2246C30.5234 21.1458 29.3569 22.8915 27.8865 24.362C26.416 25.8324 24.6703 26.9989 22.7491 27.7947C20.8278 28.5905 18.7686 29.0001 16.689 29.0001C14.6095 29.0001 12.5503 28.5905 10.629 27.7947C8.70777 26.9989 6.9621 25.8324 5.49164 24.362C4.02117 22.8915 2.85473 21.1458 2.05892 19.2246C1.26311 17.3033 0.853515 15.2441 0.853516 13.1646H32.5246Z" fill="#488A14" style="fill:#488A14;fill:color(display-p3 0.2824 0.5412 0.0784);fill-opacity:1;"/>
<path d="M5.95092 13.1917H0.853516L1.16245 0H7.80452L8.52538 4.43722H8.67981L9.40067 0H15.9912L16.3002 13.1917H11.2028V6.3389H11.0483L9.96704 13.1917H7.18664L6.10539 6.16757H5.95092V13.1917Z" fill="#FC79C9" style="fill:#FC79C9;fill:color(display-p3 0.9882 0.4745 0.7882);fill-opacity:1;"/>
<path d="M22.1736 13.1917H17.0762L17.3851 0H24.0272L24.748 4.43722H24.9025L25.6234 0H32.214L32.5229 13.1917H27.4255V6.3389H27.271L26.1897 13.1917H23.4093L22.3281 6.16757H22.1736V13.1917Z" fill="#FAE94F" style="fill:#FAE94F;fill:color(display-p3 0.9804 0.9137 0.3098);fill-opacity:1;"/>
<path d="M14.8068 19.4879C14.8068 21.3093 13.3303 22.7858 11.5089 22.7858C9.68748 22.7858 8.21094 21.3093 8.21094 19.4879C8.21094 17.6665 9.68748 16.1899 11.5089 16.1899C13.3303 16.1899 14.8068 17.6665 14.8068 19.4879Z" fill="#FAE94F" style="fill:#FAE94F;fill:color(display-p3 0.9804 0.9137 0.3098);fill-opacity:1;"/>
<path d="M13.7167 20.1147C13.7167 20.9577 13.0333 21.641 12.1904 21.641C11.3474 21.641 10.6641 20.9577 10.6641 20.1147C10.6641 19.2717 11.3474 18.5884 12.1904 18.5884C13.0333 18.5884 13.7167 19.2717 13.7167 20.1147Z" fill="#488A14" style="fill:#488A14;fill:color(display-p3 0.2824 0.5412 0.0784);fill-opacity:1;"/>
<path d="M13.2264 19.4606C13.2264 19.6413 13.08 19.7877 12.8993 19.7877C12.7187 19.7877 12.5723 19.6413 12.5723 19.4606C12.5723 19.28 12.7187 19.1335 12.8993 19.1335C13.08 19.1335 13.2264 19.28 13.2264 19.4606Z" fill="white" style="fill:white;fill-opacity:1;"/>
<path d="M18.5684 19.4879C18.5684 21.3093 20.0449 22.7858 21.8663 22.7858C23.6877 22.7858 25.1642 21.3093 25.1642 19.4879C25.1642 17.6665 23.6877 16.1899 21.8663 16.1899C20.0449 16.1899 18.5684 17.6665 18.5684 19.4879Z" fill="#FAE94F" style="fill:#FAE94F;fill:color(display-p3 0.9804 0.9137 0.3098);fill-opacity:1;"/>
<path d="M19.6582 20.1147C19.6582 20.9577 20.3416 21.641 21.1845 21.641C22.0275 21.641 22.7108 20.9577 22.7108 20.1147C22.7108 19.2717 22.0275 18.5884 21.1845 18.5884C20.3416 18.5884 19.6582 19.2717 19.6582 20.1147Z" fill="#488A14" style="fill:#488A14;fill:color(display-p3 0.2824 0.5412 0.0784);fill-opacity:1;"/>
<path d="M20.1484 19.4606C20.1484 19.6413 20.2949 19.7877 20.4755 19.7877C20.6562 19.7877 20.8026 19.6413 20.8026 19.4606C20.8026 19.28 20.6562 19.1335 20.4755 19.1335C20.2949 19.1335 20.1484 19.28 20.1484 19.4606Z" fill="white" style="fill:white;fill-opacity:1;"/>
</g>
<defs>
<clipPath id="clip0_9700_6267">
<rect width="31.6711" height="29" fill="white" style="fill:white;fill-opacity:1;" transform="translate(0.853516)"/>
</clipPath>
</defs>
</svg>
