<svg width="171" height="19" viewBox="0 0 171 19" fill="none" xmlns="http://www.w3.org/2000/svg">
<path d="M17.0098 16.9316C16.7624 16.9186 16.5215 16.8991 16.2871 16.873C16.0918 16.847 15.8965 16.8275 15.7012 16.8145C15.5189 16.8014 15.3822 16.7949 15.291 16.7949C14.7832 16.7949 14.2754 16.8014 13.7676 16.8145C13.2598 16.8405 12.7585 16.8796 12.2637 16.9316C12.2767 16.3848 12.2832 15.8509 12.2832 15.3301C12.2962 14.7962 12.3027 14.2559 12.3027 13.709C12.3027 12.7324 12.2832 11.7624 12.2441 10.7988C12.2181 9.83529 12.1921 8.87174 12.166 7.9082L8.06445 17.1855C7.46549 15.5579 6.82096 13.9629 6.13086 12.4004C5.45378 10.8249 4.74414 9.25586 4.00195 7.69336L4.31445 17.3418C4.17122 17.3418 4.02148 17.3353 3.86523 17.3223C3.72201 17.3223 3.57227 17.3223 3.41602 17.3223C2.92122 17.3223 2.43294 17.3418 1.95117 17.3809C1.48242 17.4199 1.00716 17.459 0.525391 17.498C0.590495 16.2871 0.655599 15.0827 0.720703 13.8848C0.785807 12.6868 0.818359 11.4824 0.818359 10.2715C0.818359 8.85221 0.805339 7.43945 0.779297 6.0332C0.766276 4.62695 0.753255 3.21419 0.740234 1.79492C1.67773 1.79492 2.58919 1.76888 3.47461 1.7168C4.37305 1.66471 5.29102 1.5931 6.22852 1.50195C6.54102 2.54362 6.86003 3.57878 7.18555 4.60742C7.52409 5.62305 7.88216 6.63867 8.25977 7.6543C8.66341 6.69076 9.11914 5.74674 9.62695 4.82227C10.1478 3.89779 10.6751 2.97982 11.209 2.06836C12.0944 2.04232 12.9668 2.01628 13.8262 1.99023C14.6986 1.96419 15.5775 1.94466 16.4629 1.93164C16.502 3.10352 16.5475 4.26237 16.5996 5.4082C16.6647 6.55404 16.7233 7.71289 16.7754 8.88477C16.8145 9.80925 16.847 10.7337 16.873 11.6582C16.9121 12.5827 16.9447 13.5007 16.9707 14.4121L17.0098 16.0527V16.9316Z" fill="#FAE94F" style="fill:#FAE94F;fill:color(display-p3 0.9804 0.9137 0.3098);fill-opacity:1;"/>
<path d="M33.8262 8.86523C33.8262 8.9694 33.8262 9.07357 33.8262 9.17773C33.8262 9.26888 33.8197 9.36654 33.8066 9.4707C33.7936 9.653 33.7611 9.95247 33.709 10.3691C33.6569 10.7858 33.5853 11.222 33.4941 11.6777C33.403 12.1204 33.2923 12.5306 33.1621 12.9082C33.0319 13.2858 32.8887 13.5267 32.7324 13.6309C32.6543 13.6829 32.3874 13.7285 31.9316 13.7676C31.4889 13.8066 30.9421 13.8457 30.291 13.8848C29.653 13.9238 28.9564 13.9564 28.2012 13.9824C27.446 14.0085 26.7233 14.0345 26.0332 14.0605C25.3561 14.0736 24.7572 14.0866 24.2363 14.0996C23.7285 14.1126 23.39 14.1191 23.2207 14.1191C23.1426 14.1191 23.0059 14.1191 22.8105 14.1191C22.6283 14.1191 22.4329 14.1191 22.2246 14.1191C22.0163 14.1061 21.821 14.0931 21.6387 14.0801C21.4564 14.0671 21.3262 14.0475 21.248 14.0215C21.0658 13.9564 20.8835 13.8522 20.7012 13.709C20.5189 13.5527 20.3496 13.3835 20.1934 13.2012C20.0371 13.0059 19.8939 12.8105 19.7637 12.6152C19.6465 12.4069 19.5618 12.2116 19.5098 12.0293C19.4707 11.8861 19.4382 11.6712 19.4121 11.3848C19.3861 11.0853 19.3665 10.7793 19.3535 10.4668C19.3405 10.1413 19.3275 9.82878 19.3145 9.5293C19.3145 9.22982 19.3145 9.00195 19.3145 8.8457C19.3145 8.59831 19.321 8.25977 19.334 7.83008C19.347 7.38737 19.3861 6.93815 19.4512 6.48242C19.5163 6.02669 19.6074 5.60352 19.7246 5.21289C19.8548 4.80924 20.0371 4.5293 20.2715 4.37305C20.3757 4.30794 20.571 4.24935 20.8574 4.19727C21.1439 4.14518 21.4824 4.09961 21.873 4.06055C22.2637 4.02148 22.6803 3.99544 23.123 3.98242C23.5658 3.95638 23.9954 3.94336 24.4121 3.94336C24.8418 3.93034 25.2389 3.92383 25.6035 3.92383C25.9681 3.92383 26.2611 3.93034 26.4824 3.94336C26.6777 3.95638 26.9577 3.9694 27.3223 3.98242C27.6868 3.98242 28.0905 3.98893 28.5332 4.00195C28.9889 4.01497 29.4577 4.04102 29.9395 4.08008C30.4212 4.10612 30.8704 4.14518 31.2871 4.19727C31.7038 4.24935 32.0684 4.32096 32.3809 4.41211C32.7064 4.49023 32.9212 4.58789 33.0254 4.70508C33.1947 4.88737 33.3314 5.16081 33.4355 5.52539C33.5397 5.88997 33.6178 6.2806 33.6699 6.69727C33.735 7.10091 33.7741 7.50456 33.7871 7.9082C33.8132 8.29883 33.8262 8.61784 33.8262 8.86523ZM29.6855 9.27539C29.6855 9.11914 29.679 8.93685 29.666 8.72852C29.653 8.52018 29.6335 8.31185 29.6074 8.10352C29.5814 7.88216 29.5423 7.67383 29.4902 7.47852C29.4382 7.27018 29.373 7.10091 29.2949 6.9707C29.1908 6.80143 28.9889 6.67122 28.6895 6.58008C28.39 6.48893 28.0579 6.42383 27.6934 6.38477C27.3418 6.33268 26.9902 6.30013 26.6387 6.28711C26.3001 6.27409 26.0462 6.26758 25.877 6.26758C25.7858 6.26758 25.623 6.27409 25.3887 6.28711C25.1543 6.28711 24.9069 6.29362 24.6465 6.30664C24.3991 6.31966 24.1647 6.3457 23.9434 6.38477C23.722 6.41081 23.5788 6.44336 23.5137 6.48242C23.3965 6.56055 23.3053 6.68424 23.2402 6.85352C23.1751 7.00977 23.123 7.18555 23.084 7.38086C23.0579 7.57617 23.0384 7.77148 23.0254 7.9668C23.0254 8.14909 23.0254 8.29883 23.0254 8.41602C23.0254 8.5332 23.0319 8.74805 23.0449 9.06055C23.071 9.36003 23.097 9.68555 23.123 10.0371C23.1621 10.3757 23.2077 10.6882 23.2598 10.9746C23.3118 11.2611 23.377 11.4434 23.4551 11.5215C23.5462 11.6257 23.7155 11.7103 23.9629 11.7754C24.2233 11.8405 24.4967 11.8991 24.7832 11.9512C25.0827 11.9902 25.3691 12.0228 25.6426 12.0488C25.916 12.0618 26.1113 12.0684 26.2285 12.0684C26.4368 12.0684 26.6842 12.0618 26.9707 12.0488C27.2572 12.0358 27.5436 12.0033 27.8301 11.9512C28.1296 11.8991 28.4095 11.8275 28.6699 11.7363C28.9303 11.6452 29.1387 11.5215 29.2949 11.3652C29.3861 11.2741 29.4577 11.1374 29.5098 10.9551C29.5618 10.7728 29.6009 10.5775 29.627 10.3691C29.653 10.1608 29.666 9.95898 29.666 9.76367C29.679 9.55534 29.6855 9.39258 29.6855 9.27539Z" fill="#FAE94F" style="fill:#FAE94F;fill:color(display-p3 0.9804 0.9137 0.3098);fill-opacity:1;"/>
<path d="M50.1543 8.86523C50.1543 8.9694 50.1543 9.07357 50.1543 9.17773C50.1543 9.26888 50.1478 9.36654 50.1348 9.4707C50.1217 9.653 50.0892 9.95247 50.0371 10.3691C49.985 10.7858 49.9134 11.222 49.8223 11.6777C49.7311 12.1204 49.6204 12.5306 49.4902 12.9082C49.36 13.2858 49.2168 13.5267 49.0605 13.6309C48.9824 13.6829 48.7155 13.7285 48.2598 13.7676C47.8171 13.8066 47.2702 13.8457 46.6191 13.8848C45.9811 13.9238 45.2845 13.9564 44.5293 13.9824C43.7741 14.0085 43.0514 14.0345 42.3613 14.0605C41.6842 14.0736 41.0853 14.0866 40.5645 14.0996C40.0566 14.1126 39.7181 14.1191 39.5488 14.1191C39.4707 14.1191 39.334 14.1191 39.1387 14.1191C38.9564 14.1191 38.7611 14.1191 38.5527 14.1191C38.3444 14.1061 38.1491 14.0931 37.9668 14.0801C37.7845 14.0671 37.6543 14.0475 37.5762 14.0215C37.3939 13.9564 37.2116 13.8522 37.0293 13.709C36.847 13.5527 36.6777 13.3835 36.5215 13.2012C36.3652 13.0059 36.222 12.8105 36.0918 12.6152C35.9746 12.4069 35.89 12.2116 35.8379 12.0293C35.7988 11.8861 35.7663 11.6712 35.7402 11.3848C35.7142 11.0853 35.6947 10.7793 35.6816 10.4668C35.6686 10.1413 35.6556 9.82878 35.6426 9.5293C35.6426 9.22982 35.6426 9.00195 35.6426 8.8457C35.6426 8.59831 35.6491 8.25977 35.6621 7.83008C35.6751 7.38737 35.7142 6.93815 35.7793 6.48242C35.8444 6.02669 35.9355 5.60352 36.0527 5.21289C36.1829 4.80924 36.3652 4.5293 36.5996 4.37305C36.7038 4.30794 36.8991 4.24935 37.1855 4.19727C37.472 4.14518 37.8105 4.09961 38.2012 4.06055C38.5918 4.02148 39.0085 3.99544 39.4512 3.98242C39.8939 3.95638 40.3236 3.94336 40.7402 3.94336C41.1699 3.93034 41.5671 3.92383 41.9316 3.92383C42.2962 3.92383 42.5892 3.93034 42.8105 3.94336C43.0059 3.95638 43.2858 3.9694 43.6504 3.98242C44.015 3.98242 44.4186 3.98893 44.8613 4.00195C45.3171 4.01497 45.7858 4.04102 46.2676 4.08008C46.7493 4.10612 47.1986 4.14518 47.6152 4.19727C48.0319 4.24935 48.3965 4.32096 48.709 4.41211C49.0345 4.49023 49.2493 4.58789 49.3535 4.70508C49.5228 4.88737 49.6595 5.16081 49.7637 5.52539C49.8678 5.88997 49.946 6.2806 49.998 6.69727C50.0632 7.10091 50.1022 7.50456 50.1152 7.9082C50.1413 8.29883 50.1543 8.61784 50.1543 8.86523ZM46.0137 9.27539C46.0137 9.11914 46.0072 8.93685 45.9941 8.72852C45.9811 8.52018 45.9616 8.31185 45.9355 8.10352C45.9095 7.88216 45.8704 7.67383 45.8184 7.47852C45.7663 7.27018 45.7012 7.10091 45.623 6.9707C45.5189 6.80143 45.3171 6.67122 45.0176 6.58008C44.7181 6.48893 44.3861 6.42383 44.0215 6.38477C43.6699 6.33268 43.3184 6.30013 42.9668 6.28711C42.6283 6.27409 42.3743 6.26758 42.2051 6.26758C42.1139 6.26758 41.9512 6.27409 41.7168 6.28711C41.4824 6.28711 41.235 6.29362 40.9746 6.30664C40.7272 6.31966 40.4928 6.3457 40.2715 6.38477C40.0501 6.41081 39.9069 6.44336 39.8418 6.48242C39.7246 6.56055 39.6335 6.68424 39.5684 6.85352C39.5033 7.00977 39.4512 7.18555 39.4121 7.38086C39.3861 7.57617 39.3665 7.77148 39.3535 7.9668C39.3535 8.14909 39.3535 8.29883 39.3535 8.41602C39.3535 8.5332 39.36 8.74805 39.373 9.06055C39.3991 9.36003 39.4251 9.68555 39.4512 10.0371C39.4902 10.3757 39.5358 10.6882 39.5879 10.9746C39.64 11.2611 39.7051 11.4434 39.7832 11.5215C39.8743 11.6257 40.0436 11.7103 40.291 11.7754C40.5514 11.8405 40.8249 11.8991 41.1113 11.9512C41.4108 11.9902 41.6973 12.0228 41.9707 12.0488C42.2441 12.0618 42.4395 12.0684 42.5566 12.0684C42.765 12.0684 43.0124 12.0618 43.2988 12.0488C43.5853 12.0358 43.8717 12.0033 44.1582 11.9512C44.4577 11.8991 44.7376 11.8275 44.998 11.7363C45.2585 11.6452 45.4668 11.5215 45.623 11.3652C45.7142 11.2741 45.7858 11.1374 45.8379 10.9551C45.89 10.7728 45.929 10.5775 45.9551 10.3691C45.9811 10.1608 45.9941 9.95898 45.9941 9.76367C46.0072 9.55534 46.0137 9.39258 46.0137 9.27539Z" fill="#FAE94F" style="fill:#FAE94F;fill:color(display-p3 0.9804 0.9137 0.3098);fill-opacity:1;"/>
<path d="M63.5723 10.7988C63.5723 11.1504 63.5723 11.5085 63.5723 11.873C63.5723 12.2246 63.5592 12.5762 63.5332 12.9277L59.1777 13.2012C59.2298 12.5241 59.2689 11.8535 59.2949 11.1895C59.334 10.5254 59.3535 9.84831 59.3535 9.1582C59.3535 9.0931 59.3535 8.98242 59.3535 8.82617C59.3535 8.66992 59.347 8.50716 59.334 8.33789C59.321 8.1556 59.3079 7.98633 59.2949 7.83008C59.2819 7.67383 59.2689 7.56315 59.2559 7.49805C59.1908 7.31576 59.1191 7.15951 59.041 7.0293C58.9759 6.89909 58.8913 6.79492 58.7871 6.7168C58.696 6.63867 58.5788 6.58659 58.4355 6.56055C58.2923 6.52148 58.1165 6.50195 57.9082 6.50195C57.752 6.50195 57.5501 6.51497 57.3027 6.54102C57.0684 6.56706 56.8275 6.60612 56.5801 6.6582C56.3327 6.71029 56.0983 6.77539 55.877 6.85352C55.6556 6.93164 55.4993 7.02279 55.4082 7.12695L55.3691 12.8887C55.3431 12.8366 55.265 12.8105 55.1348 12.8105C55.0176 12.8105 54.9329 12.8105 54.8809 12.8105C54.4902 12.8105 54.0866 12.8301 53.6699 12.8691C53.2533 12.8952 52.8496 12.9342 52.459 12.9863C52.2897 11.4499 52.14 9.91992 52.0098 8.39648C51.8796 6.87305 51.7298 5.3431 51.5605 3.80664C51.821 3.79362 52.0814 3.78711 52.3418 3.78711C52.6022 3.77409 52.8626 3.76758 53.123 3.76758C53.4616 3.76758 53.8001 3.7806 54.1387 3.80664C54.4902 3.81966 54.8353 3.83268 55.1738 3.8457L55.3105 5.34961C55.6751 4.75065 56.1699 4.24935 56.7949 3.8457C57.4199 3.44206 58.0905 3.24023 58.8066 3.24023C59.1712 3.24023 59.5488 3.25977 59.9395 3.29883C60.3301 3.33789 60.7012 3.41602 61.0527 3.5332C61.4173 3.65039 61.7559 3.81315 62.0684 4.02148C62.3939 4.22982 62.6673 4.49674 62.8887 4.82227C62.9928 4.97852 63.0775 5.21289 63.1426 5.52539C63.2207 5.82487 63.2858 6.16992 63.3379 6.56055C63.39 6.93815 63.429 7.3418 63.4551 7.77148C63.4941 8.20117 63.5202 8.61133 63.5332 9.00195C63.5462 9.39258 63.5527 9.75065 63.5527 10.0762C63.5658 10.3887 63.5723 10.6296 63.5723 10.7988Z" fill="#FAE94F" style="fill:#FAE94F;fill:color(display-p3 0.9804 0.9137 0.3098);fill-opacity:1;"/>
<path d="M78.9434 9.35352C77.2376 9.44466 75.5384 9.52279 73.8457 9.58789C72.153 9.63997 70.4538 9.69857 68.748 9.76367C68.735 9.81575 68.7285 9.86784 68.7285 9.91992C68.7285 9.972 68.7285 10.0241 68.7285 10.0762C68.7285 10.5189 68.8262 10.8574 69.0215 11.0918C69.2298 11.3262 69.4837 11.4954 69.7832 11.5996C70.0827 11.6908 70.4147 11.7428 70.7793 11.7559C71.1439 11.7689 71.4824 11.7754 71.7949 11.7754C72.6673 11.7754 73.5397 11.7493 74.4121 11.6973C75.2845 11.6322 76.1634 11.5671 77.0488 11.502L77.2051 14.6074C76.3457 14.6465 75.4863 14.679 74.627 14.7051C73.7806 14.7311 72.9277 14.7441 72.0684 14.7441C71.8861 14.7441 71.5475 14.7441 71.0527 14.7441C70.571 14.7311 70.0501 14.7116 69.4902 14.6855C68.9434 14.6465 68.429 14.6009 67.9473 14.5488C67.4655 14.4967 67.1465 14.4251 66.9902 14.334C66.5866 14.0996 66.2676 13.8001 66.0332 13.4355C65.8119 13.071 65.6361 12.6738 65.5059 12.2441C65.3887 11.8145 65.304 11.3783 65.252 10.9355C65.2129 10.4798 65.1869 10.0436 65.1738 9.62695C65.1608 9.56185 65.1543 9.49674 65.1543 9.43164C65.1673 9.35352 65.1738 9.2819 65.1738 9.2168C65.1738 8.52669 65.2454 7.88867 65.3887 7.30273C65.5449 6.70378 65.8249 6.12435 66.2285 5.56445C66.502 5.17383 66.9056 4.84831 67.4395 4.58789C67.9733 4.32747 68.5527 4.12565 69.1777 3.98242C69.8027 3.82617 70.4277 3.72201 71.0527 3.66992C71.6777 3.60482 72.2181 3.57227 72.6738 3.57227C73.0775 3.57227 73.5723 3.61133 74.1582 3.68945C74.7441 3.75456 75.3236 3.87174 75.8965 4.04102C76.4824 4.21029 77.0098 4.43164 77.4785 4.70508C77.9473 4.96549 78.2663 5.29102 78.4355 5.68164C78.4616 5.75977 78.4876 5.89648 78.5137 6.0918C78.5527 6.27409 78.5918 6.48893 78.6309 6.73633C78.6699 6.9707 78.7025 7.22461 78.7285 7.49805C78.7676 7.77148 78.8001 8.0319 78.8262 8.2793C78.8522 8.52669 78.8717 8.74805 78.8848 8.94336C78.9108 9.13867 78.9303 9.27539 78.9434 9.35352ZM76.2871 7.92773C76.209 7.35482 76.0592 6.9056 75.8379 6.58008C75.6296 6.24154 75.3626 5.99414 75.0371 5.83789C74.7246 5.66862 74.36 5.56445 73.9434 5.52539C73.5397 5.47331 73.1035 5.44727 72.6348 5.44727C72.4785 5.44727 72.2832 5.45378 72.0488 5.4668C71.8145 5.4668 71.5801 5.48633 71.3457 5.52539C71.1113 5.55143 70.89 5.59701 70.6816 5.66211C70.4733 5.72721 70.3105 5.81836 70.1934 5.93555C70.1022 6.01367 70.0241 6.12435 69.959 6.26758C69.9069 6.39779 69.8613 6.54102 69.8223 6.69727C69.7832 6.85352 69.7506 7.00977 69.7246 7.16602C69.7116 7.30924 69.7051 7.43294 69.7051 7.53711C69.7051 7.74544 69.7246 7.94727 69.7637 8.14258L76.2871 7.92773Z" fill="#FAE94F" style="fill:#FAE94F;fill:color(display-p3 0.9804 0.9137 0.3098);fill-opacity:1;"/>
<path d="M91.7559 8.35742V8.80664L87.9863 8.98242C88.0254 8.81315 88.0449 8.61784 88.0449 8.39648C88.0449 8.07096 87.9994 7.86263 87.9082 7.77148C87.8171 7.66732 87.6152 7.61523 87.3027 7.61523C86.86 7.61523 86.3717 7.69336 85.8379 7.84961C85.304 8.00586 84.8353 8.1556 84.4316 8.29883C84.3665 8.87174 84.3145 9.44466 84.2754 10.0176C84.2363 10.5905 84.2168 11.1634 84.2168 11.7363C84.2168 12.3743 84.2168 13.0124 84.2168 13.6504C84.2298 14.2754 84.2428 14.9069 84.2559 15.5449L80.8965 15.7598C80.8314 14.9264 80.7663 14.0996 80.7012 13.2793C80.6361 12.446 80.5775 11.6126 80.5254 10.7793C80.4603 9.67253 80.3756 8.57227 80.2715 7.47852C80.1673 6.37174 80.0631 5.25846 79.959 4.13867C80.7012 4.19076 81.4369 4.26888 82.166 4.37305C82.9082 4.46419 83.6504 4.58138 84.3926 4.72461L84.2949 6.36523C84.6855 6.05273 85.0566 5.78581 85.4082 5.56445C85.7728 5.33008 86.1374 5.13477 86.502 4.97852C86.8796 4.82227 87.2767 4.71159 87.6934 4.64648C88.11 4.56836 88.5723 4.5293 89.0801 4.5293C89.4186 4.5293 89.7702 4.56836 90.1348 4.64648C90.4994 4.71159 90.8119 4.87435 91.0723 5.13477C91.2025 5.27799 91.3131 5.49284 91.4043 5.7793C91.4954 6.06576 91.5671 6.37174 91.6191 6.69727C91.6712 7.00977 91.7038 7.32227 91.7168 7.63477C91.7428 7.93424 91.7559 8.17513 91.7559 8.35742Z" fill="#FAE94F" style="fill:#FAE94F;fill:color(display-p3 0.9804 0.9137 0.3098);fill-opacity:1;"/>
<path d="M110.24 16.082C109.993 16.069 109.752 16.0495 109.518 16.0234C109.322 15.9974 109.127 15.9779 108.932 15.9648C108.749 15.9518 108.613 15.9453 108.521 15.9453C108.014 15.9453 107.506 15.9518 106.998 15.9648C106.49 15.9909 105.989 16.0299 105.494 16.082C105.507 15.5352 105.514 15.0013 105.514 14.4805C105.527 13.9466 105.533 13.4062 105.533 12.8594C105.533 11.8828 105.514 10.9128 105.475 9.94922C105.449 8.98568 105.423 8.02214 105.396 7.05859L101.295 16.3359C100.696 14.7083 100.051 13.1133 99.3613 11.5508C98.6842 9.97526 97.9746 8.40625 97.2324 6.84375L97.5449 16.4922C97.4017 16.4922 97.252 16.4857 97.0957 16.4727C96.9525 16.4727 96.8027 16.4727 96.6465 16.4727C96.1517 16.4727 95.6634 16.4922 95.1816 16.5312C94.7129 16.5703 94.2376 16.6094 93.7559 16.6484C93.821 15.4375 93.8861 14.2331 93.9512 13.0352C94.0163 11.8372 94.0488 10.6328 94.0488 9.42188C94.0488 8.0026 94.0358 6.58984 94.0098 5.18359C93.9967 3.77734 93.9837 2.36458 93.9707 0.945312C94.9082 0.945312 95.8197 0.919271 96.7051 0.867188C97.6035 0.815104 98.5215 0.74349 99.459 0.652344C99.7715 1.69401 100.09 2.72917 100.416 3.75781C100.755 4.77344 101.113 5.78906 101.49 6.80469C101.894 5.84115 102.35 4.89714 102.857 3.97266C103.378 3.04818 103.906 2.13021 104.439 1.21875C105.325 1.19271 106.197 1.16667 107.057 1.14062C107.929 1.11458 108.808 1.09505 109.693 1.08203C109.732 2.25391 109.778 3.41276 109.83 4.55859C109.895 5.70443 109.954 6.86328 110.006 8.03516C110.045 8.95964 110.077 9.88411 110.104 10.8086C110.143 11.7331 110.175 12.651 110.201 13.5625L110.24 15.2031V16.082Z" fill="#FC79C9" style="fill:#FC79C9;fill:color(display-p3 0.9882 0.4745 0.7882);fill-opacity:1;"/>
<path d="M127.057 8.01562C127.057 8.11979 127.057 8.22396 127.057 8.32812C127.057 8.41927 127.05 8.51693 127.037 8.62109C127.024 8.80339 126.992 9.10286 126.939 9.51953C126.887 9.9362 126.816 10.3724 126.725 10.8281C126.633 11.2708 126.523 11.681 126.393 12.0586C126.262 12.4362 126.119 12.6771 125.963 12.7812C125.885 12.8333 125.618 12.8789 125.162 12.918C124.719 12.957 124.173 12.9961 123.521 13.0352C122.883 13.0742 122.187 13.1068 121.432 13.1328C120.676 13.1589 119.954 13.1849 119.264 13.2109C118.587 13.224 117.988 13.237 117.467 13.25C116.959 13.263 116.62 13.2695 116.451 13.2695C116.373 13.2695 116.236 13.2695 116.041 13.2695C115.859 13.2695 115.663 13.2695 115.455 13.2695C115.247 13.2565 115.051 13.2435 114.869 13.2305C114.687 13.2174 114.557 13.1979 114.479 13.1719C114.296 13.1068 114.114 13.0026 113.932 12.8594C113.749 12.7031 113.58 12.5339 113.424 12.3516C113.268 12.1562 113.124 11.9609 112.994 11.7656C112.877 11.5573 112.792 11.362 112.74 11.1797C112.701 11.0365 112.669 10.8216 112.643 10.5352C112.617 10.2357 112.597 9.92969 112.584 9.61719C112.571 9.29167 112.558 8.97917 112.545 8.67969C112.545 8.38021 112.545 8.15234 112.545 7.99609C112.545 7.7487 112.551 7.41016 112.564 6.98047C112.577 6.53776 112.617 6.08854 112.682 5.63281C112.747 5.17708 112.838 4.75391 112.955 4.36328C113.085 3.95964 113.268 3.67969 113.502 3.52344C113.606 3.45833 113.801 3.39974 114.088 3.34766C114.374 3.29557 114.713 3.25 115.104 3.21094C115.494 3.17188 115.911 3.14583 116.354 3.13281C116.796 3.10677 117.226 3.09375 117.643 3.09375C118.072 3.08073 118.469 3.07422 118.834 3.07422C119.199 3.07422 119.492 3.08073 119.713 3.09375C119.908 3.10677 120.188 3.11979 120.553 3.13281C120.917 3.13281 121.321 3.13932 121.764 3.15234C122.219 3.16536 122.688 3.19141 123.17 3.23047C123.652 3.25651 124.101 3.29557 124.518 3.34766C124.934 3.39974 125.299 3.47135 125.611 3.5625C125.937 3.64062 126.152 3.73828 126.256 3.85547C126.425 4.03776 126.562 4.3112 126.666 4.67578C126.77 5.04036 126.848 5.43099 126.9 5.84766C126.965 6.2513 127.005 6.65495 127.018 7.05859C127.044 7.44922 127.057 7.76823 127.057 8.01562ZM122.916 8.42578C122.916 8.26953 122.91 8.08724 122.896 7.87891C122.883 7.67057 122.864 7.46224 122.838 7.25391C122.812 7.03255 122.773 6.82422 122.721 6.62891C122.669 6.42057 122.604 6.2513 122.525 6.12109C122.421 5.95182 122.219 5.82161 121.92 5.73047C121.62 5.63932 121.288 5.57422 120.924 5.53516C120.572 5.48307 120.221 5.45052 119.869 5.4375C119.531 5.42448 119.277 5.41797 119.107 5.41797C119.016 5.41797 118.854 5.42448 118.619 5.4375C118.385 5.4375 118.137 5.44401 117.877 5.45703C117.63 5.47005 117.395 5.49609 117.174 5.53516C116.952 5.5612 116.809 5.59375 116.744 5.63281C116.627 5.71094 116.536 5.83464 116.471 6.00391C116.406 6.16016 116.354 6.33594 116.314 6.53125C116.288 6.72656 116.269 6.92188 116.256 7.11719C116.256 7.29948 116.256 7.44922 116.256 7.56641C116.256 7.68359 116.262 7.89844 116.275 8.21094C116.301 8.51042 116.327 8.83594 116.354 9.1875C116.393 9.52604 116.438 9.83854 116.49 10.125C116.542 10.4115 116.607 10.5938 116.686 10.6719C116.777 10.776 116.946 10.8607 117.193 10.9258C117.454 10.9909 117.727 11.0495 118.014 11.1016C118.313 11.1406 118.6 11.1732 118.873 11.1992C119.146 11.2122 119.342 11.2188 119.459 11.2188C119.667 11.2188 119.915 11.2122 120.201 11.1992C120.488 11.1862 120.774 11.1536 121.061 11.1016C121.36 11.0495 121.64 10.9779 121.9 10.8867C122.161 10.7956 122.369 10.6719 122.525 10.5156C122.617 10.4245 122.688 10.2878 122.74 10.1055C122.792 9.92318 122.831 9.72786 122.857 9.51953C122.883 9.3112 122.896 9.10938 122.896 8.91406C122.91 8.70573 122.916 8.54297 122.916 8.42578Z" fill="#FC79C9" style="fill:#FC79C9;fill:color(display-p3 0.9882 0.4745 0.7882);fill-opacity:1;"/>
<path d="M140.475 9.94922C140.475 10.3008 140.475 10.6589 140.475 11.0234C140.475 11.375 140.462 11.7266 140.436 12.0781L136.08 12.3516C136.132 11.6745 136.171 11.0039 136.197 10.3398C136.236 9.67578 136.256 8.9987 136.256 8.30859C136.256 8.24349 136.256 8.13281 136.256 7.97656C136.256 7.82031 136.249 7.65755 136.236 7.48828C136.223 7.30599 136.21 7.13672 136.197 6.98047C136.184 6.82422 136.171 6.71354 136.158 6.64844C136.093 6.46615 136.021 6.3099 135.943 6.17969C135.878 6.04948 135.794 5.94531 135.689 5.86719C135.598 5.78906 135.481 5.73698 135.338 5.71094C135.195 5.67188 135.019 5.65234 134.811 5.65234C134.654 5.65234 134.452 5.66536 134.205 5.69141C133.971 5.71745 133.73 5.75651 133.482 5.80859C133.235 5.86068 133.001 5.92578 132.779 6.00391C132.558 6.08203 132.402 6.17318 132.311 6.27734L132.271 12.0391C132.245 11.987 132.167 11.9609 132.037 11.9609C131.92 11.9609 131.835 11.9609 131.783 11.9609C131.393 11.9609 130.989 11.9805 130.572 12.0195C130.156 12.0456 129.752 12.0846 129.361 12.1367C129.192 10.6003 129.042 9.07031 128.912 7.54688C128.782 6.02344 128.632 4.49349 128.463 2.95703C128.723 2.94401 128.984 2.9375 129.244 2.9375C129.505 2.92448 129.765 2.91797 130.025 2.91797C130.364 2.91797 130.702 2.93099 131.041 2.95703C131.393 2.97005 131.738 2.98307 132.076 2.99609L132.213 4.5C132.577 3.90104 133.072 3.39974 133.697 2.99609C134.322 2.59245 134.993 2.39062 135.709 2.39062C136.074 2.39062 136.451 2.41016 136.842 2.44922C137.232 2.48828 137.604 2.56641 137.955 2.68359C138.32 2.80078 138.658 2.96354 138.971 3.17188C139.296 3.38021 139.57 3.64714 139.791 3.97266C139.895 4.12891 139.98 4.36328 140.045 4.67578C140.123 4.97526 140.188 5.32031 140.24 5.71094C140.292 6.08854 140.331 6.49219 140.357 6.92188C140.396 7.35156 140.423 7.76172 140.436 8.15234C140.449 8.54297 140.455 8.90104 140.455 9.22656C140.468 9.53906 140.475 9.77995 140.475 9.94922Z" fill="#FC79C9" style="fill:#FC79C9;fill:color(display-p3 0.9882 0.4745 0.7882);fill-opacity:1;"/>
<path d="M155.846 8.50391C154.14 8.59505 152.441 8.67318 150.748 8.73828C149.055 8.79036 147.356 8.84896 145.65 8.91406C145.637 8.96615 145.631 9.01823 145.631 9.07031C145.631 9.1224 145.631 9.17448 145.631 9.22656C145.631 9.66927 145.729 10.0078 145.924 10.2422C146.132 10.4766 146.386 10.6458 146.686 10.75C146.985 10.8411 147.317 10.8932 147.682 10.9062C148.046 10.9193 148.385 10.9258 148.697 10.9258C149.57 10.9258 150.442 10.8997 151.314 10.8477C152.187 10.7826 153.066 10.7174 153.951 10.6523L154.107 13.7578C153.248 13.7969 152.389 13.8294 151.529 13.8555C150.683 13.8815 149.83 13.8945 148.971 13.8945C148.788 13.8945 148.45 13.8945 147.955 13.8945C147.473 13.8815 146.952 13.862 146.393 13.8359C145.846 13.7969 145.331 13.7513 144.85 13.6992C144.368 13.6471 144.049 13.5755 143.893 13.4844C143.489 13.25 143.17 12.9505 142.936 12.5859C142.714 12.2214 142.538 11.8242 142.408 11.3945C142.291 10.9648 142.206 10.5286 142.154 10.0859C142.115 9.63021 142.089 9.19401 142.076 8.77734C142.063 8.71224 142.057 8.64714 142.057 8.58203C142.07 8.50391 142.076 8.43229 142.076 8.36719C142.076 7.67708 142.148 7.03906 142.291 6.45312C142.447 5.85417 142.727 5.27474 143.131 4.71484C143.404 4.32422 143.808 3.9987 144.342 3.73828C144.876 3.47786 145.455 3.27604 146.08 3.13281C146.705 2.97656 147.33 2.8724 147.955 2.82031C148.58 2.75521 149.12 2.72266 149.576 2.72266C149.98 2.72266 150.475 2.76172 151.061 2.83984C151.646 2.90495 152.226 3.02214 152.799 3.19141C153.385 3.36068 153.912 3.58203 154.381 3.85547C154.85 4.11589 155.169 4.44141 155.338 4.83203C155.364 4.91016 155.39 5.04688 155.416 5.24219C155.455 5.42448 155.494 5.63932 155.533 5.88672C155.572 6.12109 155.605 6.375 155.631 6.64844C155.67 6.92188 155.702 7.18229 155.729 7.42969C155.755 7.67708 155.774 7.89844 155.787 8.09375C155.813 8.28906 155.833 8.42578 155.846 8.50391ZM153.189 7.07812C153.111 6.50521 152.962 6.05599 152.74 5.73047C152.532 5.39193 152.265 5.14453 151.939 4.98828C151.627 4.81901 151.262 4.71484 150.846 4.67578C150.442 4.6237 150.006 4.59766 149.537 4.59766C149.381 4.59766 149.186 4.60417 148.951 4.61719C148.717 4.61719 148.482 4.63672 148.248 4.67578C148.014 4.70182 147.792 4.7474 147.584 4.8125C147.376 4.8776 147.213 4.96875 147.096 5.08594C147.005 5.16406 146.926 5.27474 146.861 5.41797C146.809 5.54818 146.764 5.69141 146.725 5.84766C146.686 6.00391 146.653 6.16016 146.627 6.31641C146.614 6.45964 146.607 6.58333 146.607 6.6875C146.607 6.89583 146.627 7.09766 146.666 7.29297L153.189 7.07812Z" fill="#FC79C9" style="fill:#FC79C9;fill:color(display-p3 0.9882 0.4745 0.7882);fill-opacity:1;"/>
<path d="M170.729 11.9023C170.729 12.0456 170.729 12.2539 170.729 12.5273C170.729 12.8008 170.722 13.1133 170.709 13.4648C170.696 13.8034 170.676 14.1615 170.65 14.5391C170.637 14.9036 170.618 15.2552 170.592 15.5938C170.566 15.9193 170.527 16.2057 170.475 16.4531C170.436 16.7135 170.39 16.8958 170.338 17C170.117 17.3516 169.908 17.6185 169.713 17.8008C169.531 17.9961 169.329 18.1328 169.107 18.2109C168.886 18.2891 168.632 18.3281 168.346 18.3281C168.072 18.3411 167.747 18.3477 167.369 18.3477C166.119 18.3477 164.876 18.2956 163.639 18.1914C162.402 18.1003 161.165 17.9896 159.928 17.8594V15.1836C160.045 15.1836 160.299 15.1836 160.689 15.1836C161.093 15.1706 161.562 15.1576 162.096 15.1445C162.63 15.1315 163.196 15.112 163.795 15.0859C164.394 15.0599 164.954 15.0273 165.475 14.9883C165.995 14.9492 166.445 14.9036 166.822 14.8516C167.2 14.7995 167.434 14.7344 167.525 14.6562C167.643 14.5651 167.734 14.4284 167.799 14.2461C167.877 14.0508 167.929 13.849 167.955 13.6406C167.994 13.4323 168.02 13.224 168.033 13.0156C168.046 12.8073 168.053 12.638 168.053 12.5078C168.053 12.3776 168.053 12.2539 168.053 12.1367C168.053 12.0195 168.046 11.8893 168.033 11.7461C167.838 12.1888 167.577 12.5208 167.252 12.7422C166.926 12.9635 166.562 13.1198 166.158 13.2109C165.755 13.3021 165.331 13.3542 164.889 13.3672C164.446 13.3672 164.023 13.3672 163.619 13.3672C162.773 13.3672 161.952 13.3346 161.158 13.2695C160.377 13.1914 159.68 13.0026 159.068 12.7031C158.469 12.4036 157.981 11.9544 157.604 11.3555C157.239 10.7435 157.057 9.90365 157.057 8.83594C157.057 7.78125 157.128 6.73307 157.271 5.69141C157.415 4.63672 157.597 3.59505 157.818 2.56641L161.939 2.60547C161.718 3.42578 161.523 4.25911 161.354 5.10547C161.184 5.95182 161.1 6.80469 161.1 7.66406C161.1 8.11979 161.132 8.49089 161.197 8.77734C161.262 9.0638 161.38 9.29818 161.549 9.48047C161.718 9.64974 161.952 9.76693 162.252 9.83203C162.551 9.89714 162.929 9.92969 163.385 9.92969C163.567 9.92969 163.788 9.91667 164.049 9.89062C164.322 9.86458 164.596 9.83203 164.869 9.79297C165.156 9.74089 165.423 9.67578 165.67 9.59766C165.93 9.51953 166.132 9.42188 166.275 9.30469C166.327 9.26562 166.373 9.13542 166.412 8.91406C166.451 8.69271 166.484 8.43229 166.51 8.13281C166.536 7.82031 166.555 7.48828 166.568 7.13672C166.581 6.78516 166.588 6.45312 166.588 6.14062C166.601 5.82812 166.607 5.5612 166.607 5.33984C166.607 5.10547 166.607 4.95573 166.607 4.89062C166.607 4.44792 166.607 4.01172 166.607 3.58203C166.607 3.13932 166.594 2.69661 166.568 2.25391C167.206 2.31901 167.831 2.3776 168.443 2.42969C169.068 2.46875 169.7 2.5013 170.338 2.52734C170.39 3.79036 170.442 5.04036 170.494 6.27734C170.559 7.51432 170.624 8.76432 170.689 10.0273C170.715 10.3398 170.729 10.6589 170.729 10.9844C170.729 11.2969 170.729 11.6029 170.729 11.9023Z" fill="#FC79C9" style="fill:#FC79C9;fill:color(display-p3 0.9882 0.4745 0.7882);fill-opacity:1;"/>
</svg>
