<svg width="14" height="14" viewBox="0 0 14 14" fill="none" xmlns="http://www.w3.org/2000/svg">
<rect width="14" height="14" rx="7" fill="white" style="fill:white;fill-opacity:1;"/>
<path d="M10.2618 5.03375H9.21073C9.08827 5.03375 8.97176 4.9814 8.89069 4.89027L8.46431 4.41045C8.40085 4.33883 8.30937 4.29809 8.21368 4.29809C8.11799 4.29809 8.02652 4.33908 7.96306 4.41045L7.59741 4.82212C7.47767 4.9567 7.30588 5.034 7.12541 5.034H1.37194C1.20808 5.49925 1.10123 5.99069 1.05859 6.50039H6.49005C6.58549 6.50039 6.67696 6.46162 6.7429 6.39297L7.24861 5.86721C7.31183 5.80152 7.39909 5.76448 7.49032 5.76448H7.51114C7.60708 5.76448 7.6983 5.80547 7.76176 5.87709L8.1879 6.35691C8.26896 6.44828 8.38548 6.50039 8.50794 6.50039H12.9414C12.8987 5.99044 12.7919 5.49901 12.628 5.034H10.2616L10.2618 5.03375Z" fill="#111111" style="fill:#111111;fill:color(display-p3 0.0667 0.0667 0.0667);fill-opacity:1;"/>
<path d="M4.34523 9.58406C4.44067 9.58406 4.53215 9.54529 4.59809 9.47664L5.1038 8.95088C5.16701 8.88519 5.25427 8.84815 5.3455 8.84815H5.36632C5.46226 8.84815 5.55349 8.88914 5.61695 8.96051L6.04309 9.44034C6.12415 9.53171 6.24066 9.58381 6.36312 9.58381H12.3712C12.5963 9.12054 12.7611 8.62342 12.8593 8.10261H7.09244C6.96998 8.10261 6.85347 8.05025 6.7724 7.95913L6.34627 7.4793C6.2828 7.40769 6.19133 7.36694 6.09564 7.36694C5.99995 7.36694 5.90848 7.40793 5.84502 7.4793L5.47937 7.89097C5.35963 8.02556 5.18784 8.10285 5.00712 8.10285H1.1404C1.23857 8.62367 1.40367 9.12078 1.62851 9.58406H4.34523Z" fill="#111111" style="fill:#111111;fill:color(display-p3 0.0667 0.0667 0.0667);fill-opacity:1;"/>
<path d="M8.60759 3.43129C8.70303 3.43129 8.79451 3.39252 8.86045 3.32387L9.36616 2.79811C9.42937 2.73242 9.51663 2.69538 9.60786 2.69538H9.62868C9.72462 2.69538 9.81585 2.73637 9.87931 2.80799L10.3054 3.28782C10.3865 3.37919 10.503 3.43129 10.6255 3.43129H11.768C10.68 1.99058 8.94944 1.05859 6.99997 1.05859C5.0505 1.05859 3.31992 1.99058 2.23189 3.43129H8.60759Z" fill="#111111" style="fill:#111111;fill:color(display-p3 0.0667 0.0667 0.0667);fill-opacity:1;"/>
<path d="M6.31279 11.0519H4.75029C4.62783 11.0519 4.51132 10.9996 4.43025 10.9085L4.00412 10.4286C3.94066 10.357 3.84918 10.3163 3.75349 10.3163C3.6578 10.3163 3.56633 10.3573 3.50287 10.4286L3.13722 10.8403C3.01748 10.9749 2.84569 11.0522 2.66497 11.0522H2.64068C3.7292 12.2141 5.27931 12.9414 7.00046 12.9414C8.72162 12.9414 10.2715 12.2141 11.3603 11.0522H6.31279V11.0519Z" fill="#111111" style="fill:#111111;fill:color(display-p3 0.0667 0.0667 0.0667);fill-opacity:1;"/>
</svg>
