<svg width="41" height="31" viewBox="0 0 41 31" fill="none" xmlns="http://www.w3.org/2000/svg">
<path d="M0 4.22803C0 2.01889 1.79086 0.228027 4 0.228027H36.656C38.8651 0.228027 40.656 2.01889 40.656 4.22803V26.7718C40.656 28.9809 38.8651 30.7718 36.656 30.7718H4C1.79086 30.7718 0 28.9809 0 26.7718V4.22803Z" fill="#FC79C9" style="fill:#FC79C9;fill:color(display-p3 0.9882 0.4745 0.7882);fill-opacity:1;"/>
<path d="M18.9579 6.95758L18.8017 7.13806C17.9769 8.03037 17.316 8.96362 16.819 9.93783C16.3329 10.9117 15.9845 11.9507 15.7739 13.0549L15.685 13.3031C15.4463 13.6031 15.2184 13.9028 15.0013 14.2021C14.7946 14.4894 14.5987 14.7763 14.4137 15.0628C14.6178 15.3241 14.827 15.5735 15.0412 15.811C15.255 16.0369 15.4846 16.2506 15.73 16.4521L15.8635 16.5525L15.9027 16.7436C16.1847 17.994 16.6207 19.1515 17.2105 20.2161C17.8107 21.2687 18.5806 22.2162 19.5202 23.0585L19.6537 23.1589L19.6929 23.3501C19.6933 23.3617 19.6974 23.4783 19.7051 23.6997C19.7125 23.9095 19.6623 24.1796 19.5546 24.5101C19.4574 24.8286 19.2802 25.1848 19.0231 25.5789C18.7656 25.9613 18.3719 26.3251 17.8422 26.6703C17.4824 26.9163 17.1417 27.0915 16.8203 27.1961C16.4985 27.289 16.2023 27.3402 15.9317 27.3497C15.672 27.3587 15.4437 27.3375 15.2469 27.2861C15.05 27.2346 14.88 27.1763 14.7369 27.1113C14.5938 27.0463 14.4833 26.986 14.4055 26.9304C14.3385 26.8744 14.2994 26.8407 14.2882 26.8294L14.1547 26.7291L14.1161 26.5554C13.93 25.57 13.6373 24.6351 13.238 23.7505C12.8387 22.866 12.3157 22.0091 11.6691 21.1798C11.0791 21.9706 10.5946 22.8335 10.2155 23.7686C9.84718 24.7033 9.59477 25.6981 9.45824 26.7531L9.43188 26.929L9.30567 27.0384C9.29526 27.0505 9.25319 27.087 9.17947 27.1479C9.10534 27.1971 8.99915 27.2592 8.8609 27.334C8.72224 27.3972 8.55632 27.4555 8.36314 27.5089C8.16997 27.5624 7.94892 27.5934 7.7 27.6021C7.14805 27.6214 6.6636 27.5566 6.24665 27.4078C5.84052 27.2586 5.48708 27.0668 5.18632 26.8322C4.89639 26.5973 4.65435 26.3374 4.46019 26.0524C4.27645 25.7555 4.12578 25.4748 4.0082 25.2106C3.90143 24.9459 3.82295 24.7153 3.77274 24.5186C3.73335 24.3216 3.71244 24.1882 3.71 24.1183L3.70145 23.8735L3.7272 23.6801L3.85341 23.5706C4.68071 22.7483 5.36866 21.8141 5.91726 20.768C6.46586 19.722 6.89053 18.5403 7.19127 17.2229L7.2988 17.0441C7.5063 16.7801 7.70256 16.5049 7.8876 16.2184C8.07264 15.9319 8.25247 15.6514 8.42709 15.3769C8.23334 15.1036 8.01835 14.8427 7.78212 14.5942C7.55672 14.3454 7.32049 14.0969 7.07344 13.8488L6.97238 13.7473L6.93381 13.5737C6.70668 12.3447 6.32088 11.2263 5.77641 10.2184C5.23153 9.19892 4.52655 8.24918 3.66147 7.36922L3.49425 7.23503L3.51817 6.98915C3.51777 6.97749 3.53074 6.88369 3.55711 6.70773C3.59429 6.5314 3.67334 6.31277 3.79426 6.05183C3.91477 5.77923 4.09439 5.49291 4.33314 5.19285C4.57147 4.88113 4.897 4.58388 5.30972 4.30108C5.66954 4.05513 6.01578 3.88551 6.34843 3.79221C6.6919 3.69854 7.00433 3.64679 7.28571 3.63696C7.65368 3.62411 7.95272 3.65451 8.18284 3.72816C8.41296 3.8018 8.53885 3.83825 8.56049 3.83749L8.75896 3.93558L8.83122 4.1431C9.07348 5.18484 9.38803 6.12487 9.77489 6.96319C10.1613 7.78986 10.654 8.55448 11.2528 9.25704C11.8228 8.51366 12.2988 7.71522 12.6807 6.86172C13.0627 6.00822 13.3336 5.07692 13.4934 4.06781L13.5504 3.83828L13.7577 3.72601C13.8323 3.6884 13.9285 3.65004 14.0463 3.61092C14.1429 3.58421 14.2557 3.55693 14.3847 3.52908C14.5138 3.50124 14.6649 3.48429 14.8381 3.47825C15.3684 3.45973 15.8368 3.53089 16.2433 3.69172C16.6603 3.84053 17.0193 4.03803 17.3205 4.28423C17.6325 4.53005 17.8912 4.80107 18.0966 5.09729C18.3015 5.38186 18.4624 5.64462 18.5792 5.88559C18.7068 6.12618 18.7951 6.32731 18.8441 6.48896C18.8931 6.65062 18.9171 6.71979 18.9163 6.69648L18.9579 6.95758ZM18.0547 6.69156C18.0174 6.55284 17.9182 6.35209 17.7574 6.08933C17.5961 5.8149 17.3809 5.5482 17.1118 5.28921C16.8427 5.03022 16.5153 4.80828 16.1296 4.62338C15.7547 4.4381 15.3238 4.35396 14.8367 4.37097C14.7069 4.3755 14.588 4.38549 14.4802 4.40092C14.3832 4.41598 14.3027 4.43629 14.2385 4.46187C13.8076 6.70568 12.8787 8.65182 11.4518 10.3003C11.9204 10.3773 12.3313 10.5088 12.6846 10.6948C13.0374 10.8692 13.3311 11.0573 13.5657 11.2592C13.8111 11.4606 13.9908 11.6411 14.1047 11.8005C14.2295 11.9595 14.2975 12.0446 14.3087 12.0559C14.3552 12.1476 14.3795 12.2226 14.3816 12.2809C14.3848 12.3741 14.3552 12.4568 14.2927 12.529C14.241 12.6009 14.1665 12.6385 14.0691 12.6419C13.9392 12.6464 13.8456 12.603 13.7882 12.5116C13.777 12.5004 13.704 12.4271 13.5693 12.2917C13.4453 12.156 13.2613 12.0049 13.0171 11.8384C12.7837 11.6716 12.4858 11.5186 12.1233 11.3796C11.7717 11.2401 11.368 11.1609 10.9123 11.1418C10.7004 12.2111 10.3734 13.2435 9.93145 14.2391C9.49986 15.2227 8.94239 16.1699 8.25903 17.0806C8.51121 17.1651 8.8085 17.3006 9.15092 17.487C9.49334 17.6734 9.82013 17.8779 10.1313 18.1004C10.4529 18.3109 10.7258 18.5231 10.95 18.7369C11.1741 18.9508 11.2887 19.1277 11.2936 19.2675C11.2972 19.3724 11.268 19.4668 11.2059 19.5507C11.1542 19.6225 11.0797 19.6601 10.9823 19.6635C10.9498 19.6646 10.8171 19.5876 10.5842 19.4323C10.362 19.2767 10.0903 19.0995 9.76916 18.9007C9.4588 18.7015 9.1268 18.503 8.77316 18.3054C8.43033 18.1073 8.12201 17.9664 7.84819 17.8826C7.52459 19.1658 7.08267 20.3189 6.52243 21.342C5.97261 22.3531 5.28946 23.2696 4.47298 24.0916C4.47502 24.1499 4.52462 24.329 4.62178 24.629C4.71853 24.9174 4.88645 25.2266 5.12552 25.5566C5.37501 25.8746 5.71007 26.1605 6.13068 26.4142C6.55089 26.6562 7.08567 26.7659 7.73502 26.7432C7.98394 26.7345 8.18855 26.6982 8.34885 26.6343C8.50916 26.5703 8.63158 26.5077 8.71612 26.4464C8.91865 25.1091 9.28176 23.8712 9.80545 22.7327C10.3292 21.5942 11.0295 20.5487 11.9064 19.5962C12.1018 18.3642 12.4509 17.1909 12.9538 16.0765C13.4674 14.9616 14.1605 13.8639 15.033 12.7832C15.4539 10.5631 16.4611 8.53255 18.0547 6.69156ZM14.735 17.7471C14.7378 17.8287 14.6757 17.9125 14.5487 17.9986C14.4325 18.0844 14.2841 18.1771 14.1033 18.2768C13.9222 18.3648 13.7144 18.4654 13.48 18.5786C13.256 18.6797 13.0432 18.7922 12.8416 18.9159C12.7932 19.081 12.7554 19.2398 12.7282 19.3925C12.7119 19.5447 12.6957 19.7028 12.6798 19.8668L12.5585 20.116C12.496 20.1882 12.4333 20.2546 12.3704 20.3152C12.3075 20.3757 12.2502 20.4419 12.1985 20.5137C12.8796 21.4001 13.4371 22.3141 13.8709 23.2558C14.3151 24.1855 14.6477 25.1774 14.8687 26.2316C14.9573 26.2868 15.084 26.3466 15.2488 26.4108C15.4136 26.4751 15.6204 26.5029 15.8694 26.4942C16.2806 26.4798 16.6409 26.4031 16.9503 26.2639C17.2597 26.1247 17.5245 25.9521 17.7449 25.746C17.9653 25.54 18.1473 25.3236 18.2911 25.0969C18.4453 24.8581 18.5674 24.6321 18.6575 24.4189C18.7476 24.2057 18.8062 24.0228 18.8334 23.8702C18.8714 23.7172 18.8952 23.623 18.9048 23.5876C17.0007 21.8104 15.7489 19.6312 15.1495 17.05C14.9369 16.859 14.735 16.6619 14.5437 16.4585C14.352 16.2435 14.1601 16.0227 13.9679 15.796C13.7958 16.1404 13.6398 16.4843 13.5001 16.8275C13.36 17.1592 13.2313 17.5079 13.114 17.8737C13.3485 17.7605 13.5777 17.6533 13.8017 17.5521C14.0257 17.451 14.2243 17.3974 14.3975 17.3913C14.4624 17.389 14.5284 17.4159 14.5953 17.4719C14.6619 17.5163 14.7072 17.573 14.7313 17.6422L14.735 17.7471ZM8.11596 4.60566C8.02857 4.58537 7.91412 4.56603 7.77261 4.54764C7.64193 4.52886 7.49001 4.5225 7.31685 4.52855C6.82983 4.54555 6.4058 4.65955 6.04476 4.87053C5.69453 5.08113 5.39944 5.31898 5.15948 5.58407C4.91951 5.84917 4.73366 6.11237 4.60192 6.37369C4.47018 6.63501 4.3845 6.81887 4.34487 6.92527C5.14217 7.72592 5.80101 8.59559 6.32139 9.53427C6.84137 10.4613 7.24495 11.4682 7.53213 12.5551C7.78128 12.243 8.03227 11.9833 8.28509 11.7761C8.54874 11.5686 8.79237 11.4084 9.01598 11.2955C9.25 11.1707 9.4636 11.0815 9.65678 11.0281C9.84996 10.9747 10.0113 10.9399 10.1407 10.9237C10.1387 10.8654 10.1421 10.8069 10.1509 10.7483C10.1592 10.678 10.1732 10.6133 10.1929 10.5543L10.2204 10.4133L10.3466 10.3039L10.7072 9.92371C9.4971 8.47235 8.63335 6.69967 8.11596 4.60566ZM8.87162 14.6087C9.33852 13.7056 9.69578 12.7654 9.94338 11.7882C9.82637 11.8507 9.69312 11.9137 9.54364 11.9772C9.39416 12.0408 9.22946 12.1341 9.04955 12.257C8.88046 12.3796 8.69656 12.5436 8.49785 12.7489C8.30956 12.9422 8.11248 13.1941 7.90661 13.5047L8.87162 14.6087Z" fill="black" style="fill:black;fill-opacity:1;"/>
<path d="M37.1861 14.6108L37.002 14.6673C36.0166 15.0729 35.1498 15.5613 34.4014 16.1324C33.653 16.7034 32.9968 17.3878 32.4327 18.1853L32.2757 18.337C31.8963 18.4809 31.5 18.6766 31.0867 18.9241C30.6733 19.1716 30.2589 19.4505 29.8434 19.7608C29.438 20.0715 29.0468 20.4088 28.6699 20.7729C28.3034 21.1268 27.972 21.4924 27.6755 21.8697C27.6524 21.9527 27.6444 22.0363 27.6516 22.1203C27.6591 22.1939 27.6615 22.2726 27.6585 22.3563C27.6392 22.911 27.6606 23.4565 27.7228 23.9931C27.7853 24.5191 27.9033 25.0524 28.0767 25.5928L28.1318 25.7519L28.0668 25.8753C28.056 25.8959 27.9971 25.9882 27.8902 26.1521C27.7837 26.3055 27.6109 26.4724 27.3719 26.6526C27.1329 26.8329 26.8086 26.9944 26.3989 27.1373C25.9994 27.2805 25.5015 27.3417 24.9053 27.3209C24.3091 27.3 23.8169 27.199 23.4287 27.0178C23.0506 26.837 22.7488 26.6431 22.5233 26.4361C22.3079 26.2295 22.1577 26.0409 22.0726 25.8703C21.9879 25.6892 21.9459 25.5882 21.9466 25.5673L21.8915 25.4082L21.9565 25.2848C22.2094 24.7068 22.402 24.1164 22.5343 23.5133C22.6667 22.9102 22.7442 22.2842 22.7668 21.6354C22.7822 21.1959 22.7723 20.7555 22.7371 20.3142C22.7124 19.8628 22.6527 19.3997 22.558 18.9249L22.5645 18.7366C22.7041 18.2175 22.818 17.7081 22.9062 17.2083C23.0046 16.7088 23.0624 16.2131 23.0796 15.7213C23.0993 15.1562 23.0728 14.6104 23.0002 14.084C22.9279 13.5471 22.8252 13.0092 22.6923 12.4702L22.6669 12.3278L22.7319 12.2044C23.2066 11.0684 23.4639 9.93011 23.5037 8.78945C23.5195 8.33946 23.4998 7.88824 23.4448 7.43578C23.3999 6.98368 23.3149 6.51969 23.1899 6.04384L23.1358 5.85335L23.2631 5.68492C23.2736 5.67481 23.3155 5.63436 23.3888 5.56357C23.4624 5.48233 23.5718 5.39185 23.7169 5.29214C23.8624 5.18197 24.0481 5.07844 24.2741 4.98155C24.5004 4.8742 24.7664 4.78919 25.0721 4.72652C25.2751 4.41928 25.5009 4.18095 25.7496 4.01151C25.9987 3.83162 26.231 3.69828 26.4465 3.61151C26.6721 3.52509 26.8612 3.46883 27.0139 3.44272C27.1767 3.41698 27.2684 3.39922 27.2889 3.38946L27.4557 3.39529L27.5736 3.4937C27.8864 3.80847 28.2006 4.08139 28.5163 4.31244C28.8323 4.53303 29.1592 4.73304 29.4969 4.91247C29.8451 5.0818 30.2142 5.2309 30.6043 5.35977C30.9943 5.48865 31.4203 5.60306 31.8822 5.70301C31.9327 5.70477 31.9831 5.71177 32.0332 5.724C32.0834 5.73623 32.1337 5.74322 32.1843 5.74499L32.3055 5.74922L32.4386 5.84817C32.8304 6.21809 33.2036 6.54021 33.5582 6.81453C33.9234 7.07875 34.2998 7.30668 34.6877 7.49835C35.0759 7.67955 35.4857 7.82482 35.9169 7.93418C36.3481 8.04354 36.8259 8.12309 37.3502 8.17283L37.5473 8.17971L37.6625 8.35662C37.6618 8.37755 37.6753 8.42517 37.703 8.49948C37.7409 8.57414 37.7777 8.6802 37.8133 8.81766C37.8494 8.94465 37.8793 9.10285 37.903 9.29228C37.9372 9.47159 37.9503 9.67636 37.9422 9.90659C37.9349 10.1159 37.9069 10.3402 37.858 10.5795C37.8193 10.8191 37.7497 11.0734 37.6493 11.3423C37.4824 11.7765 37.2928 12.1366 37.0804 12.4225C37.1821 12.6985 37.2437 12.9626 37.2652 13.2148C37.2972 13.4569 37.3101 13.6669 37.3039 13.8448C37.2984 14.0018 37.2838 14.1323 37.2599 14.2362C37.236 14.3401 37.2237 14.4026 37.223 14.4235L37.1861 14.6108ZM25.1292 9.17625L25.0432 9.0318C25.0233 9.02063 24.9795 8.97195 24.9117 8.88576C24.8439 8.79958 24.7723 8.67658 24.697 8.51679C24.622 8.34653 24.5533 8.13982 24.491 7.89666C24.4388 7.65385 24.4183 7.37024 24.4296 7.04583C24.4384 6.79467 24.4567 6.55957 24.4846 6.34051C24.523 6.11134 24.5709 5.89823 24.6284 5.70116C24.4739 5.77959 24.345 5.84843 24.2418 5.90769C24.1486 5.9673 24.0708 6.02221 24.0084 6.07242C24.2184 7.01226 24.3075 7.9374 24.2757 8.84784C24.2585 9.33968 24.2009 9.83012 24.1029 10.3191C24.0153 10.7981 23.8823 11.2754 23.7038 11.7511C23.9384 11.6964 24.1674 11.6573 24.3908 11.6337C24.6243 11.6104 24.8421 11.6023 25.0442 11.6093C25.6 11.6287 26.0181 11.68 26.2984 11.7631C26.5788 11.8463 26.7731 11.9316 26.8813 12.0192C27.0091 12.1285 27.0658 12.2405 27.0517 12.3552C27.0484 12.4494 27.0103 12.5267 26.9374 12.587C26.8746 12.6477 26.8027 12.6766 26.7219 12.6738C26.7017 12.6731 26.6717 12.6615 26.6321 12.6392C26.6028 12.6067 26.5383 12.573 26.4383 12.5381C26.3387 12.4927 26.1984 12.4564 26.0172 12.4291C25.8364 12.3914 25.5894 12.367 25.2761 12.3561C25.0235 12.3473 24.7498 12.3639 24.4549 12.406C24.1601 12.4481 23.8486 12.5315 23.5205 12.6563C23.7784 13.6711 23.8895 14.6913 23.8537 15.7169C23.8383 16.1564 23.7923 16.6053 23.7156 17.0637C23.6494 17.5119 23.5579 17.9592 23.4411 18.4057C23.6035 18.3904 23.7657 18.3803 23.9278 18.3755C24.0898 18.3707 24.2517 18.3711 24.4133 18.3768C24.6458 18.3849 24.9079 18.4098 25.1999 18.4514C25.5023 18.4829 25.7839 18.5294 26.0448 18.5909C26.3057 18.6524 26.5257 18.7282 26.7046 18.8183C26.8836 18.9083 26.9712 19.0057 26.9676 19.1103C26.9647 19.1941 26.9265 19.2713 26.8533 19.3421C26.7904 19.4028 26.7186 19.4317 26.6378 19.4289C26.4054 19.4207 26.1338 19.3746 25.8231 19.2904C25.5128 19.1957 25.1758 19.1421 24.812 19.1294C24.5796 19.1212 24.3367 19.1232 24.0833 19.1353C23.83 19.1475 23.5862 19.1756 23.352 19.2198C23.4377 19.6629 23.4884 20.0942 23.5041 20.5139C23.5302 20.9234 23.5364 21.327 23.5225 21.7247C23.4998 22.3735 23.422 23.0099 23.2889 23.6339C23.1562 24.2475 22.9733 24.8488 22.7403 25.4379C22.7781 25.5125 22.8405 25.609 22.9274 25.7273C23.0245 25.8459 23.1569 25.9658 23.3246 26.0869C23.5029 26.1979 23.7219 26.2999 23.9817 26.3928C24.2418 26.4752 24.5589 26.5229 24.9327 26.536C25.3066 26.549 25.6312 26.5237 25.9066 26.46C26.1824 26.3858 26.4128 26.3048 26.598 26.217C26.7937 26.119 26.9438 26.0195 27.0485 25.9184C27.1637 25.8071 27.2476 25.721 27.3004 25.66C26.9858 24.5279 26.8468 23.4386 26.8833 22.3921C26.9038 21.8061 26.9694 21.2321 27.08 20.6702C27.2012 20.0982 27.3727 19.5331 27.5945 18.9751C27.4414 18.4354 27.3337 17.8972 27.2715 17.3607C27.2093 16.8242 27.1881 16.2734 27.2078 15.7083C27.2264 15.1746 27.2808 14.6316 27.3709 14.0795C27.4711 13.5277 27.6123 12.9616 27.7944 12.3812C27.5703 11.5561 27.474 10.6936 27.5054 9.79359L27.5109 9.63662C27.1713 9.50951 26.8256 9.41361 26.4738 9.34894C26.1223 9.2738 25.7297 9.21818 25.2959 9.18208L25.1292 9.17625ZM37.0511 8.91677C36.5675 8.85797 36.1302 8.77984 35.739 8.68236C35.3478 8.58487 34.9729 8.45653 34.6143 8.29732C34.2657 8.13846 33.9183 7.94821 33.5719 7.72656C33.2357 7.50527 32.8859 7.23635 32.5226 6.91982C32.4867 7.3691 32.3969 7.76935 32.2531 8.12056C32.1194 8.47213 31.9774 8.77103 31.8272 9.01724C31.6871 9.26381 31.554 9.453 31.428 9.58481C31.3121 9.71697 31.2489 9.78811 31.2384 9.79822C31.1756 9.85889 31.1038 9.88781 31.0229 9.88499C30.9219 9.88146 30.8421 9.84724 30.7837 9.78234C30.7354 9.71779 30.7127 9.64365 30.7156 9.55993C30.7185 9.47621 30.7409 9.41413 30.7828 9.37368C30.7933 9.36357 30.8462 9.29731 30.9415 9.17491C31.0372 9.04204 31.1396 8.86226 31.2487 8.63556C31.3682 8.39875 31.479 8.12496 31.5809 7.8142C31.6831 7.49296 31.7412 7.13351 31.7551 6.73585C31.758 6.65213 31.7553 6.58393 31.7471 6.53126C31.7493 6.46847 31.6998 6.43531 31.5988 6.43178C31.1272 6.32101 30.6913 6.20101 30.2911 6.07179C29.901 5.94291 29.527 5.7884 29.1691 5.60826C28.8213 5.42848 28.4843 5.22811 28.1581 5.00717C27.8324 4.77577 27.503 4.50232 27.17 4.18685C27.109 4.19519 26.9708 4.24275 26.7553 4.32953C26.5503 4.40619 26.3326 4.55575 26.1023 4.77821C25.8824 4.99057 25.6748 5.28716 25.4793 5.66801C25.2944 6.03875 25.1917 6.51713 25.1712 7.10316C25.1585 7.46943 25.1888 7.75862 25.2624 7.97074C25.3464 8.17275 25.4273 8.31702 25.5052 8.40357C25.9794 8.44108 26.4173 8.50352 26.819 8.59089C27.2206 8.67826 27.606 8.79649 27.9751 8.94559C28.3442 9.09469 28.7072 9.27501 29.064 9.48654C29.4208 9.69808 29.7867 9.94136 30.1615 10.2164C30.2405 10.2715 30.3195 10.3267 30.3986 10.3818C30.4776 10.437 30.5616 10.4923 30.6507 10.5478C31.1343 10.6066 31.5765 10.6901 31.9774 10.7984C32.3884 10.9071 32.783 11.0518 33.1612 11.2327C33.5393 11.4135 33.9111 11.6308 34.2766 11.8846C34.6521 12.1387 35.0465 12.4353 35.4595 12.7746C35.5624 12.7258 35.7073 12.6313 35.8943 12.4911C36.0813 12.351 36.27 12.1637 36.4603 11.9294C36.6506 11.6951 36.8174 11.4075 36.9608 11.0668C37.1043 10.726 37.1838 10.3306 37.1995 9.88065C37.2076 9.65043 37.1941 9.45612 37.1592 9.29774C37.1344 9.13971 37.0983 9.01272 37.0511 8.91677ZM28.3978 19.0031L28.3328 19.1266C28.1338 19.6121 27.9802 20.0992 27.872 20.5878C28.4902 19.9808 29.1461 19.4484 29.8399 18.9906C30.5338 18.5329 31.2164 18.1062 31.8878 17.7105C33.0672 16.0962 34.6221 14.8828 36.5525 14.07L36.5612 13.8189C36.5652 13.7038 36.5593 13.5831 36.5435 13.4568C36.5378 13.3309 36.5122 13.1938 36.4668 13.0455C36.2076 13.225 35.9853 13.364 35.7997 13.4623C35.6145 13.5501 35.5119 13.5936 35.4916 13.5929L35.2924 13.6489L35.1469 13.4709C34.8027 13.1865 34.4726 12.9339 34.1566 12.7134C33.851 12.4827 33.5441 12.2886 33.236 12.1311C32.7536 12.6172 32.2377 13.0497 31.6883 13.4287C31.1493 13.7975 30.5615 14.1175 29.9248 14.3887C30.2708 14.6208 30.55 14.882 30.7624 15.1723C30.9853 15.4525 31.1532 15.7151 31.2661 15.96C31.389 16.2053 31.4728 16.4125 31.5175 16.5817C31.5625 16.7405 31.5849 16.8251 31.5845 16.8355L31.5812 16.9297C31.579 16.9925 31.5463 17.0595 31.4832 17.1306C31.4301 17.2021 31.353 17.2361 31.252 17.2325C31.1206 17.228 31.0423 17.1519 31.0171 17.0043C31.0175 16.9938 30.9849 16.9141 30.9192 16.7651C30.8641 16.6061 30.7644 16.4192 30.6201 16.2046C30.4863 15.9799 30.2972 15.7481 30.0526 15.509C29.8185 15.2598 29.5226 15.04 29.1651 14.8494L27.9379 16.0952C27.9413 16.5773 27.9703 17.0498 28.025 17.5128C28.0901 17.9656 28.1956 18.4198 28.3416 18.8754L28.3978 19.0031ZM30.2786 11.2106C29.9023 10.9774 29.5508 10.7556 29.2243 10.5451C28.8978 10.3347 28.5805 10.1507 28.2724 9.99325C28.2588 10.3805 28.2758 10.7635 28.3233 11.1423C28.3711 11.5107 28.4439 11.8904 28.5415 12.2815L28.5338 12.5013C28.2501 13.382 28.0632 14.2451 27.973 15.0906C28.151 14.9187 28.3188 14.7465 28.4766 14.5739C28.6449 14.3911 28.7462 14.2427 28.7805 14.1287L28.8758 14.0063L29.0133 13.9797C30.3654 13.503 31.539 12.7791 32.534 11.808C32.2147 11.6816 31.8844 11.581 31.543 11.5062C31.2117 11.4318 30.8548 11.3669 30.4723 11.3117L30.2786 11.2106Z" fill="black" style="fill:black;fill-opacity:1;"/>
</svg>
