<svg width="33" height="24" viewBox="0 0 33 24" fill="none" xmlns="http://www.w3.org/2000/svg">
<path d="M16.3453 3.74992L16.1945 3.92423C15.3978 4.786 14.7596 5.68731 14.2796 6.62817C13.8102 7.56866 13.4737 8.57213 13.2703 9.63857L13.1844 9.87823C12.9539 10.168 12.7338 10.4574 12.5241 10.7465C12.3245 11.0239 12.1353 11.301 11.9566 11.5777C12.1538 11.83 12.3558 12.0709 12.5627 12.3003C12.7691 12.5185 12.9908 12.7249 13.2279 12.9195L13.3568 13.0164L13.3947 13.201C13.6671 14.4086 14.0881 15.5265 14.6577 16.5547C15.2373 17.5712 15.9809 18.4863 16.8884 19.2998L17.0173 19.3967L17.0552 19.5813C17.0556 19.5926 17.0595 19.7052 17.067 19.919C17.074 20.1216 17.0256 20.3825 16.9216 20.7017C16.8277 21.0093 16.6566 21.3533 16.4083 21.7339C16.1595 22.1032 15.7794 22.4545 15.2678 22.788C14.9203 23.0255 14.5913 23.1947 14.2809 23.2957C13.9701 23.3855 13.684 23.4349 13.4227 23.444C13.1719 23.4528 12.9514 23.4323 12.7613 23.3826C12.5712 23.3329 12.407 23.2767 12.2688 23.2139C12.1305 23.1511 12.0239 23.0928 11.9487 23.0391C11.8841 22.985 11.8463 22.9525 11.8354 22.9416L11.7065 22.8447L11.6692 22.677C11.4895 21.7253 11.2068 20.8224 10.8212 19.9681C10.4355 19.1138 9.93048 18.2862 9.30602 17.4854C8.73619 18.249 8.26821 19.0824 7.90209 19.9855C7.54641 20.8882 7.30265 21.849 7.17079 22.8679L7.14533 23.0378L7.02344 23.1435C7.01338 23.1551 6.97275 23.1903 6.90155 23.2492C6.82996 23.2967 6.72741 23.3567 6.59389 23.4289C6.45998 23.49 6.29974 23.5463 6.11317 23.5979C5.92661 23.6495 5.71312 23.6795 5.47273 23.6879C4.93967 23.7065 4.4718 23.6439 4.06912 23.5002C3.67689 23.3561 3.33554 23.1708 3.04508 22.9443C2.76508 22.7174 2.53132 22.4664 2.3438 22.1912C2.16635 21.9044 2.02084 21.6334 1.90728 21.3781C1.80417 21.1225 1.72837 20.8998 1.67988 20.7099C1.64185 20.5197 1.62165 20.3908 1.61929 20.3232L1.61103 20.0869L1.63591 19.9L1.75779 19.7944C2.55678 19.0001 3.22118 18.0979 3.75101 17.0877C4.28083 16.0775 4.69096 14.9362 4.98141 13.6639L5.08526 13.4912C5.28565 13.2363 5.4752 12.9705 5.6539 12.6937C5.83261 12.417 6.00628 12.1461 6.17493 11.881C5.98781 11.6171 5.78018 11.3652 5.55204 11.1252C5.33435 10.8849 5.10621 10.6449 4.86762 10.4053L4.77001 10.3073L4.73276 10.1396C4.51341 8.95265 4.14081 7.87252 3.61498 6.89916C3.08875 5.91455 2.4079 4.99732 1.57243 4.14747L1.41093 4.01788L1.43403 3.78041C1.43364 3.76916 1.44617 3.67856 1.47163 3.50863C1.50754 3.33833 1.58389 3.12718 1.70067 2.87517C1.81705 2.61191 1.99053 2.33538 2.2211 2.04559C2.45128 1.74455 2.76566 1.45747 3.16426 1.18435C3.51176 0.946823 3.84615 0.783008 4.16741 0.692902C4.49913 0.602432 4.80086 0.552452 5.07262 0.542962C5.42799 0.530552 5.7168 0.55991 5.93904 0.631036C6.16129 0.702161 6.28286 0.737359 6.30377 0.736629L6.49544 0.831362L6.56523 1.03178C6.79919 2.03786 7.10298 2.94572 7.47659 3.75535C7.84981 4.55372 8.32559 5.29216 8.90392 5.97068C9.45441 5.25274 9.9141 4.48163 10.283 3.65735C10.6519 2.83306 10.9135 1.93363 11.0678 0.959064L11.1228 0.737386L11.3231 0.628967C11.3951 0.592644 11.488 0.555592 11.6018 0.51781C11.6951 0.492013 11.804 0.465669 11.9287 0.438777C12.0533 0.411886 12.1992 0.39552 12.3665 0.38968C12.8786 0.371796 13.331 0.440519 13.7236 0.595852C14.1263 0.739563 14.4731 0.930305 14.7639 1.16808C15.0653 1.40548 15.3151 1.66723 15.5134 1.95331C15.7114 2.22813 15.8668 2.48191 15.9795 2.71463C16.1028 2.94699 16.188 3.14123 16.2354 3.29735C16.2827 3.45347 16.3059 3.52027 16.3051 3.49776L16.3453 3.74992ZM15.473 3.49301C15.437 3.35904 15.3412 3.16516 15.1859 2.91139C15.0301 2.64636 14.8223 2.38878 14.5624 2.13866C14.3025 1.88854 13.9863 1.67419 13.6138 1.49561C13.2517 1.31668 12.8355 1.23542 12.3652 1.25184C12.2398 1.25622 12.125 1.26587 12.0209 1.28077C11.9272 1.29531 11.8494 1.31493 11.7875 1.33964C11.3713 3.50665 10.4742 5.38618 9.09607 6.97823C9.54866 7.05258 9.94552 7.17959 10.2867 7.35926C10.6274 7.52767 10.9111 7.70934 11.1377 7.90428C11.3747 8.09886 11.5482 8.27311 11.6582 8.42704C11.7787 8.58061 11.8444 8.66284 11.8552 8.67373C11.9002 8.76231 11.9236 8.83475 11.9256 8.89103C11.9287 8.98107 11.9001 9.06096 11.8398 9.13068C11.7899 9.20004 11.7179 9.23636 11.6238 9.23965C11.4984 9.24403 11.408 9.20211 11.3526 9.11389C11.3417 9.103 11.2712 9.03221 11.1411 8.90152C11.0214 8.77046 10.8436 8.62453 10.6078 8.46372C10.3824 8.30255 10.0947 8.15483 9.74467 8.02055C9.40509 7.8859 9.01522 7.80936 8.57505 7.79092C8.37042 8.82359 8.05467 9.8207 7.62779 10.7822C7.21098 11.7322 6.67259 12.6469 6.01262 13.5264C6.25617 13.6081 6.54329 13.7389 6.87398 13.919C7.20468 14.099 7.52029 14.2965 7.82081 14.5114C8.13139 14.7146 8.39493 14.9195 8.61144 15.1261C8.82795 15.3327 8.93856 15.5035 8.94328 15.6386C8.94682 15.7399 8.91861 15.831 8.85864 15.912C8.80874 15.9813 8.73676 16.0177 8.64269 16.0209C8.61133 16.022 8.48316 15.9476 8.25816 15.7977C8.04361 15.6474 7.78125 15.4763 7.47106 15.2843C7.17133 15.0919 6.85069 14.9002 6.50915 14.7093C6.17806 14.518 5.88029 14.3819 5.61585 14.301C5.30332 15.5403 4.87653 16.654 4.33546 17.642C3.80446 18.6185 3.14469 19.5036 2.35616 20.2975C2.35813 20.3538 2.40603 20.5268 2.49986 20.8165C2.59331 21.095 2.75547 21.3936 2.98637 21.7124C3.22732 22.0195 3.5509 22.2956 3.95712 22.5406C4.36295 22.7743 4.87942 22.8803 5.50655 22.8584C5.74695 22.85 5.94455 22.8149 6.09937 22.7531C6.25419 22.6914 6.37242 22.6309 6.45407 22.5717C6.64966 21.2802 7.00034 20.0846 7.50612 18.9851C8.01189 17.8855 8.68824 16.8758 9.53516 15.956C9.72384 14.7661 10.061 13.633 10.5467 12.5567C11.0428 11.48 11.7121 10.4199 12.5547 9.37619C12.9612 7.23205 13.934 5.27099 15.473 3.49301ZM12.2669 14.1701C12.2697 14.2489 12.2097 14.3299 12.087 14.4131C11.9748 14.4959 11.8314 14.5854 11.6569 14.6817C11.4819 14.7667 11.2813 14.8638 11.0549 14.9732C10.8385 15.0709 10.633 15.1795 10.4384 15.299C10.3916 15.4584 10.3551 15.6118 10.3289 15.7592C10.3131 15.9063 10.2975 16.0589 10.2821 16.2173L10.1649 16.458C10.1045 16.5277 10.044 16.5918 9.98323 16.6503C9.92249 16.7088 9.86716 16.7727 9.81726 16.842C10.475 17.6981 11.0134 18.5809 11.4324 19.4903C11.8614 20.3882 12.1826 21.3461 12.3961 22.3642C12.4817 22.4176 12.604 22.4753 12.7632 22.5373C12.9223 22.5994 13.1221 22.6262 13.3625 22.6178C13.7596 22.604 14.1076 22.5298 14.4064 22.3954C14.7052 22.261 14.961 22.0943 15.1738 21.8953C15.3866 21.6963 15.5625 21.4873 15.7013 21.2683C15.8502 21.0378 15.9682 20.8195 16.0552 20.6136C16.1422 20.4077 16.1988 20.2311 16.2251 20.0837C16.2618 19.9359 16.2847 19.8449 16.294 19.8108C14.4551 18.0944 13.2461 15.9898 12.6672 13.4969C12.462 13.3125 12.2669 13.1221 12.0822 12.9257C11.897 12.718 11.7117 12.5047 11.5261 12.2858C11.3598 12.6185 11.2092 12.9505 11.0743 13.2821C10.939 13.6023 10.8147 13.9391 10.7015 14.2924C10.9279 14.1831 11.1492 14.0796 11.3656 13.9819C11.5819 13.8842 11.7737 13.8324 11.941 13.8265C12.0037 13.8243 12.0674 13.8503 12.132 13.9044C12.1963 13.9472 12.2401 14.002 12.2634 14.0688L12.2669 14.1701ZM5.87445 1.47851C5.79005 1.45891 5.67952 1.44023 5.54285 1.42247C5.41664 1.40434 5.26992 1.39819 5.10269 1.40403C4.63234 1.42045 4.22283 1.53055 3.87414 1.73431C3.5359 1.9377 3.25091 2.16741 3.01916 2.42343C2.78741 2.67945 2.60792 2.93365 2.48069 3.18602C2.35346 3.43839 2.27071 3.61596 2.23244 3.71872C3.00244 4.49197 3.63873 5.33187 4.14131 6.23842C4.64349 7.13371 5.03325 8.10619 5.3106 9.15584C5.55123 8.85442 5.79363 8.60367 6.03779 8.40356C6.29241 8.20308 6.5277 8.04836 6.74366 7.9394C6.96967 7.81881 7.17596 7.73272 7.36253 7.68112C7.54909 7.62953 7.70489 7.59592 7.82992 7.58028C7.82796 7.524 7.83122 7.46754 7.83971 7.4109C7.8478 7.343 7.86132 7.28054 7.88026 7.22353L7.9069 7.08737L8.02878 6.98169L8.377 6.61454C7.20831 5.21285 6.37413 3.50084 5.87445 1.47851ZM6.60424 11.1392C7.05516 10.2669 7.40019 9.35897 7.63932 8.41525C7.52631 8.47554 7.39763 8.53638 7.25326 8.59777C7.1089 8.65916 6.94984 8.74924 6.77609 8.868C6.61278 8.9864 6.43518 9.14474 6.24327 9.34302C6.06142 9.52968 5.87109 9.77299 5.67227 10.0729L6.60424 11.1392Z" fill="#FC79C9" style="fill:#FC79C9;fill:color(display-p3 0.9882 0.4745 0.7882);fill-opacity:1;"/>
<path d="M32.0173 11.1494L31.8395 11.2039C30.8878 11.5957 30.0506 12.0674 29.3278 12.6189C28.6051 13.1704 27.9713 13.8313 27.4266 14.6016L27.2749 14.7481C26.9085 14.8871 26.5258 15.0761 26.1266 15.3151C25.7274 15.5542 25.3272 15.8235 24.9259 16.1232C24.5343 16.4232 24.1565 16.749 23.7925 17.1006C23.4386 17.4424 23.1185 17.7955 22.8322 18.1599C22.8098 18.24 22.8021 18.3207 22.8091 18.4019C22.8164 18.473 22.8186 18.549 22.8158 18.6298C22.7971 19.1655 22.8178 19.6924 22.8778 20.2106C22.9383 20.7186 23.0522 21.2336 23.2196 21.7555L23.2729 21.9092L23.2101 22.0284C23.1996 22.0483 23.1427 22.1374 23.0395 22.2957C22.9366 22.4438 22.7698 22.605 22.539 22.7791C22.3082 22.9531 21.9949 23.1092 21.5993 23.2471C21.2134 23.3854 20.7326 23.4445 20.1568 23.4244C19.581 23.4043 19.1057 23.3068 18.7307 23.1318C18.3655 22.9571 18.0741 22.7699 17.8563 22.57C17.6483 22.3705 17.5032 22.1883 17.421 22.0236C17.3392 21.8487 17.2987 21.7511 17.2994 21.7309L17.2461 21.5773L17.3089 21.458C17.5531 20.8999 17.7391 20.3296 17.8669 19.7472C17.9948 19.1648 18.0696 18.5602 18.0915 17.9336C18.1063 17.5091 18.0967 17.0838 18.0628 16.6576C18.0389 16.2217 17.9812 15.7744 17.8898 15.3159L17.8961 15.134C18.0309 14.6327 18.1409 14.1407 18.2261 13.658C18.3212 13.1756 18.377 12.6969 18.3935 12.2219C18.4126 11.6761 18.387 11.149 18.3169 10.6406C18.247 10.1221 18.1479 9.60262 18.0195 9.08207L17.995 8.9446L18.0578 8.82537C18.5163 7.72829 18.7647 6.62894 18.8032 5.52732C18.8184 5.09273 18.7994 4.65695 18.7463 4.21998C18.7029 3.78335 18.6208 3.33525 18.5001 2.87568L18.4479 2.69172L18.5708 2.52905C18.5809 2.51928 18.6214 2.48022 18.6921 2.41186C18.7633 2.33339 18.8689 2.24601 19.0091 2.14971C19.1496 2.04331 19.329 1.94333 19.5472 1.84976C19.7658 1.74608 20.0227 1.66398 20.3179 1.60346C20.5139 1.30673 20.732 1.07655 20.9722 0.912921C21.2128 0.73918 21.4371 0.610408 21.6452 0.526605C21.8631 0.443142 22.0458 0.388807 22.1932 0.363599C22.3504 0.338731 22.439 0.321585 22.4588 0.31216L22.6198 0.317783L22.7338 0.412832C23.0358 0.71683 23.3393 0.980402 23.6442 1.20355C23.9494 1.41658 24.2651 1.60975 24.5912 1.78304C24.9275 1.94657 25.284 2.09057 25.6607 2.21503C26.0374 2.33949 26.4488 2.44999 26.8949 2.54652C26.9437 2.54822 26.9923 2.55498 27.0408 2.56679C27.0892 2.5786 27.1378 2.58536 27.1866 2.58706L27.3037 2.59115L27.4323 2.68671C27.8106 3.04397 28.1711 3.35507 28.5136 3.62C28.8662 3.87517 29.2298 4.0953 29.6044 4.28041C29.9793 4.45541 30.375 4.59571 30.7915 4.70132C31.2079 4.80694 31.6694 4.88377 32.1758 4.93181L32.3661 4.93845L32.4773 5.1093C32.4766 5.12951 32.4897 5.1755 32.5165 5.24727C32.5531 5.31938 32.5886 5.42181 32.623 5.55456C32.6578 5.6772 32.6867 5.83 32.7096 6.01294C32.7426 6.18612 32.7553 6.38388 32.7475 6.60622C32.7404 6.80836 32.7133 7.02497 32.6662 7.25606C32.6288 7.48749 32.5616 7.73305 32.4646 7.99276C32.3034 8.41213 32.1202 8.7599 31.9152 9.03607C32.0134 9.30259 32.0728 9.55764 32.0937 9.80122C32.1246 10.035 32.137 10.2379 32.131 10.4097C32.1257 10.5613 32.1116 10.6873 32.0885 10.7876C32.0655 10.888 32.0536 10.9483 32.0529 10.9685L32.0173 11.1494ZM20.373 5.90088L20.29 5.76138C20.2708 5.75059 20.2285 5.70358 20.163 5.62034C20.0975 5.5371 20.0284 5.41832 19.9556 5.26399C19.8832 5.09956 19.8168 4.89992 19.7566 4.66508C19.7062 4.43059 19.6865 4.15668 19.6974 3.84338C19.7059 3.60082 19.7236 3.37376 19.7505 3.1622C19.7875 2.94088 19.8338 2.73506 19.8893 2.54473C19.7401 2.62047 19.6157 2.68696 19.5159 2.74419C19.426 2.80177 19.3509 2.8548 19.2905 2.90329C19.4933 3.81096 19.5794 4.70443 19.5487 5.58371C19.5321 6.05872 19.4765 6.53237 19.3818 7.00465C19.2973 7.46717 19.1688 7.92816 18.9964 8.38761C19.223 8.33481 19.4442 8.297 19.6599 8.27418C19.8854 8.2517 20.0958 8.24386 20.291 8.25068C20.8277 8.26942 21.2315 8.31894 21.5022 8.39923C21.773 8.47951 21.9607 8.56196 22.0652 8.64656C22.1885 8.75206 22.2434 8.86022 22.2297 8.97105C22.2266 9.06201 22.1898 9.13662 22.1193 9.19488C22.0587 9.25347 21.9893 9.28141 21.9112 9.27868C21.8917 9.278 21.8628 9.26687 21.8244 9.24529C21.7962 9.21395 21.7338 9.18141 21.6373 9.14769C21.5411 9.10385 21.4056 9.06876 21.2306 9.04241C21.056 9.00596 20.8175 8.98245 20.5149 8.97189C20.271 8.96337 20.0066 8.97943 19.7218 9.02008C19.437 9.06073 19.1362 9.1413 18.8193 9.26178C19.0685 10.2419 19.1757 11.2272 19.1412 12.2176C19.1263 12.6421 19.0819 13.0757 19.0078 13.5183C18.9438 13.9512 18.8555 14.3832 18.7427 14.8144C18.8995 14.7997 19.0562 14.7899 19.2127 14.7853C19.3692 14.7806 19.5255 14.781 19.6817 14.7865C19.9061 14.7943 20.1593 14.8183 20.4413 14.8586C20.7333 14.889 21.0053 14.9339 21.2573 14.9933C21.5093 15.0527 21.7217 15.1259 21.8945 15.2129C22.0673 15.2999 22.152 15.3939 22.1485 15.495C22.1456 15.5758 22.1088 15.6504 22.0381 15.7188C21.9774 15.7774 21.908 15.8053 21.83 15.8026C21.6055 15.7947 21.3432 15.7502 21.0432 15.6689C20.7435 15.5774 20.418 15.5256 20.0667 15.5133C19.8422 15.5055 19.6076 15.5074 19.363 15.5191C19.1183 15.5308 18.8828 15.558 18.6566 15.6007C18.7394 16.0286 18.7883 16.4452 18.8035 16.8505C18.8288 17.246 18.8347 17.6358 18.8213 18.0198C18.7994 18.6464 18.7242 19.2611 18.5957 19.8637C18.4675 20.4562 18.2909 21.037 18.0658 21.6059C18.1024 21.678 18.1627 21.7712 18.2466 21.8854C18.3403 22 18.4682 22.1158 18.6302 22.2327C18.8023 22.34 19.0139 22.4384 19.2648 22.5281C19.516 22.6077 19.8222 22.6538 20.1833 22.6664C20.5443 22.6791 20.8579 22.6546 21.1238 22.593C21.3901 22.5214 21.6127 22.4432 21.7915 22.3583C21.9805 22.2637 22.1255 22.1676 22.2266 22.0699C22.3379 21.9625 22.4189 21.8793 22.4699 21.8204C22.1661 20.7271 22.0318 19.6751 22.0671 18.6644C22.0869 18.0984 22.1502 17.5441 22.2571 17.0014C22.3741 16.449 22.5397 15.9033 22.7539 15.3643C22.606 14.8431 22.5021 14.3234 22.442 13.8052C22.3819 13.287 22.3614 12.7551 22.3805 12.2093C22.3985 11.6939 22.451 11.1695 22.538 10.6363C22.6348 10.1033 22.7711 9.55662 22.947 8.9961C22.7306 8.19926 22.6375 7.36626 22.6679 6.49709L22.6732 6.34549C22.3452 6.22273 22.0114 6.13012 21.6716 6.06766C21.3322 5.99509 20.953 5.94137 20.534 5.90651L20.373 5.90088ZM31.8869 5.65028C31.4198 5.5935 30.9975 5.51803 30.6197 5.42389C30.2419 5.32975 29.8798 5.20579 29.5335 5.05203C29.1968 4.89861 28.8613 4.71487 28.5268 4.50081C28.202 4.28709 27.8642 4.02738 27.5134 3.72168C27.4787 4.15558 27.3919 4.54213 27.2531 4.88133C27.1239 5.22087 26.9868 5.50953 26.8418 5.74732C26.7064 5.98545 26.5779 6.16816 26.4562 6.29545C26.3443 6.42309 26.2832 6.49179 26.2731 6.50156C26.2125 6.56016 26.1431 6.58809 26.065 6.58536C25.9674 6.58196 25.8904 6.54891 25.834 6.48622C25.7873 6.42388 25.7654 6.35228 25.7682 6.27143C25.771 6.19058 25.7927 6.13062 25.8331 6.09155C25.8432 6.08179 25.8943 6.0178 25.9864 5.89959C26.0788 5.77127 26.1777 5.59764 26.283 5.3787C26.3985 5.15 26.5054 4.88558 26.6039 4.58545C26.7026 4.27521 26.7587 3.92806 26.7721 3.54401C26.775 3.46316 26.7724 3.39729 26.7644 3.34642C26.7665 3.28578 26.7188 3.25376 26.6212 3.25035C26.1657 3.14337 25.7447 3.02748 25.3582 2.90268C24.9815 2.77821 24.6203 2.62899 24.2746 2.45502C23.9387 2.28138 23.6133 2.08788 23.2983 1.8745C22.9837 1.65101 22.6656 1.38693 22.344 1.08225C22.2851 1.09031 22.1516 1.13625 21.9435 1.22005C21.7455 1.29409 21.5352 1.43853 21.3128 1.65338C21.1004 1.85846 20.8999 2.14491 20.7112 2.51272C20.5326 2.87077 20.4334 3.33277 20.4136 3.89875C20.4013 4.25248 20.4306 4.53178 20.5016 4.73663C20.5827 4.93173 20.6609 5.07106 20.7362 5.15464C21.1941 5.19087 21.6171 5.25118 22.0049 5.33556C22.3928 5.41993 22.765 5.53412 23.1215 5.67812C23.478 5.82211 23.8285 5.99626 24.1732 6.20055C24.5178 6.40485 24.8711 6.6398 25.2331 6.90542C25.3094 6.95868 25.3857 7.01194 25.462 7.0652C25.5383 7.11845 25.6195 7.17188 25.7056 7.22548C26.1726 7.28227 26.5997 7.36296 26.9869 7.46755C27.3838 7.57248 27.7649 7.71227 28.1301 7.88693C28.4952 8.06159 28.8543 8.27145 29.2073 8.51651C29.57 8.76191 29.9508 9.04842 30.3498 9.37604C30.4491 9.32891 30.5891 9.23767 30.7697 9.10231C30.9503 8.96696 31.1325 8.78612 31.3163 8.5598C31.5 8.33348 31.6612 8.05578 31.7997 7.72669C31.9382 7.3976 32.015 7.01576 32.0302 6.58117C32.038 6.35883 32.025 6.17117 31.9913 6.01821C31.9673 5.86559 31.9325 5.74295 31.8869 5.65028ZM23.5298 15.3914L23.467 15.5106C23.2747 15.9795 23.1264 16.4499 23.022 16.9219C23.6189 16.3356 24.2524 15.8214 24.9225 15.3793C25.5926 14.9373 26.2519 14.5252 26.9003 14.143C28.0393 12.584 29.541 11.4121 31.4053 10.6272L31.4138 10.3846C31.4176 10.2734 31.4119 10.1569 31.3967 10.0349C31.3911 9.91329 31.3664 9.78089 31.3226 9.63769C31.0723 9.81109 30.8575 9.94525 30.6783 10.0402C30.4995 10.125 30.4003 10.1671 30.3808 10.1664L30.1884 10.2204L30.0478 10.0485C29.7154 9.77383 29.3966 9.52996 29.0914 9.31692C28.7963 9.09412 28.4999 8.90668 28.2023 8.75463C27.7365 9.22407 27.2383 9.64179 26.7076 10.0078C26.1871 10.364 25.6194 10.673 25.0044 10.9349C25.3386 11.1591 25.6083 11.4113 25.8134 11.6917C26.0287 11.9623 26.1908 12.2159 26.2998 12.4524C26.4186 12.6893 26.4995 12.8895 26.5427 13.0529C26.5862 13.2062 26.6077 13.2879 26.6074 13.298L26.6042 13.389C26.6021 13.4496 26.5705 13.5143 26.5095 13.583C26.4582 13.652 26.3838 13.6848 26.2862 13.6814C26.1594 13.677 26.0838 13.6035 26.0594 13.461C26.0598 13.4509 26.0283 13.3739 25.9649 13.23C25.9116 13.0764 25.8153 12.8959 25.676 12.6887C25.5468 12.4717 25.3641 12.2477 25.1279 12.0169C24.9018 11.7762 24.6161 11.5639 24.2708 11.3798L23.0856 12.5831C23.0888 13.0486 23.1169 13.505 23.1697 13.9521C23.2326 14.3894 23.3345 14.828 23.4755 15.2681L23.5298 15.3914ZM25.3461 7.86561C24.9827 7.64042 24.6433 7.42619 24.328 7.22291C24.0126 7.01964 23.7062 6.84198 23.4086 6.68992C23.3955 7.06386 23.4119 7.43378 23.4578 7.79966C23.504 8.15544 23.5742 8.52218 23.6685 8.89987L23.6611 9.11211C23.3871 9.96266 23.2066 10.7962 23.1194 11.6128C23.2913 11.4468 23.4535 11.2804 23.6059 11.1137C23.7684 10.9373 23.8662 10.794 23.8993 10.6838L23.9914 10.5656L24.1242 10.5399C25.43 10.0795 26.5634 9.38042 27.5244 8.44256C27.216 8.32048 26.897 8.22333 26.5673 8.1511C26.2474 8.07922 25.9027 8.01659 25.5333 7.96321L25.3461 7.86561Z" fill="#FC79C9" style="fill:#FC79C9;fill:color(display-p3 0.9882 0.4745 0.7882);fill-opacity:1;"/>
</svg>
