<svg width="32" height="24" viewBox="0 0 32 24" fill="none" xmlns="http://www.w3.org/2000/svg">
<path d="M14.9662 5.07495L14.8484 5.21106C14.2263 5.88399 13.7279 6.5878 13.3532 7.32249C12.9866 8.05689 12.7239 8.84047 12.565 9.67322L12.498 9.86037C12.3179 10.0867 12.146 10.3127 11.9823 10.5384C11.8265 10.755 11.6787 10.9714 11.5392 11.1875C11.6932 11.3845 11.8509 11.5726 12.0124 11.7517C12.1736 11.9221 12.3468 12.0833 12.5319 12.2352L12.6326 12.3109L12.6621 12.455C12.8748 13.398 13.2036 14.2709 13.6484 15.0738C14.101 15.8676 14.6816 16.5821 15.3903 17.2174L15.491 17.2931L15.5205 17.4372C15.5208 17.446 15.5239 17.5339 15.5297 17.7009C15.5352 17.8591 15.4974 18.0629 15.4162 18.3121C15.3429 18.5523 15.2093 18.8209 15.0154 19.1181C14.8211 19.4065 14.5243 19.6808 14.1248 19.9412C13.8534 20.1267 13.5965 20.2588 13.3542 20.3377C13.1114 20.4078 12.8881 20.4464 12.684 20.4535C12.4881 20.4604 12.316 20.4444 12.1675 20.4056C12.0191 20.3667 11.8909 20.3228 11.783 20.2738C11.675 20.2247 11.5917 20.1793 11.533 20.1373C11.4825 20.0951 11.453 20.0697 11.4446 20.0612L11.3439 19.9855L11.3148 19.8545C11.1744 19.1114 10.9537 18.4063 10.6526 17.7392C10.3514 17.0722 9.95705 16.4259 9.46942 15.8006C9.02446 16.3969 8.65903 17.0477 8.37313 17.7528C8.0954 18.4577 7.90505 19.208 7.80208 20.0036L7.7822 20.1363L7.68703 20.2188C7.67917 20.2279 7.64744 20.2554 7.59185 20.3013C7.53594 20.3385 7.45586 20.3853 7.3516 20.4417C7.24703 20.4894 7.12191 20.5333 6.97622 20.5736C6.83054 20.6139 6.66384 20.6373 6.47612 20.6439C6.05987 20.6584 5.69452 20.6096 5.38008 20.4974C5.0738 20.3849 4.80725 20.2402 4.58044 20.0633C4.36179 19.8861 4.17926 19.6901 4.03283 19.4752C3.89426 19.2513 3.78064 19.0396 3.69197 18.8403C3.61145 18.6407 3.55226 18.4668 3.5144 18.3185C3.48469 18.17 3.46892 18.0693 3.46708 18.0166L3.46063 17.832L3.48006 17.6861L3.57523 17.6036C4.19914 16.9834 4.71795 16.2789 5.13168 15.49C5.5454 14.7012 5.86566 13.81 6.09246 12.8165L6.17355 12.6816C6.33004 12.4826 6.47805 12.275 6.61759 12.0589C6.75714 11.8428 6.89276 11.6313 7.02445 11.4243C6.87833 11.2182 6.7162 11.0215 6.53805 10.8341C6.36806 10.6464 6.18991 10.459 6.0036 10.272L5.92739 10.1954L5.8983 10.0644C5.72701 9.13761 5.43607 8.29416 5.02545 7.5341C4.61454 6.76524 4.08288 6.04901 3.43049 5.38539L3.30438 5.28419L3.32242 5.09876C3.32211 5.08997 3.3319 5.01923 3.35178 4.88653C3.37982 4.75355 3.43944 4.58867 3.53063 4.39188C3.62151 4.18631 3.75697 3.97038 3.93702 3.74409C4.11676 3.50901 4.36225 3.28484 4.6735 3.07157C4.94486 2.88609 5.20597 2.75817 5.45684 2.68781C5.71586 2.61717 5.95148 2.57814 6.16368 2.57073C6.44118 2.56104 6.6667 2.58396 6.84025 2.6395C7.01379 2.69504 7.10873 2.72253 7.12505 2.72196L7.27472 2.79593L7.32922 2.95243C7.51192 3.73805 7.74914 4.44697 8.04088 5.07919C8.33231 5.70261 8.70383 6.27924 9.15543 6.80907C9.5853 6.24846 9.94426 5.64632 10.2323 5.00266C10.5203 4.359 10.7246 3.65666 10.8451 2.89565L10.8881 2.72255L11.0445 2.63789C11.1007 2.60952 11.1733 2.58059 11.2621 2.55109C11.335 2.53094 11.4201 2.51037 11.5174 2.48937C11.6147 2.46837 11.7287 2.4556 11.8592 2.45104C12.2592 2.43707 12.6124 2.49073 12.919 2.61203C13.2335 2.72425 13.5042 2.87319 13.7314 3.05886C13.9666 3.24425 14.1617 3.44864 14.3166 3.67203C14.4712 3.88663 14.5925 4.08479 14.6806 4.26652C14.7768 4.44796 14.8434 4.59964 14.8803 4.72155C14.9173 4.84346 14.9355 4.89562 14.9348 4.87805L14.9662 5.07495ZM14.2851 4.87434C14.2569 4.76972 14.1821 4.61833 14.0608 4.42016C13.9392 4.21321 13.7769 4.01208 13.574 3.81676C13.371 3.62145 13.1241 3.45407 12.8332 3.31463C12.5505 3.1749 12.2255 3.11145 11.8582 3.12427C11.7603 3.12769 11.6707 3.13522 11.5894 3.14686C11.5162 3.15822 11.4555 3.17354 11.4071 3.19283C11.0821 4.88498 10.3816 6.35265 9.30548 7.59584C9.65889 7.6539 9.9688 7.75307 10.2352 7.89337C10.5013 8.02488 10.7228 8.16675 10.8997 8.31897C11.0848 8.47091 11.2203 8.60698 11.3062 8.72718C11.4003 8.84709 11.4515 8.9113 11.46 8.91981C11.4951 8.98898 11.5134 9.04554 11.515 9.08949C11.5174 9.1598 11.4951 9.22218 11.448 9.27663C11.409 9.33079 11.3528 9.35915 11.2793 9.36172C11.1814 9.36514 11.1108 9.3324 11.0675 9.26351C11.059 9.25501 11.004 9.19973 10.9024 9.09768C10.8089 8.99534 10.6701 8.88139 10.4859 8.75582C10.3099 8.62997 10.0853 8.51461 9.81195 8.40976C9.54678 8.30461 9.24235 8.24484 8.89863 8.23045C8.73884 9.03683 8.49228 9.81545 8.15895 10.5663C7.83347 11.3081 7.41306 12.0223 6.89771 12.7091C7.08788 12.7729 7.31209 12.8751 7.57032 13.0157C7.82855 13.1562 8.075 13.3104 8.30967 13.4782C8.55219 13.637 8.75798 13.797 8.92705 13.9583C9.09611 14.1196 9.18249 14.253 9.18617 14.3584C9.18893 14.4375 9.1669 14.5087 9.12008 14.5719C9.08111 14.6261 9.0249 14.6545 8.95145 14.657C8.92696 14.6579 8.82687 14.5998 8.65118 14.4827C8.48365 14.3654 8.27878 14.2317 8.03656 14.0818C7.80251 13.9316 7.55213 13.7819 7.28543 13.6328C7.02689 13.4834 6.79437 13.3772 6.58788 13.314C6.34383 14.2817 6.01056 15.1513 5.58806 15.9229C5.17342 16.6854 4.65822 17.3766 4.04248 17.9965C4.04402 18.0404 4.08142 18.1755 4.15469 18.4018C4.22766 18.6192 4.35429 18.8524 4.53459 19.1013C4.72274 19.3411 4.97542 19.5567 5.29263 19.748C5.60952 19.9306 6.01283 20.0133 6.50253 19.9962C6.69025 19.9896 6.84455 19.9622 6.96545 19.914C7.08634 19.8658 7.17866 19.8186 7.24242 19.7723C7.39515 18.7638 7.66899 17.8302 8.06393 16.9716C8.45888 16.113 8.98702 15.3246 9.64836 14.6063C9.79569 13.6771 10.059 12.7923 10.4382 11.9519C10.8256 11.1112 11.3483 10.2833 12.0062 9.46833C12.3237 7.79404 13.0833 6.26271 14.2851 4.87434ZM11.7815 13.2118C11.7836 13.2733 11.7368 13.3366 11.641 13.4015C11.5534 13.4662 11.4414 13.5361 11.3051 13.6112C11.1685 13.6776 11.0118 13.7535 10.835 13.8389C10.6661 13.9152 10.5056 14 10.3536 14.0933C10.3171 14.2177 10.2886 14.3375 10.2681 14.4527C10.2558 14.5675 10.2436 14.6867 10.2316 14.8103L10.1401 14.9983C10.093 15.0528 10.0457 15.1028 9.99824 15.1485C9.95081 15.1941 9.9076 15.244 9.86864 15.2982C10.3823 15.9667 10.8027 16.656 11.1298 17.3662C11.4648 18.0673 11.7157 18.8153 11.8824 19.6103C11.9492 19.652 12.0447 19.697 12.169 19.7455C12.2933 19.794 12.4493 19.8149 12.637 19.8084C12.9471 19.7975 13.2189 19.7396 13.4522 19.6347C13.6855 19.5297 13.8852 19.3996 14.0514 19.2442C14.2176 19.0888 14.3549 18.9256 14.4633 18.7546C14.5796 18.5745 14.6717 18.4041 14.7397 18.2433C14.8076 18.0825 14.8518 17.9446 14.8723 17.8295C14.901 17.7141 14.9189 17.6431 14.9261 17.6164C13.4902 16.2761 12.5461 14.6327 12.0941 12.6861C11.9338 12.5421 11.7815 12.3934 11.6372 12.24C11.4927 12.0779 11.3479 11.9113 11.203 11.7404C11.0732 12.0001 10.9556 12.2594 10.8502 12.5183C10.7446 12.7684 10.6475 13.0314 10.5591 13.3073C10.7359 13.2219 10.9087 13.1411 11.0777 13.0648C11.2466 12.9885 11.3964 12.948 11.527 12.9435C11.5759 12.9418 11.6257 12.962 11.6762 13.0043C11.7264 13.0377 11.7606 13.0805 11.7787 13.1327L11.7815 13.2118ZM6.78981 3.30127C6.72391 3.28597 6.63759 3.27138 6.53088 3.25751C6.43232 3.24335 6.31775 3.23855 6.18716 3.24311C5.81989 3.25594 5.50011 3.3419 5.22783 3.50101C4.96371 3.65984 4.74116 3.83921 4.5602 4.03913C4.37923 4.23905 4.23907 4.43755 4.13972 4.63462C4.04037 4.83169 3.97575 4.97034 3.94587 5.05059C4.54714 5.65439 5.044 6.31025 5.43645 7.01814C5.82859 7.71725 6.13294 8.47663 6.34951 9.29627C6.53742 9.06091 6.7267 8.8651 6.91736 8.70884C7.11619 8.55229 7.29992 8.43148 7.46855 8.34639C7.64504 8.25222 7.80613 8.185 7.95181 8.14471C8.09749 8.10442 8.21915 8.07817 8.31678 8.06597C8.31525 8.02202 8.3178 7.97793 8.32442 7.9337C8.33074 7.88068 8.3413 7.83191 8.35609 7.78739L8.37689 7.68107L8.47207 7.59854L8.74398 7.31184C7.83139 6.21731 7.18 4.88045 6.78981 3.30127ZM7.35968 10.845C7.7118 10.1639 7.98122 9.45489 8.16795 8.71797C8.0797 8.76505 7.97922 8.81256 7.86649 8.86049C7.75376 8.90843 7.62955 8.97877 7.49387 9.07151C7.36635 9.16396 7.22767 9.2876 7.07781 9.44244C6.93581 9.5882 6.78719 9.77819 6.63193 10.0124L7.35968 10.845Z" fill="url(#paint0_linear_9398_18625)" style=""/>
<path d="M28.7139 10.8467L28.5751 10.8893C27.832 11.1952 27.1782 11.5635 26.6138 11.9942C26.0494 12.4249 25.5546 12.9409 25.1292 13.5424L25.0107 13.6568C24.7247 13.7653 24.4258 13.9129 24.1141 14.0996C23.8023 14.2862 23.4898 14.4966 23.1765 14.7306C22.8707 14.9648 22.5757 15.2192 22.2915 15.4938C22.0151 15.7607 21.7651 16.0364 21.5416 16.321C21.5241 16.3836 21.5181 16.4466 21.5235 16.51C21.5292 16.5655 21.531 16.6248 21.5287 16.6879C21.5141 17.1062 21.5303 17.5177 21.5772 17.9223C21.6244 18.319 21.7133 18.7211 21.8441 19.1287L21.8857 19.2487L21.8366 19.3418C21.8285 19.3573 21.7841 19.4269 21.7035 19.5505C21.6231 19.6662 21.4928 19.792 21.3126 19.928C21.1324 20.0639 20.8878 20.1857 20.5788 20.2935C20.2775 20.4015 19.902 20.4476 19.4524 20.4319C19.0028 20.4162 18.6316 20.34 18.3388 20.2034C18.0537 20.067 17.8261 19.9208 17.656 19.7647C17.4936 19.6089 17.3803 19.4667 17.3162 19.338C17.2523 19.2014 17.2206 19.1253 17.2211 19.1095L17.1796 18.9895L17.2286 18.8964C17.4193 18.4606 17.5645 18.0153 17.6643 17.5604C17.7642 17.1056 17.8226 16.6336 17.8397 16.1443C17.8513 15.8128 17.8438 15.4807 17.8173 15.1479C17.7986 14.8075 17.7536 14.4582 17.6822 14.1002L17.6871 13.9581C17.7924 13.5667 17.8783 13.1825 17.9448 12.8056C18.019 12.4289 18.0626 12.0551 18.0756 11.6842C18.0904 11.258 18.0705 10.8464 18.0157 10.4494C17.9611 10.0445 17.8838 9.63884 17.7835 9.23236L17.7644 9.12502L17.8134 9.03191C18.1714 8.17524 18.3654 7.31679 18.3954 6.45656C18.4073 6.11721 18.3925 5.77692 18.351 5.4357C18.3171 5.09475 18.253 4.74484 18.1587 4.38598L18.118 4.24232L18.214 4.1153C18.2219 4.10767 18.2535 4.07717 18.3087 4.02379C18.3643 3.96252 18.4468 3.89428 18.5562 3.81909C18.6659 3.736 18.806 3.65793 18.9764 3.58486C19.1471 3.5039 19.3477 3.43979 19.5782 3.39253C19.7313 3.16083 19.9016 2.98109 20.0892 2.85331C20.277 2.71764 20.4522 2.61709 20.6147 2.55165C20.7848 2.48648 20.9275 2.44405 21.0426 2.42436C21.1654 2.40495 21.2345 2.39156 21.25 2.3842L21.3758 2.38859L21.4647 2.46281C21.7006 2.70019 21.9375 2.90601 22.1756 3.08025C22.4139 3.24661 22.6605 3.39745 22.9151 3.53277C23.1777 3.66046 23.4561 3.7729 23.7503 3.87009C24.0444 3.96728 24.3657 4.05357 24.714 4.12894C24.7521 4.13027 24.7901 4.13555 24.8279 4.14477C24.8657 4.15399 24.9037 4.15927 24.9418 4.1606L25.0332 4.1638L25.1336 4.23842C25.4291 4.51739 25.7105 4.76031 25.978 4.96719C26.2533 5.16645 26.5372 5.33834 26.8298 5.48289C27.1225 5.61954 27.4315 5.7291 27.7567 5.81157C28.0819 5.89404 28.4423 5.95403 28.8377 5.99154L28.9863 5.99673L29.0732 6.13014C29.0726 6.14593 29.0828 6.18184 29.1038 6.23788C29.1323 6.29419 29.16 6.37418 29.1869 6.47784C29.2141 6.5736 29.2366 6.69292 29.2545 6.83577C29.2803 6.971 29.2902 7.12542 29.2841 7.29905C29.2786 7.45689 29.2575 7.62603 29.2206 7.80648C29.1914 7.9872 29.139 8.17896 29.0632 8.38175C28.9373 8.70923 28.7943 8.98079 28.6342 9.19644C28.7109 9.40456 28.7573 9.60372 28.7736 9.79393C28.7977 9.97651 28.8074 10.1349 28.8028 10.269C28.7986 10.3874 28.7876 10.4858 28.7696 10.5642C28.7516 10.6426 28.7423 10.6897 28.7417 10.7055L28.7139 10.8467ZM19.6213 6.74827L19.5564 6.63933C19.5414 6.63091 19.5084 6.5942 19.4572 6.5292C19.4061 6.4642 19.3521 6.37145 19.2953 6.25094C19.2387 6.12254 19.187 5.96665 19.14 5.78327C19.1006 5.60016 19.0852 5.38627 19.0937 5.14162C19.1003 4.95222 19.1141 4.77491 19.1352 4.60971C19.1641 4.43689 19.2002 4.27617 19.2436 4.12755C19.127 4.18669 19.0299 4.23861 18.952 4.2833C18.8818 4.32826 18.8231 4.36967 18.776 4.40753C18.9344 5.1163 19.0016 5.81399 18.9776 6.50059C18.9646 6.87152 18.9212 7.24138 18.8473 7.61017C18.7813 7.97134 18.6809 8.33131 18.5463 8.69008C18.7233 8.64885 18.896 8.61933 19.0644 8.6015C19.2405 8.58395 19.4048 8.57783 19.5572 8.58316C19.9763 8.59779 20.2916 8.63646 20.503 8.69915C20.7145 8.76185 20.861 8.82623 20.9426 8.89229C21.0389 8.97467 21.0818 9.05913 21.0711 9.14568C21.0686 9.2167 21.0399 9.27496 20.9849 9.32045C20.9375 9.36621 20.8834 9.38802 20.8224 9.38589C20.8072 9.38536 20.7846 9.37667 20.7546 9.35982C20.7326 9.33535 20.6839 9.30994 20.6085 9.2836C20.5334 9.24937 20.4276 9.22197 20.2909 9.2014C20.1546 9.17293 19.9683 9.15457 19.7321 9.14633C19.5416 9.13967 19.3351 9.15222 19.1128 9.18396C18.8904 9.2157 18.6555 9.27861 18.4081 9.37269C18.6026 10.138 18.6864 10.9074 18.6593 11.6808C18.6478 12.0123 18.6131 12.3509 18.5552 12.6965C18.5053 13.0345 18.4363 13.3719 18.3482 13.7086C18.4707 13.6971 18.593 13.6895 18.7152 13.6858C18.8374 13.6822 18.9595 13.6825 19.0814 13.6868C19.2567 13.6929 19.4544 13.7117 19.6746 13.7431C19.9026 13.7668 20.115 13.8019 20.3118 13.8483C20.5085 13.8946 20.6744 13.9518 20.8094 14.0197C20.9443 14.0877 21.0104 14.1611 21.0077 14.24C21.0055 14.3031 20.9767 14.3614 20.9215 14.4148C20.8741 14.4605 20.8199 14.4823 20.7589 14.4802C20.5837 14.4741 20.3789 14.4393 20.1446 14.3758C19.9106 14.3044 19.6564 14.2639 19.382 14.2543C19.2068 14.2482 19.0236 14.2497 18.8325 14.2589C18.6415 14.268 18.4576 14.2892 18.281 14.3226C18.3456 14.6567 18.3838 14.982 18.3957 15.2985C18.4154 15.6073 18.42 15.9117 18.4096 16.2116C18.3925 16.7009 18.3338 17.1808 18.2334 17.6514C18.1333 18.1141 17.9954 18.5676 17.8197 19.0119C17.8482 19.0682 17.8953 19.1409 17.9608 19.2301C18.034 19.3196 18.1338 19.41 18.2604 19.5013C18.3948 19.5851 18.5599 19.6619 18.7559 19.732C18.9521 19.7942 19.1911 19.8302 19.4731 19.84C19.7551 19.8499 19.9999 19.8307 20.2076 19.7827C20.4155 19.7267 20.5893 19.6656 20.729 19.5994C20.8765 19.5255 20.9898 19.4505 21.0687 19.3742C21.1556 19.2903 21.2189 19.2254 21.2586 19.1794C21.0214 18.3256 20.9166 17.5041 20.9441 16.7149C20.9596 16.273 21.009 15.8401 21.0925 15.4163C21.1838 14.9849 21.3132 14.5588 21.4805 14.138C21.365 13.731 21.2838 13.3252 21.2369 12.9205C21.19 12.5159 21.1739 12.1005 21.1888 11.6743C21.2029 11.2719 21.2439 10.8624 21.3118 10.446C21.3874 10.0298 21.4939 9.60293 21.6312 9.16524C21.4622 8.54301 21.3896 7.89254 21.4133 7.21383L21.4174 7.09545C21.1613 6.99959 20.9006 6.92727 20.6353 6.8785C20.3702 6.82183 20.0741 6.77989 19.747 6.75266L19.6213 6.74827ZM28.6121 6.55258C28.2474 6.50824 27.9176 6.44931 27.6226 6.3758C27.3276 6.30228 27.0449 6.20549 26.7744 6.08543C26.5115 5.96562 26.2495 5.82215 25.9883 5.65499C25.7347 5.48811 25.4709 5.2853 25.197 5.04659C25.1699 5.38541 25.1021 5.68726 24.9937 5.95213C24.8929 6.21726 24.7858 6.44267 24.6725 6.62835C24.5668 6.8143 24.4665 6.95698 24.3715 7.05638C24.284 7.15605 24.2364 7.20969 24.2285 7.21732C24.1811 7.26307 24.1269 7.28489 24.066 7.28276C23.9898 7.2801 23.9296 7.25429 23.8856 7.20534C23.8491 7.15666 23.832 7.10075 23.8342 7.03762C23.8364 6.97448 23.8533 6.92766 23.8849 6.89716C23.8928 6.88953 23.9327 6.83956 24.0046 6.74726C24.0767 6.64706 24.154 6.51147 24.2362 6.34051C24.3264 6.16192 24.4099 5.95545 24.4867 5.72108C24.5639 5.47883 24.6077 5.20775 24.6181 4.90785C24.6204 4.84472 24.6183 4.79329 24.6121 4.75356C24.6137 4.70621 24.5765 4.6812 24.5003 4.67854C24.1446 4.59501 23.8159 4.50451 23.5141 4.40705C23.2199 4.30986 22.9379 4.19334 22.6679 4.05749C22.4056 3.92191 22.1515 3.7708 21.9055 3.60418C21.6598 3.42967 21.4115 3.22345 21.1603 2.98554C21.1144 2.99183 21.0101 3.0277 20.8476 3.09314C20.693 3.15095 20.5288 3.26375 20.3551 3.43152C20.1893 3.59166 20.0327 3.81534 19.8853 4.10255C19.7459 4.38214 19.6684 4.74291 19.653 5.18486C19.6433 5.46108 19.6662 5.67917 19.7217 5.83914C19.785 5.99148 19.8461 6.10029 19.9048 6.16555C20.2625 6.19384 20.5927 6.24093 20.8956 6.30682C21.1985 6.37271 21.4891 6.46187 21.7675 6.57432C22.0459 6.68676 22.3196 6.82274 22.5887 6.98227C22.8578 7.1418 23.1337 7.32527 23.4164 7.53268C23.4759 7.57427 23.5355 7.61586 23.5951 7.65745C23.6547 7.69903 23.7181 7.74076 23.7853 7.78261C24.15 7.82695 24.4835 7.88996 24.7858 7.97163C25.0958 8.05357 25.3933 8.16273 25.6785 8.29912C25.9637 8.4355 26.2441 8.59937 26.5197 8.79073C26.8029 8.98236 27.1003 9.20609 27.4118 9.46192C27.4894 9.42512 27.5987 9.35387 27.7397 9.24817C27.8808 9.14247 28.023 9.00126 28.1665 8.82454C28.31 8.64781 28.4359 8.43096 28.544 8.17398C28.6522 7.91701 28.7122 7.61884 28.724 7.27949C28.7301 7.10586 28.72 6.95933 28.6936 6.83989C28.6749 6.72071 28.6477 6.62494 28.6121 6.55258ZM22.0863 14.1591L22.0373 14.2522C21.8871 14.6184 21.7713 14.9857 21.6898 15.3542C22.1559 14.8964 22.6506 14.4949 23.1738 14.1497C23.6971 13.8045 24.2119 13.4827 24.7182 13.1843C25.6077 11.9669 26.7803 11.0518 28.236 10.4389L28.2427 10.2495C28.2457 10.1627 28.2412 10.0716 28.2293 9.97641C28.225 9.88144 28.2057 9.77805 28.1715 9.66623C27.976 9.80163 27.8083 9.9064 27.6684 9.98053C27.5287 10.0468 27.4513 10.0796 27.436 10.0791L27.2858 10.1213L27.176 9.98704C26.9165 9.77254 26.6675 9.58211 26.4292 9.41575C26.1987 9.24177 25.9673 9.09541 25.735 8.97667C25.3712 9.34325 24.9821 9.66943 24.5678 9.95522C24.1613 10.2334 23.718 10.4747 23.2378 10.6792C23.4987 10.8542 23.7093 11.0512 23.8695 11.2702C24.0376 11.4815 24.1642 11.6795 24.2493 11.8642C24.3421 12.0492 24.4053 12.2055 24.439 12.3331C24.4729 12.4528 24.4898 12.5166 24.4895 12.5245L24.487 12.5955C24.4854 12.6428 24.4607 12.6933 24.4131 12.747C24.373 12.8009 24.3149 12.8265 24.2387 12.8239C24.1396 12.8204 24.0806 12.763 24.0616 12.6517C24.0619 12.6439 24.0373 12.5837 23.9878 12.4714C23.9462 12.3514 23.871 12.2105 23.7622 12.0487C23.6613 11.8792 23.5187 11.7043 23.3342 11.5241C23.1577 11.3362 22.9346 11.1703 22.6649 11.0266L21.7394 11.9662C21.742 12.3297 21.7639 12.6861 21.8051 13.0352C21.8542 13.3767 21.9338 13.7192 22.0439 14.0628L22.0863 14.1591ZM23.5046 8.28246C23.2208 8.10662 22.9558 7.93933 22.7096 7.7806C22.4633 7.62187 22.224 7.48314 21.9917 7.3644C21.9815 7.65641 21.9943 7.94526 22.0301 8.23097C22.0662 8.50879 22.121 8.79516 22.1946 9.09009L22.1888 9.25582C21.9749 9.91999 21.8339 10.5709 21.7659 11.2086C21.9001 11.0789 22.0267 10.949 22.1457 10.8188C22.2726 10.681 22.349 10.5691 22.3749 10.4831L22.4468 10.3908L22.5505 10.3707C23.5701 10.0113 24.4552 9.46534 25.2056 8.73299C24.9648 8.63766 24.7156 8.5618 24.4582 8.5054C24.2084 8.44927 23.9392 8.40036 23.6507 8.35868L23.5046 8.28246Z" fill="url(#paint1_linear_9398_18625)" style=""/>
<defs>
<linearGradient id="paint0_linear_9398_18625" x1="8.96112" y1="2.47304" x2="9.59278" y2="20.5615" gradientUnits="userSpaceOnUse">
<stop stop-color="white" style="stop-color:white;stop-opacity:1;"/>
<stop offset="1" stop-color="white" stop-opacity="0.69" style="stop-color:white;stop-opacity:0.69;"/>
</linearGradient>
<linearGradient id="paint1_linear_9398_18625" x1="23.6047" y1="2.46643" x2="22.9731" y2="20.5549" gradientUnits="userSpaceOnUse">
<stop stop-color="white" style="stop-color:white;stop-opacity:1;"/>
<stop offset="1" stop-color="white" stop-opacity="0.69" style="stop-color:white;stop-opacity:0.69;"/>
</linearGradient>
</defs>
</svg>
